<?xml version="1.0" standalone="no"?>
<!DOCTYPE svg PUBLIC "-//W3C//DTD SVG 1.1//EN" "http://www.w3.org/Graphics/SVG/1.1/DTD/svg11.dtd" >
<svg>
<metadata>
Created by FontForge 20090914 at Fri Feb 24 08:10:11 2012
 By root
(c) M. Klein, Frankfurt   7.7.07
</metadata>
<defs>
<font id="Planets" horiz-adv-x="623" >
  <font-face 
    font-family="Planets"
    font-weight="500"
    font-stretch="normal"
    units-per-em="1000"
    panose-1="2 0 6 7 2 0 0 2 0 4"
    ascent="800"
    descent="-200"
    x-height="999"
    cap-height="966"
    bbox="18 -46.2759 1793 1003.7"
    underline-thickness="50"
    underline-position="-75"
    unicode-range="U+0005-U+2122"
  />
<missing-glyph horiz-adv-x="1000" 
 />
    <glyph glyph-name=".notdef" horiz-adv-x="1000" 
 />
    <glyph glyph-name="breve" 
 />
    <glyph glyph-name="dotaccent" 
 />
    <glyph glyph-name="ring" 
 />
    <glyph glyph-name="hungarumlaut" unicode="&#xa;" 
 />
    <glyph glyph-name="ogonek" 
 />
    <glyph glyph-name="caron" 
 />
    <glyph glyph-name="dotlessi" unicode="&#xd;" 
 />
    <glyph glyph-name="fraction" 
 />
    <glyph glyph-name="fi" 
 />
    <glyph glyph-name="fl" 
 />
    <glyph glyph-name="Lslash" horiz-adv-x="434" 
d="M393 289q3 4 2 8.5t-4.5 7t-8.5 2.5q-4 0 -7 -4q-15 -20 -24.5 -42t-21 -40.5t-29.5 -31t-51 -12.5q-69 0 -112.5 40.5t-60.5 103.5q-2 5 -6 7t-8 0.5t-7 -5t-1 -8.5q9 -34 26 -63t41.5 -50.5t56.5 -34t71 -12.5t61.5 15t36.5 37q13 20 22 41.5t24 40.5z" />
    <glyph glyph-name="lslash" 
 />
    <glyph glyph-name="Zcaron" 
 />
    <glyph glyph-name="zcaron" 
 />
    <glyph glyph-name="space" unicode=" " 
 />
    <glyph glyph-name="exclam" unicode="!" horiz-adv-x="1225" 
d="M1146 402q17 60 9 117.5t-28 117.5q-3 21 -12.5 38.5t-21.5 33t-25.5 30t-25.5 29.5l-2 8q-5 6 -8 13q2 2 2 3q-11 15 -24.5 31.5t-28.5 32.5t-31.5 29t-32.5 22q11 -8 21 -17t20 -19q-23 19 -47 32t-49 24q-30 26 -72.5 39t-86.5 24l-2 2l-1 -1l-18 4q-38 10 -76.5 8.5
t-80.5 -3.5q-50 -7 -101.5 -19.5t-96.5 -35.5q-41 -21 -77 -46.5t-73 -59.5l-27.5 -36t-25.5 -35.5t-22 -39.5t-17 -47q-14 -61 -19.5 -121t11.5 -124q14 -51 34 -93.5t46 -81.5l18.5 -25.5t21 -24.5t25 -19.5t30.5 -9.5q9 3 16.5 2t15 -3.5t14.5 -6t15 -4.5v-4
q-5 -3 -8.5 -3.5t-4.5 -5.5q19 -16 41.5 -18.5t46.5 1t47.5 9t45.5 5.5q4 3 10 3h1v-17l-102 -12l-4 -4q-3 -7 1 -7q5 -5 10.5 -3t8.5 -3q0 -5 0.5 -10t3.5 -8l22 -12t25 -11q51 -17 103.5 -29.5t105.5 -9.5q19 2 39 5.5t41 8.5q24 9 49.5 14.5l50 11t48.5 12.5t47 19
q81 43 133 119q26 38 42 84.5t30 96.5zM831 53q-5 -2 -10 -3t-11 -3q-111 -44 -228 -24q-25 1 -51 9t-51.5 17l-49.5 17t-43 11l1 -13l23.5 -16t29.5 -12q24 -12 50 -18.5t52.5 -10t53 -4.5t52.5 -3q47 5 96 16t86 37zM904 886q-4 3 -7.5 6.5l-7.5 7.5q4 -4 7.5 -7t7.5 -7z
M927 870q-2 -11 -12 -16t-22 -9l4 5zM840 936l-17.5 6l-16.5 6l1 2q9 -3 17 -6.5t16 -7.5zM896 873h-3l-46 38zM1072 674l-11 35q4 -8 6.5 -16.5t4.5 -18.5zM1059 545l-4 2l-9 9t-7 11q3 50 -13 101.5t-41 89.5l-20.5 31t-23.5 29q38 -31 61.5 -67t40.5 -79q15 -30 19 -63
t-3 -64zM1115 564q1 0 -0.5 -4.5t-3.5 0.5l-13 24q5 -2 9 -8.5t8 -11.5zM813 879l-17 -34l-2 2q-2 11 5 17.5t14 14.5zM692 978l-2 -4q-6 3 -11 3v5zM813 919q1 -15 -10 -26t-16 -23q-3 -5 -4 -6l-3 -3l-34 -16l-12 7q0 1 -1 2.5t1 3.5q27 6 49 20.5t30 40.5zM1111 534
q-3 4 -7.5 7.5t-6.5 8.5zM1089 614q-2 -24 -2.5 -48t-8.5 -46l-16 -29l10.5 26.5l5.5 14.5l0.5 3t2.5 21.5t7 58.5zM1122 496q0 -4 -4 -1q-5 4 -13.5 9.5t-13.5 15.5v7zM679 958l-1 -1l-53 13zM1100 481q-5 4 -11.5 7.5t-10.5 11.5q0 1 0.5 3t3.5 2q5 -2 10 -11t8 -13z
M666 939l-3 -5h-4q-23 4 -45 11.5t-43 15.5q24 -7 48 -11.5t47 -10.5zM1114 441q1 -2 -1 -4t-4 0l-40 26l-1 23zM716 866q-5 -7 -17 -11q-7 0 -14.5 4t-15.5 2q-2 0 -6 0.5t-6 5.5zM909 738q0 -3 -1 -2.5t-3 -1.5q-6 20 -17.5 37.5t-30.5 28.5q-20 9 -36.5 8.5t-34.5 -4.5
v-4q26 0 48.5 -9.5t38.5 -29.5q10 -18 14 -36t0 -38q-9 -17 -15 -32.5t-18 -28.5v1q4 15 9.5 32t9 34.5t2.5 34t-11 30.5q-14 21 -38.5 27.5t-48.5 0.5q-20 -9 -40.5 -6t-33.5 13q-4 2 -5.5 7.5t-4.5 11.5q20 -29 54 -23q5 2 8 1.5t6 4.5q-14 8 -30.5 14t-24.5 23
q-2 3 -2.5 5.5t-2.5 4.5q16 -19 38 -20t45.5 1t46 1.5t39.5 -18.5q14 -17 24.5 -32t14.5 -36zM964 663q-4 -22 -10.5 -38l-14.5 -34q-23 -25 -43 -52t-25 -66q2 -17 7.5 -31.5t7.5 -29.5l-2 2q-9 14 -14.5 31t-7 35t2 36t12.5 34q12 20 27 41t27 43.5t17.5 47t-2.5 52.5
q-6 23 -16 39l-21 33q31 -25 44.5 -62.5t10.5 -80.5zM1105 410l-3 1l-39 25l4 14zM769 726l-1 -3h-2l2 4zM1054 443l-35 -21q6 11 16.5 16.5t18.5 8.5v-4zM1069 406q0 -5 -4 -2l-27 10q-3 5 2.5 8t8.5 5q8 0 11 -7t9 -14zM1014 524q1 -15 -4 -26.5t-13 -21.5t-18.5 -19.5
t-19.5 -20.5v1q1 12 10 22t19 19.5t18 20.5t8 25zM985 620q-4 -25 -18 -44l-28.5 -37.5t-25 -39.5t-6.5 -51q-2 -7 -1.5 -9.5t-1.5 -7.5h-4l-2 1q-4 27 2 50.5t18 44t27.5 39.5l31.5 38q2 5 4 8t4 8zM763 702l-1 -6l-11 1l2 4q3 0 5.5 0.5t4.5 0.5zM682 812q0 -5 -3 -6
q-18 2 -38.5 -2t-30.5 -15q13 27 52 33h10t7 -4q1 0 3 -6zM999 560l-19 -35.5t-18 -39t-13 -42t-3 -43.5q-2 -4 -2.5 -6.5t-2.5 -0.5h-2q0 20 2 41.5t7.5 42.5t15 39.5t24.5 32.5l6.5 6.5zM1032 490q-3 -16 -13.5 -27.5t-22.5 -22.5t-22 -24t-12 -32l-3 2q0 18 7.5 32.5
t18.5 27t23.5 23t23.5 21.5zM1064 377l-3 -2l-49 21q-2 5 0.5 7t5.5 6zM609 864q3 -5 -4 -5l-100 18q11 5 23 5q13 0 26.5 -3t27.5 -7.5t27 -7.5zM757 675l-2 -9l-21 1l5 9zM754 661l-3 -12l-15 -3h-14l7 13zM1031 357l-22 13q-1 2 -0.5 4t-0.5 5zM441 965l-21 -9h-10z
M1065 318q2 -2 0 -3t-4 1q-2 0 -6 4q2 0 4 -1t6 -1zM1038 325q-16 0 -27 14q0 2 -0.5 4l-1.5 6zM747 632l-2 -7q-9 -2 -18.5 -2.5t-19.5 -2.5l4 8q20 0 36 4zM642 849q-20 -16 -45 -20t-50.5 -6.5t-49 -9t-40.5 -26.5q-5 -4 -7.5 -7t-6.5 -5h-2q-4 0 -6 2q5 14 19 23.5
t27 19.5q21 7 41.5 8.5l40.5 3t40 4.5t39 13zM1031 303l-17 3q-3 2 -1.5 5.5t1.5 6.5zM741 607l-1 -4l-41 -12h-9l4 7q8 1 14.5 1.5t12.5 2.5q6 1 10.5 2t9.5 3zM622 820q-17 -14 -40 -21t-46.5 -12.5t-46 -13.5t-39.5 -25q-5 -4 -7 -6t-7 -4l-1 1l-1 3q17 22 39 34t52 19
q26 2 50 8.5t47 16.5zM1023 279l-2 -1h-17q-5 0 -4.5 5t2.5 8zM995 312q0 -10 -5 -18q2 5 3 10t2 8zM396 930q-6 -2 -8 -3q-12 2 -23 1.5t-22 -9.5q-4 0 -4 4l21 14zM735 582l-2 -9q-31 -8 -59 -11l5 9q27 1 56 11zM1005 255q0 -5 -1 -3t-3 0h-10q-2 3 -5 8.5t-1 11.5
q6 1 11.5 -5.5t8.5 -11.5zM730 559l-2 -9q-15 -5 -30.5 -8.5t-31.5 -5.5h-7l3 5q17 2 34.5 7t33.5 11zM873 352q-5 -24 -11.5 -48.5t-22.5 -38.5l-1 1l-5 16q29 33 31.5 80t-19.5 90q-7 14 -7.5 28.5t1.5 28.5q0 -20 7 -38.5l14.5 -37.5t12 -39t0.5 -42zM362 897l-6 -10
l-43 15q24 3 49 -5zM1002 228q0 -4 -1 -2.5t-3 -0.5q-6 0 -10 2q-2 2 -3.5 6t0.5 7zM507 859q-25 -8 -48.5 -27.5t-36.5 -42.5q-3 -17 -12.5 -29t-22 -20.5t-25.5 -15t-24 -13.5q8 13 20 22t23 19.5t19 23.5t10 33q2 16 12 27.5t22 20.5q16 8 33.5 11t29.5 -9zM580 761
q8 -14 1 -34.5t-14 -35.5q-8 -17 -21 -28.5t-32 -14.5q-12 -2 -24.5 2t-25 8.5t-25 6t-25.5 -5.5q-2 0 -2 1q0 2 2 4l47 15q1 3 0 9q0 5 3 10q7 0 11 -1q0 -1 -0.5 -2t0.5 -3q1 -8 3 -14.5t4 -14.5q2 -5 6 -6.5t8 0t6.5 5.5t0.5 9l-4 11.5t-2 11.5q13 -2 25 -0.5t21 12.5
l-26 -34q6 -3 16 0t15 9q14 16 19 38.5t13 41.5zM347 872l-1 -2l-60 16q16 0 30.5 -5.5t30.5 -8.5zM511 728l-86 -30l2 3q16 10 38.5 18.5t45.5 8.5zM816 393q3 -26 -20 -44h-3l-1 3zM724 532l-2 -10q-11 -2 -20.5 -4.5t-19.5 -4.5q-2 -2 -3 -6q0 -4 3 -7l35 3l-2 -12
q-20 2 -40 2q-19 0 -35 -10q-1 -4 0 -10q0 -3 5 -3l-25 -3l8 15l1 1h-1l11 18q4 1 8 1.5t8 2.5v4h-11l2 4q21 2 40.5 7t37.5 12zM965 335q4 -20 1.5 -41t-10 -40.5t-18.5 -37t-24 -30.5q-11 -12 -21 -18.5t-24 -16.5h-2h-3q34 29 61 63t39 84q1 11 1 19v18zM334 851l-1 -2
l-69 18q14 0 32 -7t38 -9zM975 192q-2 -5 -7.5 -4t-10.5 -2q-1 0 -0.5 -2t2.5 -3h-2h-2q-1 0 -3 1l1 16q2 2 4.5 4t6.5 2zM322 831l-1 -1l-5 1h6zM849 370q-5 -44 -26 -75t-49 -59l-1 2zM300 832l-61 7q-4 2 -1.5 4.5t5.5 4.5zM704 447l-1 -6q-14 2 -27 1t-23 -8q4 -2 9 -2
l40 4l-4 -16q-23 4 -47 9l-48 10l5 9q23 -2 47.5 -0.5t48.5 -0.5zM298 810q-4 -2 -7 -3l-35 5zM693 400v-1l-18 1h18zM259 793l-7 -3l-23 4zM928 141q-8 -12 -20 -18.5t-28 -11.5l-5 -2l30.5 18.5l22.5 14.5v-1zM925 332q-4 -20 -7 -40.5t-8 -40t-15 -36.5t-28 -29
q-18 -15 -37 -26.5l-38.5 -22.5t-37.5 -24.5t-33 -32.5l-1 2l-1 2l38 50q1 -1 -2 3t-3 -1l-40 -38q1 7 7 15.5t14.5 16.5t18 15t15.5 12l38 19t35 21l-51 -40q26 5 50.5 22.5t47.5 41.5q10 12 13.5 27.5t5.5 30.5t5 29t14 24zM689 380l-2 -10l-109 12q-6 4 -2 9
q27 -5 55.5 -8.5t57.5 -2.5zM605 414l-15 1l1 2zM210 770q-6 -4 -8 -6l-16 1q-5 1 -2.5 4.5t2.5 5.5q6 -2 12 -3zM651 349q-2 -7 -9 -7l-76 15q0 6 9 9q15 -11 36 -13t40 -4zM404 713q-12 -11 -27 -23t-28 -25.5t-23 -29.5t-12 -35q1 -15 -2 -30t-8.5 -29t-11.5 -26t-10 -22
q12 32 20.5 68t6.5 72q20 59 71 78zM884 132q-17 -20 -44.5 -25.5t-53.5 -9.5h-16q-2 1 -3.5 2t0.5 5zM194 742l-1 -1l-4 1h5zM759 298q-10 -23 -29 -35.5t-41.5 -20t-46 -13t-44.5 -15.5q-3 0 -5 2q14 18 37 24.5t47 11.5t46 14t36 32zM818 229q-15 -16 -33.5 -27
l-37.5 -21.5t-36.5 -24.5t-31.5 -36q-6 -5 -9 -9l-1 3q6 23 26.5 42t40.5 30q22 12 42 20.5t40 22.5zM191 726l-1 -6l-13 1zM622 322q-2 -3 -5.5 -4.5t-7.5 -2.5l-66 15zM400 399q-7 21 -21.5 37l-28.5 32.5t-22 36.5t-1 49l11.5 43.5t20.5 34.5q-1 -20 -7 -42t-10 -44
t-1.5 -42.5t19.5 -37.5q18 -11 30 -28.5t10 -38.5zM558 302q2 -2 0.5 -4.5t-3.5 0.5l-17 4q-2 3 -0.5 4t3.5 3zM185 681l-2 -8l-21 5q11 0 23 3zM180 658l-2 -8l-33 4zM307 708q-18 -8 -23 -26t-7 -38q1 -21 2.5 -43t-0.5 -43.5t-8.5 -40.5t-20.5 -34q-17 -18 -36.5 -27
l-36.5 -17q28 16 53 36t35 58q1 22 -3 45t-5.5 45t3.5 41.5t23 34.5q6 2 11 6.5t13 2.5zM534 283q0 -1 -2 -3t-4 -2h-7q-1 4 1 4.5t6 2.5q2 0 6 -2zM173 632v-3l-7 2zM709 223q-17 -12 -39 -21t-42.5 -20t-36.5 -27t-22 -41q-3 -8 -4 -16t-9 -10q1 28 14 51.5t35 40.5
q20 20 48 28t56 15zM373 393q0 14 -7.5 26.5t-18.5 21.5q-7 7 -14 12.5t-10 12.5v7q20 -11 33.5 -28t16.5 -43v-9zM508 265q1 -3 -1.5 -5t-5.5 0l-1 3q4 2 8 2zM589 258q-17 -5 -31 -13t-19 -27q0 -14 4 -25.5t7 -21.5q0 -2 -3 -4.5t-6 -2.5q-8 0 -15 5t-8 12
q-8 16 -3.5 28.5t13.5 22.5q13 13 28.5 18.5t32.5 7.5zM166 612q-1 -4 -2.5 -7.5t-3.5 -7.5l-27 5q0 3 -1.5 2t1.5 3zM149 574l-3 -4h-11zM452 339l-42 -14q-17 0 -32 7t-29.5 14.5t-29.5 11.5t-33 -3q-7 -4 -10.5 -8t-9.5 -4q-2 2 1 4.5t3 4.5q23 16 55.5 15t58.5 -16
q17 -9 34 -10.5t34 -1.5zM479 230l-2 -2h-3q-2 0 -4 1q2 2 4.5 2.5t4.5 -1.5zM327 386l-40 -15v4zM489 312q-11 -31 -45 -39q-19 1 -39 5t-39 6.5t-37 0.5t-33 -14l-1 -2t-3 -4q9 1 20.5 4t23.5 5t24.5 0.5t23.5 -8.5q-28 0 -55 -3t-49 -21l-2 3q2 4 6 7.5t7 8.5
q-2 5 -7 1.5t-10 0.5q0 9 9 16.5t17 11.5q23 12 50 7.5t52.5 -10t48.5 -3.5t38 27zM477 208h-3l-89 9q5 1 9 1.5t8 0.5q19 -5 37.5 -6t37.5 4v-9zM387 311q-12 1 -25 6t-27 8.5t-28 3.5t-27 -9q-12 -8 -21 -15.5t-23 -9.5l-2 2q20 23 52 34.5t67 -4.5q10 -5 18 -9.5t16 -6.5
zM309 443q0 -28 -14.5 -44.5t-32.5 -30t-34 -29t-20 -41.5l-2 2q-2 0 -6 6q0 23 15.5 38.5t34.5 23.5q10 4 16 10t14 11zM484 168l-84 -11q-1 0 -3 1t-4 1l90 18q1 -2 2 -4.5t-1 -4.5zM479 189l-59 -5q-28 -2 -57 1.5t-56 14.5q-4 1 0 4q16 1 32 -2.5l32.5 -7t32.5 -5
t33 1.5q12 1 22 4t20 2q3 -4 0 -8zM273 298l-32 -46l-4 3q-2 9 3 16.5t12 12.5t11.5 7.5t9.5 6.5z" />
    <glyph glyph-name="quotedbl" unicode="&#x22;" horiz-adv-x="1457" 
d="M400 910l-97 18l-152 -10l-44 -25l-53 -63v-107l53 -97l89 -88v-142l61 -142l63 -80l161 -107l142 -54l131 -12l108 23l142 70l141 160l19 53l26 26l89 18l89 45l54 61l-10 72l-106 87l-72 36l-79 10l-89 142l-133 114l-98 54l-98 27l-177 -17zM924 715l-80 186v35
l80 -43l132 -117l72 -141v-72l-8 -8l-187 -17l-125 17l116 133v27zM755 759l-71 204l36 8l53 -8l27 -17l89 -249l-124 -134l-125 46l44 35zM125 875l44 18l107 17l97 -17l-53 -45l-8 -27l70 -98l116 -97l214 -88l230 -36l195 18l36 26v27l-9 62h17l89 -26l98 -71l27 -63
l-19 -35l-106 -62l-125 -35l-390 -10l-257 71l-222 106l-125 116l-70 115v89zM427 893l142 61l79 9l10 -45l62 -150l-27 -53l-88 -89l-143 71l-70 71l-36 71zM755 298h329l53 17l-17 -37l-81 -113l-97 -80l-142 -53h-98v17l-62 134l-9 71l53 61zM454 236l-9 71l71 61
l132 -43l-25 -27l-36 -72l79 -194l-168 53v27zM290 247l-63 142l-13 131l89 -63l168 -79l-36 -35l-35 -53l62 -188l-118 84zM765 183q8 23 -1.5 45t-31.5 30q-23 9 -45 -0.5t-30 -32.5q-9 -23 0.5 -45t32.5 -30t44.5 1t30.5 32zM391 327q9 23 -0.5 44.5t-32.5 30.5
q-23 8 -44.5 -1.5t-30.5 -32.5q-8 -23 1.5 -44.5t32.5 -30.5q22 -8 44 1.5t30 32.5zM736 178q-5 -11 -15 -15.5t-21 -0.5q-11 5 -15.5 15t-0.5 21q5 11 15 16t21 0q11 -4 15.5 -14.5t0.5 -21.5zM362 322q-4 -11 -14 -16t-21 0q-11 4 -16 14.5t0 21.5q4 11 14.5 15.5
t21.5 0.5q11 -5 15.5 -15t-0.5 -21z" />
    <glyph glyph-name="numbersign" unicode="#" horiz-adv-x="1383" 
d="M397 920l-54 -45l-152 -9l-72 -27l-35 -18l-33 -44l-3 -81l45 -71l98 -79l27 -153l62 -163l89 -107l124 -89l108 -33l205 18l134 59l89 75l89 133l135 28l34 8l55 71v63l-64 62l-80 36l-27 27l-7 71l-63 134l-143 134l-133 53l-143 26l-143 -8zM904 821v28l10 61l61 -35
l99 -98l-28 -18l-71 -9zM476 938l35 18l215 17l35 -9l107 -35l10 -125l89 -80l44 -10l81 36l8 -8l45 -107l14 -172l-54 -7l-115 6l-32 92l-63 63l-80 8l-72 -61l-17 -46l-241 89l-159 82l-55 53l36 44l26 -18l107 -9l53 36l18 62zM753 510l53 71l72 9l36 -27l35 -89l-124 9z
M88 787l93 52l135 18l-63 -80l-8 -63l35 -35l241 -125l330 -107l313 -27l26 19l-13 89l48 -10l89 -62l10 -53l-57 -53l-77 -28l-98 -8l-147 15l-359 70l-199 84l-151 71l-107 81l-53 71zM326 821l43 54l81 45l18 -28l8 -61l-36 -36l-71 -9zM761 126l36 45h63l62 -63l-44 -35
l-125 -36v27zM262 367l-9 9l-35 160l62 -44l160 -63l28 -79l62 -64l87 7l47 29l8 28h27l163 -40l230 -32l-107 -125l-36 -17l-27 25l-44 36h-99l-53 -53l-8 -116h-126l-99 44l-124 89l45 107l-53 99h-99zM539 322l-46 45v44l153 -54l-27 -35h-80zM280 304v36h53l28 -26
l18 -54l-28 -71l-8 8zM1118 530q6 23 -5.5 44t-34.5 28t-44 -5t-28 -35t5 -44t35 -27q23 -7 44 4.5t28 34.5zM733 641q7 23 -5 44t-35 27q-23 7 -44 -4.5t-27 -34.5q-7 -23 4.5 -44t34.5 -28t44 5t28 35zM1089 523q-3 -11 -13 -16.5t-21 -2.5t-16.5 13t-2.5 21t13 16.5
t21 2.5t16.5 -13t2.5 -21zM705 633q-4 -11 -14 -16.5t-21 -2.5t-16.5 13t-2.5 21q4 11 14 17t21 2q11 -3 16.5 -13t2.5 -21z" />
    <glyph glyph-name="dollar" unicode="$" horiz-adv-x="1379" 
d="M425 937l-90 26h-162l-71 -36l-45 -54l8 -72l45 -80l73 -72l-18 -36l8 -172l46 -152l80 -126l126 -108l126 -54l171 9l135 45l81 45l181 161l125 10l72 36l27 53l-27 45l-99 72l-45 19l-82 233l-80 117l-153 117l-90 27l-142 9zM956 667v89l36 55l81 -118l54 -152v-100
l-152 12l8 47l9 85zM839 747l27 64l63 72l46 -36l-55 -72l-9 -72l36 -90l9 -82l-18 -72l-99 37l10 9l26 90l-26 72zM785 873l28 72h17l63 -37l-63 -80l-27 -117l18 -54l9 -89l-36 -64l-251 135l8 10v8l64 82h116l36 35zM659 891l18 82h18l82 -10v-18l-10 -8l-19 -91l-43 -72
h-82l-44 -18l-64 -89l-73 44l29 28l53 80l63 17zM353 855l136 82l162 36l-18 -46l-46 -54l-63 -18l-53 -44l-46 -64l-36 36l-45 63zM102 901l72 36l117 8l62 -8l36 -19l-90 -82l81 -107l144 -116l306 -162l171 -36h171v54l45 -18l89 -72v-46l-26 -26l-90 -18l-189 18l-99 18
l-180 54l-387 198l-151 108l-91 108l-18 72zM767 207l82 72l8 28l45 -18l162 -28l-81 -89l-108 -80l-117 -46l-17 135zM633 225l98 118h17l73 -36l-99 -90l-17 -54l17 -126l-89 -17l-18 134zM281 432l-72 -35l-8 234l143 -100l-45 -99h-18zM389 316l72 53l28 90l72 -28
l144 -71l-109 -107l-17 -108l17 -125l-45 8l-116 54l-154 143l36 36l18 28zM227 360l109 64l44 89l72 -44l-9 -54l-18 -46l-81 -36l-80 -72l-37 64v35zM1111 502q7 23 -4.5 44t-34.5 28t-44 -5t-28 -35t5 -44t35 -27q23 -7 44 4.5t27 34.5zM727 613q-7 -23 -28 -35t-44 -5
t-34.5 28t-5.5 44q7 23 28 34.5t44 4.5q23 -6 35 -27t5 -44zM1083 495q-3 -11 -13 -16.5t-21 -2.5t-16.5 13t-2.5 21t13 16.5t21 2.5t16.5 -13t2.5 -21zM699 605q3 11 -2.5 21t-16.5 13q-11 4 -21.5 -2t-13.5 -17t2.5 -21t16.5 -13t21 2.5t14 16.5z" />
    <glyph glyph-name="percent" unicode="%" horiz-adv-x="1535" 
d="M468 920l-120 -122l-37 -55l-28 -27l-176 -19l-66 -37v-74l75 -75l84 -36l18 -20l65 -185l92 -111l149 -111l159 -47l239 18l157 74l93 111l66 131l138 19l65 27l57 57v45l-93 74l-84 37l-56 10l-83 157l-131 148l-138 66l-130 24l-185 -15zM542 928l103 37l148 10
l46 -10l103 -27l120 -74l102 -121l74 -157l9 -117l-317 -29l-432 70l-168 57l-56 46l56 120l129 150zM61 641l27 19l186 37l-18 -37l-10 -74l65 -47l157 -56l454 -74l325 29l37 26v29l-9 83l37 -9l111 -56l56 -56l-47 -55l-120 -37l-492 -11l-99 14l-401 80l-148 65l-102 75
zM385 178l-84 111l-55 157l10 -8l231 -67l315 -45h399l-37 -85l-92 -119l-122 -66l-194 -28l-140 9l-64 29zM1057 510q7 23 -5 44t-35 28t-44 -5t-28 -35t5 -44t35 -27q23 -7 44 4.5t28 34.5zM672 621q7 23 -5 44t-35 27q-23 7 -44 -4.5t-27 -34.5q-7 -23 4.5 -44t34.5 -28
t44 5t28 35zM1028 503q-3 -11 -13 -16.5t-21 -2.5t-16.5 13t-2.5 21t13 16.5t21 2.5t16.5 -13t2.5 -21zM644 613q-3 -11 -13.5 -16.5t-21.5 -2.5t-16.5 13t-2.5 21q4 11 14 17t21 2q11 -3 16.5 -13t2.5 -21z" />
    <glyph glyph-name="ampersand" unicode="&#x26;" horiz-adv-x="1067" 
d="M308 941l-9 -111l23 -83l-20 -28l-64 12l-88 11l-75 -23l-50 -44l15 -73l74 -64l72 -35l11 -75l70 -140l81 -82l94 -41l116 -5l41 -70l75 -71l58 -18l24 6l23 30l12 65l-12 58l-35 69l70 88l65 -12h87l47 23l29 41l-6 64l-17 30l-100 58l-59 23l-46 111l-58 70l-87 64
l-88 23h-47l-23 45l-46 84l-52 46l-26 12l-50 -12zM407 771l58 18l81 12l93 -18l58 -29l89 -81l53 -113l14 -92l-29 -71l-219 43l-71 19l-23 44zM69 695l29 18l94 12l93 -18l-24 -29l-53 6h-69l-41 -29l-6 -35l18 -17l93 -47l221 -82l58 -20l304 -71l175 -12l22 33v24
l-22 23l-94 35l-7 40l83 -34l64 -40l23 -77l-36 -44l-36 -8h-102l-304 69l-184 59l-241 99l-70 64l-6 59zM285 293l-71 129l-6 70l234 -88l11 -12v-6l88 -209h-18l-87 6l-76 35zM325 941l35 40h35l41 -34l75 -129h-23l-12 -6l-40 82l-35 35l-18 6l-28 -24v-17l5 -58
l146 -368l-69 28l-7 25l-34 92l-3 8l-75 207zM534 241l-58 151h12l46 -17l30 -94l59 -133l46 -58l40 -7l23 23v42l-23 52l23 12l24 -47l18 -75l-12 -47l-11 -18l-30 -6l-47 18l-63 65zM634 188l-50 101l-26 86l228 -58l-18 -36l-48 -56zM232 566l35 89l70 70l25 -75
q-2 1 -3 1l-2 1q-23 7 -44 -4.5t-28 -34.5t5 -44t35 -28q20 -6 38 1.5t28 24.5l22 -64l-128 41zM781 470q7 23 -5 44t-35 28t-44 -5t-28 -35q-6 -23 5.5 -44t34.5 -27q23 -7 44 4.5t28 34.5zM122 649l17 12l51 6l60 -3l-12 -21l-24 -64h-17l-81 47v17zM849 392v17l18 54
l24 -7l64 -14l6 -38l-12 -12h-100zM377 859v52h18l18 -17l40 -88l-54 -17l-14 30zM665 120l-26 46l53 22l12 -23l13 -50l-15 -13zM753 463q-4 -11 -14 -16.5t-21 -2.5t-16.5 13t-2.5 21t13.5 16.5t21.5 2.5t16.5 -13t2.5 -21zM368 573q-3 -11 -13 -16.5t-21 -2.5t-16.5 13
t-2.5 21t13 17t21 2q11 -3 16.5 -13t2.5 -21z" />
    <glyph glyph-name="quotesingle" unicode="'" horiz-adv-x="1617" 
d="M487 928l-51 -4l-136 31l-178 -9l-53 -26l-18 -46l8 -79l54 -72l134 -88l25 -20l-14 -43l-11 -72l26 -178l53 -98l125 -124h9l19 -18l132 -63l117 -17l142 9l184 67l173 182l18 72l222 8l81 36l36 63l-36 79l-125 99l-196 89l-81 125l-115 106l-89 45l-72 17l-213 -8z
M487 902l191 65l192 6l125 -45l89 -71l98 -115l42 -83l-6 -105l-151 9l-410 104l-241 120l9 44zM211 813l27 41l97 -6l54 -10l-17 -52l17 -18l54 -35l240 -98l312 -90l223 -27l44 36v18l121 -43l38 -58l-28 -24h-112l-402 71l-356 117l-250 115zM84 850l20 61l83 15l59 2h80
l117 -36l-36 -35l-35 17l-135 10l-53 -45v-53l27 -27l54 -45l285 -125l364 -115l286 -53l223 -10l36 28v44l-63 62l-145 63l2 62l179 -89l116 -107v-48l-63 -59l-142 -9l-303 45l-321 89l-294 97l-231 107l-91 71zM282 403v169l18 36l285 -108l357 -106l250 -45l17 -17
l-9 -45l-72 -97l-114 -100l-179 -61h-99l-79 8l-153 63l-124 107l-62 89zM974 230q7 23 -4.5 44t-34.5 28t-44 -5t-28 -35t5 -44t35 -27q23 -7 44 4.5t27 34.5zM590 341q7 23 -5 44t-35 27q-23 7 -44 -4.5t-28 -34.5t5 -44t35 -28t44 5t28 35zM946 223q-3 -11 -13 -16.5
t-21 -2.5t-17 13t-2 21q3 11 13 16.5t21 2.5t16.5 -13t2.5 -21zM561 333q-3 -11 -13 -16.5t-21 -2.5t-16.5 13t-2.5 21t13 17t21 2q11 -3 17 -13t2 -21z" />
    <glyph glyph-name="parenleft" unicode="(" horiz-adv-x="1534" 
d="M1066 920l-130 64l-185 15l-130 -24l-138 -66l-131 -148l-83 -157l-56 -10l-84 -37l-93 -74v-45l56 -57l66 -27l138 -19l65 -131l93 -111l157 -74l240 -18l160 47l148 111l92 111l65 185l18 20l84 36l75 75v74l-66 37l-176 19l-28 27l-37 55zM1041 530q-6 -23 -27 -34.5
t-44 -4.5q-23 6 -35 27t-5 44t28 35t44 5t34.5 -28t4.5 -44zM1474 641l-10 -55l-101 -75l-149 -65l-401 -80l-99 -14l-492 11l-120 37l-47 55l55 56l112 56l36 9l-8 -83v-29l37 -26l324 -29l455 74l157 56l65 47l-9 74l-20 37l186 -37zM657 641q-7 -23 -28 -35t-44 -5
t-34.5 28t-5.5 44q7 23 28 34.5t44 4.5q23 -6 35 -27t5 -44zM1013 523q3 11 -2.5 21t-16.5 13t-21 -2.5t-13 -16.5t2.5 -21t16.5 -13t21 2.5t13 16.5zM629 633q3 11 -2.5 21t-16.5 13q-11 4 -21.5 -2t-13.5 -17t2.5 -21t16.5 -13t21 2.5t14 16.5z" />
    <glyph glyph-name="parenright" unicode=")" horiz-adv-x="767" 
d="M653 370q3 10 2 20l21 53l6 59l-8 41l17 23l33 40l12 56l-19 41l-34 13l-41 -8l-35 -11l-62 38l-109 40l-80 2l-9 -4l-40 38l-55 70l15 40l-24 40l-47 5l-26 -17l-16 -25l3 -32l19 -30l21 -7l22 -131l-71 -77l-37 -102v-23l-19 -18l-29 -38l-35 -55l-4 -30l23 -35l55 -13
l51 1l57 -63l70 -41l105 -30h72l15 7l14 -10l40 -60l35 -62l11 -13l27 -9l46 21l5 25l-19 42l-16 10l-15 32l-12 73l10 27l27 29l13 33q10 9 15 25zM269 481q6 23 -5.5 44t-34.5 27q-23 7 -44 -4.5t-28 -34.5q-6 -20 1.5 -38t24.5 -28l-13 -3l-42 2l-6 25l3 69l36 101l59 67
l50 -10l60 28l33 37l28 2l100 -21l85 -50l53 -54l-91 -70l-141 -72l-135 -33q4 6 7 16zM197 299l-26 32l9 4l168 39l182 80l125 79l10 -56l-16 -65q-11 22 -36 30q-23 7 -44 -5t-27 -35q-7 -23 4.5 -44t34.5 -27q17 -5 32 0l-21 -34l-21 -15l-31 3l-40 -20l-29 -47l-15 -1
l-17 -3l-63 5l-86 27zM43 378l11 50l51 57l5 -59l21 -7h10l81 9l137 30l148 69l126 81l19 31l-31 42l43 15l35 1l12 -22l6 -19l-8 -35l-18 -31l-77 -63l-143 -79l-191 -72l-129 -26h-54l-38 13zM228 740l-20 114l33 15l42 -53l50 -61l-9 -15l-51 -24l-39 10zM492 211l10 27
l39 24l30 -3l24 -101l-14 -6l-30 -21zM167 908l5 24l30 20l30 -2l23 -28l-9 -27l-30 -20l-32 7zM562 109l5 13l29 19l21 -6l18 -26l-3 -29l-28 -13l-27 9zM625 363q-4 -11 -14 -16.5t-21 -2.5t-16.5 13t-2.5 21q4 11 14 16.5t21 2.5t16.5 -13t2.5 -21zM240 473
q-3 -11 -10 -15l-21 -5q-2 0 -3 1q-11 3 -16.5 13t-2.5 21t13 17t21 2q11 -3 16.5 -13t2.5 -21z" />
    <glyph glyph-name="asterisk" unicode="*" horiz-adv-x="1828" 
d="M602 915l-83 -65l-289 27l-136 -27l-55 -54v-102l110 -111l231 -101l55 -148l84 -139l120 -110l120 -65l138 -18l157 18l83 38l129 81l92 121v18l43 10l263 9l74 27l55 65v74l-28 56l-101 82l-203 74l-66 10h-26l-56 111l-129 119l-157 65l-120 19l-167 -19zM1405 491
l-10 74h29l56 -9l100 -37l10 -28l-28 -28h-157v28zM629 907l139 45l176 19l92 -19l148 -73l119 -121l37 -73l18 -120l19 -102h-55l-176 19l-119 18l-323 46l-259 65l-19 19l28 92l93 119zM84 804l65 37l157 9l184 -17l-18 -18l-18 -38l-193 9l-55 -28l-19 -64l19 -28l92 -47
l369 -92l314 -55l359 -45h222l55 45l10 28l-65 65l-167 36l-18 65l157 -36l112 -47l110 -92l18 -56l-36 -74l-47 -27l-230 -18l-665 83l-148 36l-295 84l-204 92l-73 74l-9 83zM464 334l-47 129h18l213 -64l277 -56l411 -41l-51 -107l-101 -83l-167 -73h-231l-119 55
l-139 138zM232 731l29 18l119 9l55 -9l-45 -119l-56 8l-111 46v38zM1131 631q0 24 -17 41t-41 17t-41 -17t-17 -41t17 -41t41 -17t41 17t17 41zM731 631q0 24 -17 41t-41 17t-41 -17t-17 -41t17 -41t41 -17t41 17t17 41zM1106 616q0 -11 -8.5 -19.5t-19.5 -8.5t-19.5 8.5
t-8.5 19.5t8.5 19.5t19.5 8.5t19.5 -8.5t8.5 -19.5zM706 616q0 -11 -8.5 -19.5t-19.5 -8.5t-19.5 8.5t-8.5 19.5t8.5 19.5t19.5 8.5t19.5 -8.5t8.5 -19.5z" />
    <glyph glyph-name="plus" unicode="+" horiz-adv-x="865" 
d="M193 899l34 -149l-77 -95l-35 -120l1 -26l-21 -22l-30 -47l-38 -66l-1 -35l28 -39l65 -10l59 4l70 -69l83 -43l123 -28l84 5l16 9l18 -10l50 -67l91 -90l14 11l-10 103l-12 34l-19 84l10 32l29 35l50 155l3 68l-12 48l18 28l36 47l10 66l-25 47l-40 12l-47 -12l-40 -15
l-74 40l-128 39l-93 -2l-10 -7l-49 42l-68 76l-70 67zM131 530l36 120l63 81l58 -9l69 37l35 45l32 4l117 -18l36 -19q-4 -1 -12 -5q-21 -12 -27 -35.5t6 -43.5q12 -21 35 -27.5t44 5.5q17 10 24 28.5t2 37.5l59 -51l-101 -87l-159 -93l-259 -79l-47 1l-9 29zM231 256
l-32 36l10 5l191 56l205 105l140 100l15 -65l-22 -119l-50 -94l-23 -19l-36 2l-45 -25l-31 -57l-17 -3l-19 -4l-74 2l-101 25zM47 338l9 58l56 70l10 -68l23 -8l14 1l92 16l156 44l167 90l140 102l19 37l-38 47l50 20l40 3l16 -24l7 -23l-6 -40l-19 -37l-85 -79l-160 -100
l-217 -96l-147 -39l-63 -3l-44 12zM212 905l-5 51l36 -37l52 -59l63 -67l-10 -18l-57 -32l-46 9zM577 174l11 32l43 30l34 -1l47 -208l-60 59zM298 545q-12 20 -35.5 26.5t-44.5 -5.5q-20 -12 -26.5 -35.5t5.5 -43.5q12 -21 35.5 -27.5t43.5 5.5q21 12 27.5 35.5t-5.5 44.5z
M630 719q5 -10 2.5 -21t-12.5 -17q-11 -6 -22 -3t-16 13q-6 10 -3 21t13 17t21 3t17 -13zM283 519q6 -10 3 -21t-13 -17t-21 -3t-17 13q-5 10 -2.5 21t12.5 17q11 6 22 3t16 -13z" />
    <glyph glyph-name="comma" unicode="," horiz-adv-x="1019" 
d="M356 953v-61l34 -32l-22 -101l-105 -60l-54 27l-93 19l-53 -6l-14 -20l8 -59l52 -68l14 -13l-47 -106l-2 -143l62 -132l47 -72l100 -75l60 -26l154 -24l100 18l93 46l93 87l40 -20l100 7l27 27v40l-20 32l-80 74l13 41l-6 126l-13 34v27l59 86h54l26 26v74l-19 33l-34 13
l-46 -13l-34 -46v-27l-67 -40l-13 -13l-73 66l-120 54l-54 6h-20l-18 45l-1 62l32 32l-6 55l-34 33l-33 14l-60 -14zM871 713l32 40h34l27 -27l6 -60l-20 -27h-39l-27 21zM756 592l34 41l67 33l27 -40l-67 -94h-21l-26 20zM377 946l19 26l47 8l44 -25l10 -49l-35 -37
l12 -107l-24 3l-67 -6l21 67l-4 44l-23 30v46zM289 699l101 40l133 6l34 -6l87 -33l112 -80l-19 -20v-40l40 -47l53 -20l14 -40l5 -101l-20 -42l5 -37l-24 -6l-46 13l-174 79l-260 167l-107 107l13 21zM63 706l13 20l40 6l60 -13l68 -27l-48 -53l13 -27l174 -147l167 -106
l233 -107l47 -7l27 41l40 -41l33 -39v-40l-19 -14h-88l-179 86l-187 121l-254 173l-127 128zM89 412l14 80l33 74l14 -14l300 -220l306 -180l-59 -60l-112 -55l-101 -17l-114 19l-87 33l-80 67l-60 80l-40 99zM741 396q12 20 5.5 43.5t-27.5 35.5q-20 12 -43.5 5.5
t-35.5 -26.5q-12 -21 -5.5 -44.5t26.5 -35.5q21 -12 44.5 -5.5t35.5 27.5zM394 596q12 20 6 43.5t-27 35.5t-44 5.5t-35 -26.5q-12 -21 -6 -44.5t27 -35.5t44 -5.5t35 27.5zM711 395q-5 -10 -16 -13t-22 3q-10 6 -12.5 17t2.5 21q6 10 17 13t21 -3t13 -16.5t-3 -21.5z
M365 595q-6 -10 -17 -13t-21 3t-13 17t3 21q5 10 16 13t22 -3q10 -6 12.5 -16.5t-2.5 -21.5z" />
    <glyph glyph-name="hyphen" unicode="-" horiz-adv-x="1828" 
d="M1226 915l-139 65l-167 19l-119 -19l-157 -65l-129 -119l-56 -111h-27l-66 -10l-202 -74l-101 -82l-28 -56v-74l55 -65l74 -27l262 -9l44 -10v-18l92 -121l128 -81l83 -38l158 -18l138 18l120 65l119 110l84 139l56 148l230 101l111 111v102l-56 54l-136 27l-289 -27z
M1595 731l8 -9v-38l-110 -46l-55 -8l-46 119l56 9l119 -9zM1176 631q0 -24 -17 -41t-41 -17t-41 17t-17 41t17 41t41 17t41 -17t17 -41zM1742 804l19 -36l-10 -83l-73 -74l-203 -92l-296 -84l-148 -36l-665 -83l-229 18l-47 27l-38 74l19 56l111 92l111 47l157 36l-18 -65
l-166 -36l-65 -65l9 -28l56 -45h221l360 45l314 55l369 92l92 47l19 28l-19 64l-55 28l-193 -9l-18 38l-19 18l185 17l156 -9zM776 631q0 -24 -17 -41t-41 -17t-41 17t-17 41t17 41t41 17t41 -17t17 -41zM423 491v-28h-157l-29 28l11 28l100 37l56 9h28zM1151 616
q0 11 -8.5 19.5t-19.5 8.5t-19.5 -8.5t-8.5 -19.5t8.5 -19.5t19.5 -8.5t19.5 8.5t8.5 19.5zM751 616q0 11 -8.5 19.5t-19.5 8.5t-19.5 -8.5t-8.5 -19.5t8.5 -19.5t19.5 -8.5t19.5 8.5t8.5 19.5z" />
    <glyph glyph-name="period" unicode="." horiz-adv-x="1296" 
d="M1073 937l-227 -125h-23l-103 53l-101 25l-219 -8l-102 -48l-23 -22l-78 22h-103l-47 -46l9 -79l23 -47l47 -54l-24 -78l16 -212l70 -132l133 -118l71 -39l78 -23l182 -5l131 67l102 94h132l32 16l31 30v71l-31 47l-54 39l11 100l-35 128l187 219l72 30l23 48l-17 62
l-6 16l-47 31l-71 -8zM789 441q0 30 -21.5 51.5t-51.5 21.5t-51.5 -21.5t-21.5 -51.5q0 -21 10 -37l-2 1l-244 156l-179 172l23 23l24 32l117 71l196 15l110 -24l116 -62l-15 -8l-8 -62l23 -63l63 -78l55 -24l24 7l16 -36l7 -57l-1 -68l-23 -73l-16 -24l-85 16l-121 52
q24 5 40 25t16 46zM285 441q0 11 -3 20l118 -88l210 -125l150 -62l94 -24l-25 -23l-62 -56l-126 -63l-187 9l-117 54l-102 87l-54 70l-39 108l-16 189l15 48l71 -71q-30 0 -51.5 -21.5t-21.5 -51.5t21.5 -51.5t51.5 -21.5t51.5 21.5t21.5 51.5zM71 780l39 39h87l22 -7
l25 -24l-25 -24l-22 -31l22 -24l204 -204l243 -140l219 -86h70l32 70l47 -47l31 -69l-23 -32l-31 -15l-126 -8l-157 47l-218 109l-266 188l-134 133l-39 70v55zM1105 944l22 31l47 8l47 -39l9 -62l-16 -32l-47 -8l-31 23l-16 32zM854 647l31 31l54 40l72 -56l-9 -7l-63 -70
h-22zM829 686l-15 63l79 63l15 -56l16 -15l-7 -8l-79 -55zM964 733l31 31l47 31l38 -46l-15 -16l-31 -39h-23zM939 772l-22 55l70 38l30 -46l-30 -31l-48 -32v16zM1034 842l-23 40l69 39l25 -47l-71 -40v8zM253 422q0 -14 -10 -24.5t-25 -10.5q-14 0 -24.5 10.5t-10.5 24.5
t10.5 24.5t24.5 10.5q15 0 25 -10.5t10 -24.5zM757 422q0 -14 -10 -24.5t-25 -10.5q-14 0 -24.5 10.5t-10.5 24.5t10.5 24.5t24.5 10.5q15 0 25 -10.5t10 -24.5zM1057 812l16 15l47 23l23 -31l-23 -24l-24 -15z" />
    <glyph glyph-name="slash" unicode="/" horiz-adv-x="988" 
d="M601 840l-57 160l-26 -37l-3 -116l-8 -62l-8 -43h-20l-52 -6l-118 -52l-71 -66l-13 14l-65 38l-129 63l3 -28l73 -93l58 -85v-26l-12 -33l-6 -124l13 -39l-79 -72l-19 -32v-39l26 -26l98 -7l39 19l91 -84l91 -46l97 -17l151 23l58 26l98 73l46 71l61 129l-2 139l-46 104
l13 13l52 66l7 58l-13 19l-52 7l-92 -19l-51 -26l-103 58zM903 403l-13 -92l-39 -97l-59 -78l-79 -65l-84 -33l-112 -19l-98 17l-110 54l-58 58l300 176l293 216l13 13l33 -72zM341 524q-8 21 -28.5 31.5t-42.5 2.5v34l-19 20l110 78l85 32l33 7l130 -7l45 -18q-7 0 -14 -3
q-23 -9 -32.5 -30.5t-1.5 -44.5q9 -23 30.5 -32.5t44.5 -1.5q23 9 32.5 30.5t0.5 44.5q-4 9 -11 18l4 -1l53 -39l13 -21l-105 -104l-254 -163l-170 -78l-45 -13l-24 7l5 36l-19 41l4 99l14 38l50 19q-1 -10 4 -24q8 -22 30 -31.5t45 -1.5q23 9 32.5 30.5t0.5 44.5zM929 690
l-13 -45l-124 -125l-248 -169l-183 -118l-175 -85h-86l-19 14v39l33 39l39 39l26 -39l46 6l228 105l163 104l169 143l14 26l-47 52l66 27l59 13l39 -6zM251 579l-13 -39l-26 -20h-20l-65 92l-72 94l163 -88zM522 746l6 43l7 163l7 12l46 -135l25 -89h-8l-4 1h-4l-5 1h-10
l-4 1h-4l-4 1h-9zM696 644q5 -11 0 -21t-16 -15q-11 -4 -21 0.5t-15 15.5q-4 11 0.5 21.5t15.5 14.5q11 5 21.5 0t14.5 -16zM323 501q4 -11 -0.5 -21t-15.5 -15q-11 -4 -21 0.5t-15 15.5q-4 11 0.5 21t15.5 15q11 4 21 -0.5t15 -15.5z" />
    <glyph glyph-name="zero" unicode="0" horiz-adv-x="1039" 
d="M563 943l-45 -89l-11 -45l-34 -11l-84 -18l-74 -45l-66 18l-82 8l-100 -19l-45 -46l8 -62l84 -72l67 -34l11 -78l22 -73l46 -84l39 -45l62 -51l6 -83l38 -85l40 -28h62l33 23l40 55l11 79v17l83 33l34 18l68 78l5 16l163 7l45 22l22 34v72l-17 29l-67 50l-118 39l-50 96
l-22 22l11 85l-6 145l-28 50l-44 22l-18 6l-39 -6zM619 854l33 38h11l11 -27v-56l-4 -56l-74 34zM910 421l-72 -5l-6 84l28 -11l56 -45v-17zM563 915l50 62l50 5l18 -5l22 -23l23 -33l5 -174l-10 -39l-35 39l6 61v79l-18 23l-27 5l-34 -34l-22 -44l-57 -185l-33 -157l-51 22
l40 180l28 95zM557 646l17 67l22 56l45 -22l96 -73l39 -62l33 -101v-90l-50 6l-236 62v17l6 11l5 51zM52 702l46 28l94 17l40 -6l67 -17l-17 -16l-22 -17l-50 17h-79l-17 -17v-34l22 -23l62 -38l180 -79l303 -96l134 -22l71 2l47 15v39l-34 34l-72 33l-7 34l45 -11l79 -39
l50 -51l6 -45l-24 -54l-42 -20l-144 -1l-289 86l-275 101l-45 23l-72 39l-63 62l-5 34zM394 764l45 16l56 7l-45 -169l-11 -73l-11 -23l-56 17l-135 62l17 45l61 73zM490 186l-33 6l38 213l101 -34l174 -44l-44 -63l-56 -44l-101 -34h-79zM131 680l11 11h34l78 -17l-18 -28
l-15 -39l-34 16l-56 46v11zM376 242l40 185h12l51 -17l-29 -123l-13 -136l2 -77l23 -23h22l28 23l39 90l29 6l-6 -34l-23 -73l-44 -45h-62l-34 28l-28 68zM260 320l-50 124v67l50 -22l134 -51v-17l-11 -38l-27 -157l-46 33zM457 85v73l66 6l-11 -50l-28 -40h-16zM775 491
q8 23 -3 44t-34 29t-44 -3t-29 -34q-4 -12 -3 -23.5t6.5 -21.5t14 -17.5t19.5 -10.5q23 -8 44 3t29 34zM395 614q7 23 -4 44.5t-33 29.5q-23 7 -44.5 -4t-28.5 -34q-8 -23 3 -44t34 -29t44 3t29 34zM747 484q-4 -11 -14 -16t-21 -1q-11 3 -16.5 13.5t-1.5 21.5t14 16t21 1
q11 -3 16 -13.5t2 -21.5zM366 608q-4 -11 -14 -16.5t-21 -1.5t-16 14t-2 21q4 11 14 16.5t21 1.5t16.5 -14t1.5 -21z" />
    <glyph glyph-name="one" unicode="1" horiz-adv-x="1317" 
d="M209 964l-166 35l73 -168l194 -229l-32 -123l12 -103l-56 -40l-33 -48v-73l33 -32l32 -17h136l106 -96l135 -69l186 5l81 24l72 40l138 122l72 135l16 218l-24 81l49 56l23 49l9 80l-49 48h-105l-80 -23l-24 23l-106 49l-225 9l-104 -26l-105 -55h-24zM1031 811l24 -33
l24 -23l-185 -177l-250 -161l-209 -90l-89 -16l-16 25l-24 74v71l7 59l17 37l24 -7l57 24l64 80l24 65l-24 72l121 65l112 24l202 -16zM1239 804v-58l-39 -72l-137 -137l-275 -193l-224 -113l-162 -48l-129 9l-32 15l-23 32l32 72l48 49l32 -72h72l226 88l250 145l209 210
l24 24l-24 32l-24 24l24 25l24 8h89zM1167 358l-40 -111l-56 -72l-105 -89l-120 -56l-192 -10l-130 66l-65 57l-24 23l96 26l154 63l216 130l194 145l73 72l16 -49zM69 975l130 -26l116 -67l114 -66l37 -23l15 -52l-22 -48l-17 -42l-1 -1l-10 -10l-36 -34l-17 -4l-35 -8
l-13 26l-192 218zM1161 357q15 18 13 42t-20 40q-19 15 -43 13t-39 -21q-16 -18 -14 -42t21 -39q18 -16 42 -14t40 21zM854 614q16 19 14 42.5t-21 39.5q-18 15 -42 13t-40 -20q-15 -19 -13 -43t21 -39q18 -16 42 -14t39 21zM1132 362q-8 -9 -19.5 -10.5t-19.5 6.5
q-9 8 -10.5 19.5t6.5 19.5q8 9 19.5 10.5t19.5 -6.5q9 -8 10.5 -19.5t-6.5 -19.5zM825 619q-8 -9 -19 -10.5t-20 6.5t-10 19.5t7 19.5q8 9 19 10.5t20 -6.5t10 -19.5t-7 -19.5z" />
    <glyph glyph-name="two" unicode="2" horiz-adv-x="791" 
d="M408 973l7 -33l26 -27l27 -2v-31l-16 -81l-65 5l-65 -5l-81 -27l-54 -27l-22 10l-98 -5l-27 -17l-6 -16v-37l27 -55l17 -16l-17 -65l11 -136l60 -125l60 -54v-87l27 -60l43 -43l33 -10h38l38 -28l37 10l18 22l-7 44l-26 27h-49l-27 -16l-33 49v49l11 10l48 -4l98 -1
l82 33l87 84l23 -2l101 -3l33 33l-11 51l-27 43l-49 43l-16 11l-6 70l-21 76l-27 50l-71 75l11 33v87l-22 59l-65 66l-44 -6zM426 978l10 11h16l16 -11l6 -33l-11 -16h-11l-22 11zM480 843v70l10 43l33 -38l16 -71l-16 -114l-11 -10h-11l-16 5l-33 22v11zM208 739l103 43
l75 8l50 -5l-6 -40l38 -33l55 -6l11 11l5 16l54 -53l44 -87l16 -120l-10 -73l-98 24l-130 49l-185 109l-71 65l-11 38l22 21zM67 728l16 11l54 6l33 -12l-16 -16l-33 -37l11 -28l76 -81l200 -119l137 -50l112 -20l6 30l6 51l65 -66l11 -49l-22 -27h-65l-92 22l-233 109
l-141 86l-98 77l-38 48l-6 49zM94 392l-16 81l11 120l32 -28l168 -113l217 -109l87 -27l-32 -38l-49 -43l-82 -29h-74l-54 7l-7 16l-33 32l-43 6l-21 -22l-61 60zM338 41l-3 39l41 13l17 -5l15 -22v-27l-15 -22h-17zM208 218l22 33h5l16 -6l22 -21v-22l-7 -27l12 -66l39 -37
v-28l-44 11l-38 33l-27 49v81zM585 630q-14 20 -37.5 24.5t-43.5 -9.5t-24.5 -37t9.5 -43t37 -25t43 9t25 37.5t-9 43.5zM253 406q-14 20 -37 25t-43 -9t-25 -37.5t9 -43.5t37 -24.5t43 9.5q20 13 25 36.5t-9 43.5zM572 603q7 -10 4.5 -21t-11.5 -17q-10 -7 -21 -5t-18 12
q-6 10 -4 21t12 18q9 6 20.5 4t17.5 -12zM241 379q6 -9 4 -20t-12 -18t-21 -4.5t-17 11.5q-7 10 -5 21t12 18t21 4.5t18 -12.5z" />
    <glyph glyph-name="three" unicode="3" horiz-adv-x="1364" 
d="M484 964l-70 18l-112 -9l-55 -45v-70l35 -44v-9l-151 -9l-53 -61l18 -62l80 -88l8 -36l-88 -17h-18l-25 -28l8 -70l97 -89l36 -18l53 -106l96 -96l141 -88l99 -36h212l96 36l18 17l108 -17l86 13l10 75l-62 53l27 43h70l61 36l36 53l-8 27l-71 53l8 71l107 35l35 44
l-9 53l-115 71h-26l-53 97l-159 159l-124 62l-123 17l-142 -8zM432 911l124 53l151 9l70 -9l114 -35l124 -89l81 -96l61 -151l-18 -18l-61 10l-178 43l-223 85l-210 127l-65 44zM886 426q9 23 0 45t-32 31t-44.5 -0.5t-30.5 -32.5q-7 -16 -4 -32t14 -28l-272 91l-54 39
q17 1 31 10.5t21 26.5q9 23 0 44.5t-32 30.5q-22 9 -44 0t-31 -32q-8 -20 -2 -38l-63 47l-96 92l17 24l36 34l220 -133l151 -60l344 -107l133 -17v-45l-35 -79h-62l-150 35l-57 19q14 3 25 12t17 23zM105 735l26 34l116 10l-45 -63l35 -35v-8l257 -186l185 -79l328 -98h132
l27 53l36 -26l17 -35l-17 -28l-63 -26h-88l-203 44l-319 116l-239 124l-149 124zM264 911l61 42h107l-31 -25l-30 -43l43 -45l257 -159l97 -36l239 -79l159 -17l17 17v27l-9 44l35 -9l81 -62v-26l-36 -36l-133 -8l-220 44l-310 116l-220 113l-98 89zM78 487l18 27l53 7
l27 -7v-53l26 -27l141 -97l213 -89l383 -113l68 -10l44 25l45 -43l-4 -30l-65 -18l-83 12l-158 36l-203 71l-381 167l-124 106v36zM343 381l-132 88l-9 88l62 -43l255 -126l293 -117l236 -45l-50 -76l-83 28l-355 95zM405 107l-123 114l-45 81l55 -31l316 -138l257 -79
l-62 -27l-141 -9l-114 19zM486 571q-5 -11 -15 -15.5t-21 0.5t-15.5 15t0.5 21t15 15.5t21 0.5q11 -5 15.5 -15.5t-0.5 -21.5zM857 422q-5 -11 -15 -15.5t-21 -0.5q-11 5 -15.5 15t0.5 21q4 11 14.5 15.5t21.5 0.5q11 -5 15.5 -15t-0.5 -21z" />
    <glyph glyph-name="four" unicode="4" horiz-adv-x="1340" 
d="M46 956v-67l29 -29h15l154 -280l-14 -80l7 -110l58 -162l52 -73l73 -59l103 -44l89 -13l138 36l103 -74h89l43 44v95l-21 51v30l73 162l15 80v96l-8 7l154 178l74 6l30 29l-8 81l-44 43l-66 -14l-29 -36v-30l-191 -125l-44 58l-81 52l-26 15l-19 30l-36 58l-73 66l-52 14
l-51 -7l-51 -51l-22 -110l-103 -37l-37 -30l-183 133v88l-44 22l-67 -15zM1176 853l15 14l52 15l29 -22v-89l-51 -7l-45 51v38zM979 639v38l176 124l27 -42l-138 -171h-21zM655 756l8 67l119 -8l119 -66l33 -43l16 -67l65 -80h14v-74l-14 -110l-59 -132l-73 -80l-81 94
l-59 111l-58 206zM531 801l17 119l41 42l48 8l33 -8l80 -73l30 -59l-90 24l-49 -17l-8 -102l37 -228l51 -162l81 -132l81 -80l67 51v-7l14 -37v-88l-38 -37h-50l-37 16l-96 87l-95 184l-95 301zM60 933l30 37l58 7l15 -7l2 -65l-31 -23l-44 -8l-22 22zM134 823v30l37 21
l95 -66l103 -88l-7 -37l-59 -73l-43 -3zM383 742l37 29l89 30l6 -133l16 -88l36 -124l74 -205l89 -161l-42 -7l-84 -23l-89 15l-95 43l-65 59l-37 59l-44 109l-21 115l13 120h8l36 8l33 16l48 64l11 44zM891 541q0 24 -17 41t-41 17t-41 -17t-17 -41t17 -41t41 -17t41 17
t17 41zM491 541q0 24 -17 41t-41 17t-41 -17t-17 -41t17 -41t41 -17t41 17t17 41zM865 526q0 -11 -8 -19.5t-19 -8.5q-12 0 -20 8.5t-8 19.5t8 19.5t20 8.5q11 0 19 -8.5t8 -19.5zM465 526q0 -11 -8 -19.5t-19 -8.5q-12 0 -20 8.5t-8 19.5t8 19.5t20 8.5q11 0 19 -8.5
t8 -19.5z" />
    <glyph glyph-name="five" unicode="5" horiz-adv-x="1222" 
d="M422 645q0 20 -14.5 34.5t-34.5 14.5t-34.5 -14.5t-14.5 -34.5q0 -18 11.5 -32t28.5 -17l-18 -9l-21 -25l-4 -32l22 -19h75l21 -52l31 -40l51 -42h4l3 -10l11 -66l9 -27l18 -10l28 3l31 38l17 55l62 24l27 21l65 -42l39 -7l30 4l14 17l-4 42l-27 40l-52 55l5 55v11l57 28
l28 27l-4 31l-20 14h-52l-31 -9l-13 -5l-4 -4l-12 12q-2 3 -8 9l-35 37l-7 87l-14 24l-27 20l-24 -3l-24 -24l-24 -79v-4l-4 -3h-10l-58 48l-31 14l-42 4l-12 -13l-13 -23l5 -52l34 -57l-24 -44l-26 -6q16 14 16 36zM429 766l14 24l20 3l38 -10l59 -45l-14 -7l-42 31l-41 10
l-20 -20l10 -32l51 -64l121 -117l113 -100l69 -48l24 -3l14 13v11l-4 13l-52 52l7 21l42 -42l24 -34l10 -34l-14 -21h-37l-34 14l-66 48l-186 158l-75 86l-28 58zM573 384l3 17l18 120l127 -109l-10 -11l-32 -17l-43 -16l-63 6v10zM645 545l31 4l113 27v-58l-16 -52l-21 -24
l-117 103h10zM432 507l42 7l74 14l-2 -25l-11 -88l-7 -31l-44 35l-31 37zM618 683l8 48h19l43 -11l31 -27q-3 1 -8 1q-20 0 -34.5 -14.5t-14.5 -34.5q0 -18 10.5 -31t27.5 -17l-96 -14v14l7 27zM611 797l15 28l26 19l18 -6l24 -32l3 -37v-45l-13 7l-2 46l-10 26l-20 4
l-17 -17l-17 -52l-28 -151l-21 17l21 106zM546 312l-7 62l23 175l21 -21l-18 -138l-3 -72l14 -13h7l14 10l17 41h17l-10 -38l-34 -44h-7l-11 -3l-13 13zM773 659l34 10l48 4l20 -11l4 -20l-17 -21l-27 -17l-128 -38l-83 -14l-16 17l82 14l137 32l21 16v11l-10 10h-11l-31 -3
l-19 -6l-8 13zM350 576l30 18l45 10l-3 -14l-38 -10l-17 -18v-10l13 -13h7l141 17l18 3l7 -14l-11 -10l-108 -16l-91 5l-10 11v21zM436 583l3 25l24 41l72 -80l-10 -3l-96 -14v10zM850 848l-4 -30l-2 -2l-20 -5l-18 -5l1 -4l34 -16l-2 -24l-1 -20l8 3l27 28l37 -18l2 1
l-18 36l18 22l10 12v2l-3 1l-29 -4l-12 -2l-17 27l-6 10l-2 -1zM1053 409l-9 -29l-3 -2h-21l-18 -2v-4l30 -23l-6 -23l-5 -19l9 2l32 22l32 -24h2l-10 39l33 27l1 3l-3 1l-29 1l-12 1l-11 30l-5 10h-2zM270 381l-10 -29l-2 -2h-21l-18 -2v-4l30 -23l-6 -23l-5 -19l9 2l32 22
l31 -24h3l-10 39l21 18l12 9l1 3l-3 1l-29 1l-13 1l-10 30l-5 10h-2zM107 813l-4 -30l-2 -3l-20 -4l-18 -5l1 -4l34 -17l-2 -23l-1 -21l8 4l27 28l37 -18h2l-18 37l18 22l10 11v3h-3l-29 -4l-12 -1l-16 27l-7 10l-2 -1zM207 937l-4 -29l-2 -3l-20 -4l-18 -6l1 -3l34 -16
l-2 -25v-19l7 3l28 28l35 -18l3 1l-17 36l17 22l10 11l1 3h-4l-29 -4l-12 -1l-16 26l-7 10h-2zM65 503l-4 -30l-1 -3l-21 -4l-17 -5v-4l35 -16l-2 -25l-2 -20l8 4l28 28l36 -18l3 1l-19 36l19 22l9 11v3l-2 1l-29 -5l-13 -1l-16 27l-6 9h-2zM210 568l-5 -30l-1 -3l-20 -4
l-18 -5l1 -4l34 -17l-2 -23l-1 -21l7 4l28 28l36 -18h3l-18 37l18 22l10 11v3h-3l-29 -4l-12 -2l-17 28l-6 10l-2 -1zM1114 197l-10 -28l-2 -3h-21l-19 -2v-4l31 -22l-6 -23l-5 -20l8 2l33 22l32 -24h2l-11 39l22 18l12 10l1 2l-3 1l-29 1l-12 1l-12 30l-4 11h-2zM1053 746
l-4 -30l-1 -3l-21 -3l-18 -6l1 -3l34 -17l-1 -24l-2 -20l8 4l27 27l37 -17h2l-18 36l19 23l9 11v3h-3l-29 -5l-12 -1l-16 27l-6 10l-3 -1zM975 573l-4 -30l-2 -3l-20 -3l-18 -6l1 -3l35 -16l-3 -25v-20l7 4l28 27l35 -17h3l-18 36l18 23l10 11l1 3h-4l-28 -5h-13l-16 26
l-6 10l-3 -1zM261 728l-5 -29l-1 -3l-20 -4l-18 -6l1 -4l34 -16l-2 -24l-1 -20l7 4l28 28l36 -18h2l-17 37l18 22l10 11v2l-3 1l-29 -5l-12 -1l-17 27l-6 10l-2 -1zM345 908l-4 -30l-3 -3l-20 -3l-17 -6v-4l35 -16l-2 -24l-1 -20l8 4l27 27l36 -17h2l-17 36l17 22l10 12l1 2
h-4l-28 -4l-13 -1l-16 27l-6 10l-2 -1zM895 304l-10 -28l-3 -2h-20l-19 -2v-4l32 -22l-7 -24l-5 -19l8 2l32 22l33 -24h2l-11 38l23 19l11 9l1 3l-3 1l-30 1l-12 1l-11 29l-4 11h-2zM501 694l45 26l34 7l-20 -112l-4 2l-62 69zM872 271h14l15 41l5 -16l7 -22l2 -2l17 -2h25
l-33 -25v-4l5 -19l5 -14l-31 22l-4 -2l-29 -20l-4 -1l7 20l5 19l-15 13l-7 4l-9 6l7 1zM50 465l13 3l7 43l8 -15l11 -20l3 -2l17 2l24 5l-27 -31v-3l10 -19l7 -13l-35 16l-4 -3l-24 -24l-4 -2l4 20v20l-18 9l-7 4l-10 4l7 2zM194 530l13 2l7 44l8 -15l11 -21l3 -1l17 2l25 5
l-28 -32l1 -2l9 -19l7 -13l-34 16l-5 -3l-24 -25l-4 -1l4 20l1 20l-18 10l-8 2l-9 5l6 2zM1091 163h14l15 41l5 -16l7 -22l2 -2l17 -1h26l-34 -25v-4l6 -19l4 -15l-30 22l-5 -2l-29 -19l-3 -2l7 20l4 19l-16 13l-7 5l-8 6h6zM91 775l14 3l7 43l7 -15l11 -21l3 -1l17 2l25 5
l-28 -32l1 -2l9 -19l7 -13l-34 16l-4 -3l-25 -25l-3 -1l3 20l1 20l-18 10l-7 2l-10 5l6 2zM329 870l13 2l7 44l8 -15l11 -20l3 -2l16 2l26 5l-28 -31v-4l9 -17l7 -14l-34 17l-4 -4l-25 -24l-2 -2l2 20l1 20l-17 10l-8 3l-10 4l6 2zM960 535l13 3l7 44l8 -16l11 -20l3 -1
l16 2l25 5l-28 -32l1 -3l9 -18l7 -13l-34 16l-4 -4l-25 -24l-3 -2l3 21l1 20l-17 9l-8 4l-10 4l6 1zM191 900l14 2l7 44l7 -15l12 -20l2 -2l17 2l25 5l-28 -31l1 -4l9 -18l8 -13l-35 16l-4 -3l-25 -25l-3 -1l3 21l1 19l-18 10l-7 3l-10 4l6 2zM1038 708l13 3l7 44l8 -16
l11 -20l2 -2l42 7l-28 -30l1 -4l10 -18l7 -13l-35 16l-28 -28l-4 -2l4 21v20l-18 9l-7 4l-10 3l6 2zM1012 374h32l16 42l4 -16l7 -22l2 -2l17 -2h26l-34 -25v-3l6 -20l5 -15l-31 23l-5 -2l-29 -20l-3 -1l7 20l5 19l-16 13l-7 4l-9 6zM835 810l13 3l7 43l8 -15l10 -20l3 -2
l17 2l25 5l-28 -31l1 -3l9 -19l7 -13l-34 16l-5 -3l-24 -24l-3 -2l3 20l1 21l-18 9l-8 3l-9 4l6 2zM228 346h33l15 42l5 -16l7 -22l2 -2l18 -2h25l-34 -25v-3l6 -20l5 -14l-31 23l-5 -3l-29 -20l-3 -1l7 20l4 20l-15 12l-7 4l-9 6zM245 690l14 3l7 43l7 -14l11 -21l3 -2
l17 2l25 5l-28 -31l1 -3l16 -32l-34 17l-4 -3l-26 -25l-2 -2l2 20l2 21l-18 9l-7 3l-10 5l6 1zM455 740l8 19h21l10 -4l38 -28l-45 -30l-7 6zM762 436l7 6l18 24l40 -41l4 -17l-7 -10l-14 3zM635 759l6 23l12 15l17 -7l2 -56l-13 7h-28zM401 632q0 -10 -7 -16.5t-17 -6.5
t-16.5 6.5t-6.5 16.5t6.5 16.5t16.5 6.5t17 -6.5t7 -16.5zM738 632q0 -10 -6.5 -16.5t-16.5 -6.5t-16.5 6.5t-6.5 16.5t6.5 16.5t16.5 6.5t16.5 -6.5t6.5 -16.5zM383 549l-8 12l13 13l34 7l-4 -12v-17h-14zM576 318l-3 42h31l-21 -42h-7zM782 635l9 5l44 2v-7l-11 -7l-33 -9
zM760 645q0 4 -1 6l3 -2l18 -34l-39 -9q8 7 13.5 17t5.5 22z" />
    <glyph glyph-name="six" unicode="6" horiz-adv-x="1439" 
d="M47 958l9 -83l100 -116l124 -109l-25 -74l18 -226l66 -149l149 -150l125 -50l241 9l117 58l91 83l75 -34l100 -24h116l50 50l-26 91l-74 100l-132 116l-18 126l-74 140l-141 143l-109 57l-124 17l-142 -25l-41 -17l-159 58l-124 42l-75 8l-99 -24zM65 941l32 25l116 9
l93 -26l174 -74l-24 -9l-59 -57l17 -42l166 -191l208 -142l224 -100l125 -33l16 17l25 91l109 -82l83 -134l7 -40l-25 -36l-41 -7l-133 17l-307 141l-457 308l-250 207l-91 108zM888 809l16 32h16l67 -58l-25 -24l-8 -51l17 -99v-100l-75 -91l-42 16l-232 149l50 101l66 49
l83 26zM497 859l108 40l167 9l107 -42v-25l-33 -41l-134 -33l-66 -67l-50 -91l-57 57l-109 134zM646 193l60 22q-8 -18 -3 -37t21 -32q19 -14 43 -11.5t38 21.5q15 19 12.5 43t-22.5 39q-9 6 -18 9l44 21l117 -67l91 -40l-50 -60l-125 -66l-208 -17l-107 33l16 17l8 25z
M488 250l18 134l40 66l242 -166l-9 -8l-133 -42l-74 -74l-50 -92h-16l-100 92zM294 372l-14 187l17 74l25 -24l200 -142l-9 -8l-11 -16q-2 24 -22 41q-19 15 -43 12t-38 -22q-15 -19 -12.5 -43t22.5 -39q15 -12 34 -12.5t35 10.5l-14 -114l-75 -92l-9 9l-67 117zM1012 542
l-25 183l25 42l33 -42l66 -116l34 -126l-17 -149l-49 9l-159 57l76 76zM776 160q-7 -9 -18.5 -10.5t-20.5 5.5q-9 8 -10.5 19t5.5 20q8 9 19 10.5t20 -5.5q9 -8 11 -19t-6 -20zM461 406q-8 -9 -19 -10.5t-20 5.5q-9 8 -10.5 19t5.5 20q8 9 19 11t20 -6q9 -7 10.5 -18.5
t-5.5 -20.5z" />
    <glyph glyph-name="seven" unicode="7" horiz-adv-x="1127" 
d="M271 914l-78 -63l-89 -149l-44 -124l8 -178l63 -159l62 -89l106 -88l160 -63l247 18l168 80l115 115l54 98l24 193l-16 152l-71 124l-160 151l-96 43l-148 24l-171 -24zM617 267l62 124h18l9 -8l124 -53l150 -81l-88 -106h-27zM706 436l54 106h7l266 -133v-26l-35 -98
l-88 36l-213 105zM148 737l18 35l53 62l283 -160l-61 -106l-134 80l-61 26zM316 531q0 24 -17 41t-41 17t-41 -17t-17 -41q0 -14 6 -26l-111 63v27l36 107h9l291 -160l-71 -124l-98 55q23 2 38.5 18.5t15.5 39.5zM626 808l71 142h27l150 -89l-61 -142zM484 355l-88 45
l63 124l194 -106v-18l-70 -115zM246 861l25 26l72 35l186 -96l43 -36l-8 -9l-45 -79l-131 79zM317 82l-71 61l61 106l205 -123l-63 -98zM264 312l-169 88l-8 142l256 -151l-8 -25l-54 -72zM777 578l43 88h19l204 -106l-10 -116zM547 143l17 18l36 80l256 -123l-141 -72z
M335 294v8l53 71l184 -114l-53 -107l-202 124zM564 710l19 35l34 36l45 -18l133 -79l-45 -89h-18l-185 97zM369 940l72 18l123 17l108 -17l-10 -8l-71 -124zM477 550l7 10l54 106l194 -106l-8 -10l-8 -18q-1 23 -18 40t-40 17q-24 0 -41 -17t-17 -41t17 -41t41 -17
q23 0 37 13l-33 -42l-45 35zM1033 613l-194 89l62 132l61 -71zM211 171l-36 43l-71 152l167 -99l-52 -106zM653 28h-159l44 90l124 -81zM291 516q0 -11 -8.5 -19.5t-19.5 -8.5t-19.5 8.5t-8.5 19.5t8.5 19.5t19.5 8.5t19.5 -8.5t8.5 -19.5zM691 516q0 -11 -8.5 -19.5
t-19.5 -8.5t-19.5 8.5t-8.5 19.5t8.5 19.5t19.5 8.5t19.5 -8.5t8.5 -19.5z" />
    <glyph glyph-name="eight" unicode="8" horiz-adv-x="1723" 
d="M1689 764l-12 23l-91 60l-79 18l-140 2l-180 -2l-35 32l-135 75l-130 27l-131 -20l-192 -92l-125 -115l-62 -120l-174 -71l-111 -74l-58 -82l32 -69l118 -41l109 -10l88 6l62 -116l97 -99l240 -94l142 5l204 98l120 127l98 221l1 84l163 65l143 81zM1079 671
q0 -24 -17 -41t-41 -17t-41 17t-17 41t17 41t41 17t41 -17t17 -41zM1666 753l-27 -46l-129 -78l-326 -120l-570 -148l-359 -33l-140 30l-38 23l-13 45l22 37l131 105l138 45l-8 -102l11 -22l138 -11l261 20l260 70l235 133l32 36l-39 79l-21 18l201 13l102 -7l114 -50z
M679 671q0 -24 -17 -41t-41 -17t-41 17t-17 41t17 41t41 17t41 -17t17 -41zM1053 656q0 11 -8 19.5t-19 8.5q-12 0 -20 -8.5t-8 -19.5t8 -19.5t20 -8.5q11 0 19 8.5t8 19.5zM653 656q0 11 -8 19.5t-19 8.5q-12 0 -20 -8.5t-8 -19.5t8 -19.5t20 -8.5q11 0 19 8.5t8 19.5z" />
    <glyph glyph-name="nine" unicode="9" horiz-adv-x="1294" 
d="M401 939l-35 -27l-61 35l-114 35l-97 -9l-35 -44l9 -78l62 -79l61 -61l-35 -123v-245l52 -123l88 -114l123 -78l184 -27l176 10l148 87l79 78v18l201 9l45 43l-9 53l-114 114l-26 8l-9 210l-44 115l-79 105l-132 96l-105 44l-43 8l-176 -17zM1083 427l-3 -37h-2l-3 1h-3
h-4l-5 1h-5l-5 1h-5h-5l-5 1l-3 1h-4h-3h-2l-100 35l-89 30l-95 45l-94 60l-104 55l-92 72l-85 85l-37 70l45 45l32 30l142 45l171 13l124 -55l108 -83l86 -105l37 -110zM1115 395l112 -110l2 -37l-33 -28l-7 -5l-56 1l-58 1h-30l-23 1h-11l-100 40l-24 10l-149 89l-15 9
l-84 52l-223 139l-57 36l-6 4l-144 117l-111 132l-9 76l17 35l80 10l104 -42l55 -20l-35 -43l-5 -20l32 -65l85 -85l94 -75l105 -60l104 -64l129 -61l115 -40l69 -20l19 -1l11 -1l30 -3zM182 326l-9 245l35 114l140 -114l526 -325l123 -43l-105 -105l-123 -70l-148 -10
l-185 27l45 44l122 87l-10 9v9l-34 175h-26l-185 -26l-61 -193l-44 53zM305 133l70 193l158 17l35 -158l-141 -114h-44zM755 195q14 20 10 43.5t-24 37.5t-43.5 10t-37.5 -24t-9.5 -43.5t24.5 -37.5t43 -10t37 24zM428 425q14 20 10 43.5t-24 37.5t-43.5 9.5t-37.5 -24.5
t-10 -43t24 -37t43.5 -10t37.5 24zM726 198q-7 -10 -18 -12t-20 5q-10 7 -12 18t5 20q7 10 18 12t20 -5q10 -6 12 -17.5t-5 -20.5zM398 427q-6 -9 -17.5 -11t-20.5 4q-10 7 -12 18t5 21q7 9 18 11.5t21 -4.5q9 -7 11 -18t-5 -21z" />
    <glyph glyph-name="colon" unicode=":" horiz-adv-x="1246" 
d="M35 896l46 -109l109 -130l86 -83l-20 -101v-69l61 -136l63 -71l91 -62l106 -31l80 4l128 38l206 -126l106 -19l95 34l35 76l-38 87l-133 128l-118 83l-15 7l-8 92l-41 98l-75 86l-102 58l-74 12l-61 -4l-148 117l-99 65l-134 58l-51 1l-81 -35zM56 928l14 31l47 24l51 -2
l93 -29l136 -83l138 -108l-22 -8l-35 -6l-109 92l-166 98l-49 13l-47 -9l-7 -15l11 -47l42 -67l115 -127l267 -238l303 -249l150 -84l74 -31l35 6l25 35l-9 27l-37 69l-150 135l5 39l146 -111l100 -102l28 -78l-28 -61l-73 -25l-27 3l-84 25l-110 62l-195 143l-178 145
l-284 249l-128 149l-42 98v37zM767 605l30 43l-3 24l64 -72l33 -76l17 -137l-19 -83l-42 -87l-245 204l19 32l4 58l16 43zM502 636q12 20 5.5 43.5t-27.5 35.5q-1 0 -2 0.5t-2 0.5l27 15l52 12l81 3l69 -18l65 -40l4 -30l-14 -30l-133 -53l-16 -25l-10 -92l-18 -19l-52 38
l-178 162l18 20l22 12q-2 -17 6 -32.5t23 -24.5q21 -12 44.5 -5.5t35.5 27.5zM452 223l17 94l65 29l9 -9l225 -171l-104 -43l-80 -4l-98 28l-63 44zM283 381l-12 84l17 94l227 -195l-50 -18l-24 -39l-1 -32l-11 -46l-27 -24l-28 27l-52 63zM139 870l-18 51l27 9l42 -9
l149 -85l119 -103l-22 -8l-16 -12l-4 -2l-65 -47l-17 -6l-75 67zM878 225l30 83l12 32l122 -114l56 -86l-4 -26l-27 -10l-34 6l-173 95zM848 436q12 20 6 43.5t-27 35.5t-44 5.5t-35 -26.5q-12 -21 -6 -44.5t27 -35.5t44 -5.5t35 27.5zM819 435q-6 -10 -17 -13t-21 3t-13 17
t3 21q5 10 16 13t22 -3q10 -6 12.5 -17t-2.5 -21zM472 635q-5 -10 -16 -13t-22 3q-10 6 -12.5 17t2.5 21q6 10 17 13t21 -3t13 -17t-3 -21z" />
    <glyph glyph-name="semicolon" unicode=";" 
 />
    <glyph glyph-name="less" unicode="&#x3c;" 
 />
    <glyph glyph-name="equal" unicode="=" 
 />
    <glyph glyph-name="greater" unicode="&#x3e;" 
 />
    <glyph glyph-name="question" unicode="?" 
 />
    <glyph glyph-name="at" unicode="@" 
 />
    <glyph glyph-name="A" unicode="A" horiz-adv-x="1226" 
d="M1094 409q4 26 13.5 39.5t13.5 25.5t-1 28.5t-29 49.5t-34.5 66.5t-15.5 63t-7.5 51t-9.5 29.5q-6 7 -23.5 15.5t-36.5 16.5l-35.5 15.5t-20.5 13.5t-12.5 20.5l-18 30l-18.5 29t-14 19.5q-6 6 -24 10.5t-40.5 7t-45 3t-36.5 -2.5l-31 -4t-105 -2q-20 29 -28 42t-9 14.5
l-1 1.5q-46 -24 -90.5 -38t-87 -34t-83.5 -52t-79 -92l-49 -157q5 -42 8 -61.5t3.5 -22.5l0.5 -3l5 -14l9.5 -25.5t5.5 -13.5q0 -1 -1.5 -7.5t-2.5 -14l-1 -7.5l6 -2t14.5 -6t16 -10.5t9.5 -16.5q5 -20 12 -28.5t5 -21.5q-1 -8 -0.5 -20t2 -20t1.5 -9l12 -41q0 -1 2.5 -9
t5.5 -19.5t3 -18.5q0 -5 3 -7t6.5 -4t7 -6t4.5 -14q2 -20 6.5 -34t5.5 -13l10.5 -7l27 -17.5t37.5 -22.5t41.5 -22t38 -17t27.5 -7t30.5 0.5t46 2l52.5 3t50 3t39 4t20 4.5q11 7 21 21.5t8 36.5q-1 14 0.5 33.5t3.5 31.5t2 14t-2 13t-12 26t-30 22q-15 6 -40.5 17.5l-50 23
l-42.5 20.5l-18 9l-6.5 28.5l-16.5 71.5l-21.5 93.5l-21.5 93.5l-16.5 72l-6.5 29l13.5 -24l34.5 -60l44.5 -78l44.5 -78l34.5 -60l13.5 -24l69 -122l10 -11t23 -23.5t25.5 -22t17.5 -7.5q6 2 28.5 0t48 -5.5l45.5 -6.5l20 -3q2 0 15 -2t28 -4l15 -2l15 23t34.5 56.5
t36.5 70t22 62.5zM1148 436q-14 -51 -34 -93.5t-46 -81.5l-17.5 -25.5t-21 -24.5t-25.5 -19.5t-31 -9.5q-9 3 -16.5 2t-14.5 -3.5t-14.5 -6t-14.5 -4.5v-4q4 -3 7.5 -3.5t4.5 -5.5q-19 -16 -41.5 -18.5t-46.5 1t-47.5 9t-45.5 5.5q-4 3 -9 3q-6 0 -8.5 -3.5t-4.5 -5.5
q-1 -5 5 -7l108 -13q3 -3 5 -4q3 -7 -2 -7q-5 -5 -10.5 -3t-7.5 -3q0 -5 -0.5 -10t-4.5 -8q-10 -6 -21.5 -12t-25.5 -11q-51 -17 -103.5 -29.5t-104.5 -9.5q-20 2 -39.5 5.5t-41.5 8.5q-24 9 -49 14.5l-50 11t-49.5 12.5t-46.5 19q-78 41 -133 119q-26 38 -42 84.5t-30 96.5
q-17 60 -9 117.5t28 117.5q4 24 15.5 43.5t26 37t30 34t27.5 35.5q-2 2 -4 2.5t-2 2.5q11 15 24.5 31.5t28.5 32.5t31 29t33 22q-30 -21 -55.5 -52l-50.5 -60q-5 1 -1 -2.5t3 -1.5l44 34q-2 -2 -3.5 -4.5l-1.5 -2.5q-11 -20 -27 -38t-30 -37t-24 -40t-10 -46l-6.5 -19
t-9.5 -24q2 -24 2.5 -48t8.5 -46l27 -47l-3 -30l40 -24q20 -17 21.5 -43.5t-0.5 -53.5q-4 -12 -0.5 -20.5t9.5 -16.5l12 -15.5t8 -17.5l-3 -24q42 -33 39 -87q8 -12 20.5 -18.5t27.5 -11.5l49.5 -18t52 -15.5t52.5 -10t51 -0.5q-2 17 -11 31t-21 26.5t-25 24.5t-23 25
l66 -57l24 -47l60 3q2 5 3 8l1 3q2 26 -9.5 44.5t-31.5 35.5q6 -2 11 -7.5t13 -10.5q18 -11 22.5 -30t6.5 -36q18 -5 38 1t37 12l-2 64l29 51q-2 7 -6 11.5t-9 12.5q-12 20 -31.5 29t-40 15.5t-40 15t-31.5 26.5q-5 4 -12 4t-9 -7l-6 -38q-11 0 -18.5 4.5t-13.5 10.5
t-11 12.5t-11 11.5l-13 -3q-5 12 -13 20.5t-17 17t-17.5 18t-13.5 22.5q2 24 -0.5 43t-8.5 39q-2 3 -3.5 5.5t-6.5 7.5q-10 11 -9.5 23.5t4.5 25.5t9 26.5t5 26.5q-8 9 -9 19.5t0.5 21t3.5 21.5t1 22q4 10 1.5 21.5t-6.5 23.5t-7 24t-1 24q20 3 35 -6l29 -17l81 33
q2 2 3.5 4t3.5 4l20 9q3 -2 5.5 -2.5t7.5 -2.5q13 -5 21.5 -15t9.5 -24l-3 -14q2 -5 9 -6t5 -7l-9 -10q2 -8 8.5 -8.5t6.5 -8.5l16 -92q6 -2 10.5 -1t10.5 3q5 -2 6 -4.5t3 -4.5l75 20q1 2 1 5q-1 4 -5 4l16 7q2 3 2 8h52q4 -4 2 -6.5t0 -5.5l12 -16l13 -7q4 -4 4 -10
l-18 -24l1 -17q2 -3 6 -6.5t8 -10.5q5 -7 5 -16q0 -8 -4 -13q-1 -6 3.5 -9.5t4.5 -7.5l-12 -20l-15 -14q-9 -1 -18.5 -3t-14.5 -7q-4 -4 -5 -8t-5 -6q-5 0 -10 0.5t-7 -3.5q0 -5 3 -5q5 -3 11.5 -2t5.5 -6q-2 0 -5.5 -1t-1.5 -5q5 -2 10.5 -3.5t3.5 -6.5q-3 -1 -7 0t-2 -4
t6 -5.5t3 -4.5q-4 -2 -5 -3.5t-2 -3.5q-2 -5 -0.5 -10t-2.5 -5q-7 5 -8 14t-9 11q-12 -7 -26.5 -6.5t-29 3t-28.5 4.5t-27 -2q-1 -2 -1 -6l28 -31.5t16 -35.5l4 -6q14 -19 30.5 -34t34.5 -23.5t39 -9.5t44 8q19 3 36 -2t32 -14t28.5 -18.5t27.5 -14.5l33 53q6 3 8 7
q1 9 6 12t8 9l22 57q-3 22 -15.5 35.5t-27 24l-29 21t-21.5 27.5q8 -6 14.5 -12.5t14.5 -15.5l42.5 -22.5t35.5 -26.5l18 59q-8 17 -22.5 27.5t-29 20t-27 21.5t-17.5 32q6 -12 13 -21.5t21 -21.5q17 -6 33 -15t31 -16q7 13 0 24q-11 7 -23.5 12.5t-15.5 20.5
q-10 19 -14 38.5t1 39.5l-12 9q-2 -1 -5 0.5t-3 3.5l-7 39q1 2 2.5 4.5t0.5 4.5q-2 1 -2.5 2t-2.5 3q-10 3 -17 15q-6 14 -1.5 25.5t11.5 20.5q-2 2 -3 4.5l-1 2.5q-12 10 -28 12.5l-32 5t-31 6.5t-26 17q-1 7 -5 9.5t-6 6.5q-1 3 -3 7l-3 46q-14 9 -22.5 23l-16.5 28
q-5 5 -11 3.5t-9 3.5q1 6 -4 6q-10 2 -19.5 -1.5l-19.5 -7.5t-20 -6t-21 4q-30 6 -60 7t-62 -9q-32 0 -66 -1t-64 14l-8 27q-1 3 -4.5 4t2.5 2l6 18q12 -2 22.5 1.5t20.5 8.5l20 10t21 7v5l-110 -30q-5 -3 -3 -6q1 -21 8 -34.5t18 -27.5q-9 6 -14.5 14t-9.5 17t-7.5 18
t-9.5 17q-31 -11 -52 -26.5t-44 -37.5q9 8 18.5 18l20.5 21q34 30 83.5 44t98.5 26q38 10 76.5 8.5t80.5 -3.5q51 -7 102 -19.5t96 -35.5q42 -21 77.5 -46.5t72.5 -59.5l27.5 -36t26 -35.5t22.5 -39.5t16 -47q15 -61 20 -121t-12 -124zM838 77q-19 -3 -42.5 -11l-49 -17
t-52 -17t-51.5 -9q-117 -20 -228 24q-6 2 -10.5 3t-9.5 3q37 -26 85.5 -37t95.5 -16q26 2 53 3t53.5 4.5t52.5 10t50 18.5q17 4 29 12l23 16zM986 839q4 2 1.5 4.5t-5.5 4.5l-57 -16zM962 867l-84 -22q-3 0 -6 2.5t-3 4.5q12 -3 24.5 -1t24.5 5.5l23 7t21 3.5zM939 886
q-12 0 -23.5 -3.5t-23 -7.5t-23.5 -5.5t-24 3.5v6l68 23q-41 5 -77 -18l11 -20q2 0 5 -2zM865 937l-84 -18l21 -3l19.5 6.5t21 5.5t20.5 0.5t19 -9.5q4 0 4 4zM815 956h-10l-20 9zM1048 721l-35 -3q-3 -1 -3.5 2t-0.5 5q-2 11 -12 13t-15 10l54 -6l-27 -2q-1 -1 -1 -6z
M1040 765q5 1 2.5 4.5t-2.5 5.5q-32 -8 -66.5 -9t-67.5 -1q0 -5 5.5 -6.5t10.5 -3.5zM835 908l-13 -6l-2 3zM1036 701l-13 -1l-5 -1q-1 2 -2 5t4 3zM970 812l-88 -14h-2q-4 7 0 9zM909 831l-17 -4q-2 -4 -4.5 1t1.5 4zM996 794l-104 -19q-3 2 -5 2q-1 2 -3 5.5t2 6.5z
M1023 661q-7 2 -6 7l46 10q-15 0 -30.5 5t-32.5 -4l22 -30q2 0 4 -1l54 6zM1060 631l-30 -7l-4 2q2 3 0.5 6t3.5 3zM1093 602q0 3 1 2t-1 3l-69 10l22 -23zM1090 570l-40 -3l-4 1q2 2 2.5 4.5t0.5 4.5q-2 5 1 5zM735 928l-35 -12l-2 1zM1091 547l-41 -7h-2l-5 13zM887 711
q-11 7 -24 13.5t-25 15t-21.5 20.5t-13.5 29q-13 23 -36 42.5t-49 27.5q13 12 30.5 9t32.5 -11q12 -9 22 -20.5t12 -27.5q1 -20 9.5 -33t19.5 -23.5t23 -19.5t20 -22zM1087 520l-20 -13h-6l-5 20q8 -5 16.5 -3.5t14.5 -3.5zM674 939l-38 -13zM1088 500h-8l-2 2q3 2 5.5 0
t4.5 -2zM1049 439l-36.5 17t-36.5 27q-14 15 -20.5 34t-8.5 40.5t-1 43.5l2 43q-2 20 -7 38t-23 26q8 2 13.5 -2.5t10.5 -6.5q18 -15 23 -34.5t3.5 -41.5t-5.5 -45t-3 -45q10 -38 35.5 -58t53.5 -36zM720 877l-100 -18q-7 0 -4 5q13 3 27 7.5t27.5 7.5t25.5 3q13 0 24 -5z
M654 961q-33 -10 -66 -15.5t-65 -16.5q-14 2 -26 -1t-24 -2q0 1 -4.5 -2.5t1.5 -4.5q16 0 34 4.5t36 7.5q31 1 59 10.5zM790 777q-2 -2 -5 -2h-3q-4 2 -6.5 5t-7.5 7q-17 20 -40.5 26.5t-49 9t-50.5 6.5t-45 20q19 -10 39 -13t40 -4.5l40.5 -3t41.5 -8.5q13 -10 27.5 -19.5
t18.5 -23.5zM600 970l-130 -33q-2 -2 -3 1t1 3zM944 493q-4 10 -10.5 22t-12 26t-9 29t-1.5 30q-2 19 -11.5 35t-23 29.5t-28 25.5t-26.5 23l23 -2q53 -20 71 -78q-2 -36 6.5 -72t21.5 -68zM791 742l-1 -3l-1 -1q-4 2 -6.5 4l-7.5 6q-17 17 -39.5 25t-46 13.5t-46 12.5
t-39.5 21q23 -10 46.5 -16.5t49.5 -8.5q30 -7 52 -19t39 -34zM800 698l-85 30q22 0 44.5 -8.5t38.5 -18.5zM576 912l-80 -10l-16 9zM811 659q-12 7 -24.5 5.5t-25.5 -6l-25.5 -8.5t-24.5 -2q-19 3 -31.5 14.5t-20.5 28.5q-8 15 -15 35.5t1 34.5q8 -19 13 -41.5t19 -38.5
q5 -6 15 -9t16 0l-31 41q7 -12 17.5 -16t22 -3.5t23 2.5t21.5 2q3 -5 3 -10q-2 -6 0 -9l47 -15q2 -2 2 -4q0 -1 -2 -1zM793 614h-12l-2 3q4 1 7 -0.5t7 -2.5zM568 867q-2 -5 -5.5 -5.5t-6.5 -0.5q-8 2 -15.5 -2t-14.5 -4q-12 4 -17 11zM616 789q-11 11 -31.5 15t-38.5 2
q-3 1 -3 6q2 6 3 6q3 4 7 4h10q39 -6 53 -33zM898 554q7 -29 -1 -49t-21.5 -36.5t-28.5 -32.5t-22 -37q-2 21 10.5 38.5t29.5 28.5q16 17 19 37.5t-1 42.5t-10 44t-7 42q15 -14 21 -34.5t11 -43.5zM593 768l-17 4h14zM1025 306q-2 -2 -3.5 -4l-1.5 -2l-3 -2
q-3 26 -19.5 41.5t-34.5 29t-32.5 30t-14.5 44.5l29 -54q8 -5 14 -11t17 -10q19 -8 34 -23.5t15 -38.5zM491 852l-12 -7l-34 16q-1 2 -2.5 3t-4.5 6q-5 12 -16 23t-10 26q8 -26 30.5 -40.5t48.5 -20.5q2 -2 1 -3.5t-1 -2.5zM831 538q-24 2 -47 -4.5t-43 -17.5q-4 -3 -0.5 3
t3.5 8l-3 6q-2 4 -7 4q-4 0 -3 5q12 3 24 7t24.5 6t24 1t21.5 -7q2 -3 4 -5.5t2 -5.5zM902 466q-3 -7 -10 -12.5t-14 -12.5q-11 -9 -18.5 -21.5t-7.5 -26.5v9q3 26 17 43t33 28v-7zM938 371l-40 15l40 -11v-4zM431 847l-1 -2l-18 34q7 -8 14.5 -14.5t4.5 -17.5zM823 473
l-38 -7zM988 255l-3 -3l-32 46q4 -4 9 -6.5t11 -7.5q7 -5 12 -12.5t3 -16.5zM378 911l-46 -38h-3zM602 717l-189 8q-2 3 0 5t2 4q16 -9 31 -8.5t30 5.5t29.5 11.5t29.5 11.5q17 2 33 2q17 0 28 -11l-66 -2q-5 -5 4 -5zM991 297l-2 -2q-14 2 -22.5 9.5t-21.5 15.5
q-13 9 -27 9t-28 -3.5t-27 -8.5t-25 -6q8 2 16.5 6.5l17.5 9.5q35 16 67 4.5t52 -34.5zM959 343q-6 0 -9.5 4t-10.5 8q-18 7 -33 3t-29.5 -11.5t-29.5 -14.5t-32 -7l-42 14q17 0 34.5 1.5t34.5 10.5q26 15 58 16t56 -15q0 -2 2.5 -4.5t0.5 -4.5zM470 661q0 1 -1 2t1 3l146 6
q5 0 4.5 3t-1.5 6q-4 5 -10 6t-13 1v-7q-33 -2 -67.5 -3t-70.5 -4q-10 2 -15.5 3.5t-13.5 5.5q-5 -3 -3 -11t7 -13l56 -13l133 3zM553 701l-114 -7q-5 2 -9.5 3.5t-5.5 3.5q-2 3 -2 6t3 4q16 -8 32 -9t32 0l32 2t32 -3zM433 745h-8h-1q2 2 4.5 3.5t4.5 -3.5zM332 845
q-12 4 -21.5 9t-11.5 16l29 -20zM768 396l-2 13zM532 812q-2 -6 -3.5 -11.5t-5.5 -7.5q-14 -10 -34 -13t-41 6q-24 6 -48.5 -0.5t-38.5 -27.5q-9 -14 -10 -30.5t2 -34t8.5 -34.5t9.5 -32v-1q-12 13 -17.5 28.5t-15.5 32.5q-3 20 1 38t13 36q16 20 39 29.5t48 9.5v4
q-18 4 -34 4.5t-36 -8.5q-20 -11 -31.5 -28.5t-17.5 -37.5q-2 2 -3 1.5t-1 2.5q5 21 15 36t24 32q17 18 39.5 18.5t45.5 -1.5t45 -1t39 20q-1 -2 -1.5 -4.5t-2.5 -5.5q-8 -17 -25 -23t-30 -14q2 -5 5 -4.5t9 -1.5q35 -6 53 23zM627 597q-30 0 -62 -0.5t-61 5.5
q-22 5 -36.5 12.5t-31.5 13.5v5q48 -10 94.5 -13.5t94.5 0.5q-23 7 -48 7t-50 0.5t-49 4t-45 18.5q-6 -1 -4 -6t1 -10q0 -2 -1.5 -2.5t-3.5 -4.5q0 -4 2 -7l99 -29zM731 406h-24h24zM951 263q-5 -4 -10 -0.5t-6 -1.5q2 -5 6 -8.5t6 -7.5l-2 -3q-22 18 -49 21t-54 3
q11 7 23 8.5t24 -0.5t23.5 -5t20.5 -4q-2 2 -3 4l-1 2q-15 12 -33 14t-37 -0.5t-39 -6.5t-39 -5q-34 9 -45 39q16 -25 38.5 -27t48.5 3.5t52.5 10t49.5 -7.5q8 -4 17 -11.5t9 -16.5zM664 579q-27 -5 -56.5 -8t-58 -0.5t-56 10t-51.5 23.5q-5 1 -7.5 2.5t-4.5 -0.5l6 -33
q28 -13 59.5 -23t64.5 -14h41q-38 3 -79 14t-71 34q25 -7 51.5 -13.5t53.5 -9t54 1t54 16.5zM827 505q1 3 0 7q-21 -3 -41 -9.5t-40 -11.5t-40.5 -8t-41.5 0q-6 0 -4 6l64 18q-38 -9 -76.5 -11t-77.5 9v4q35 1 72 6.5t71 20.5q-3 4 -8.5 1t-10.5 1q0 3 -2 2t2 3l61 30
q-2 0 -4.5 -1.5t-6.5 -0.5q-2 0 -2 6l39 17l-141 -51l17 -2q2 -2 4.5 -4t4.5 -7q-6 -8 -15 -11t-20 -4.5t-23 -1.5h-21q-44 2 -82 17t-69 34q-5 -2 -6 -5.5t-3 -8.5l46 -7q0 -1 1 -2.5t1 -4.5q-4 -7 -15.5 -6.5t-19.5 2.5q-7 2 -10 3.5t-8 4.5q-5 -1 -7 -8.5t0 -11.5
q32 9 64.5 5t63.5 -12l3 -6q0 -4 -3 -7l-118 10q-3 -2 -1.5 -5.5t3.5 -6.5q13 1 27.5 6.5t27.5 -1.5q3 -2 3 -7l-49 -10l3 -43q11 2 23 7l25 10t27 8.5t29 1.5l-94 -3q3 10 17.5 14t26.5 8q24 3 48.5 4.5t43.5 -10.5q3 -4 0 -10q0 -3 -5 -3l74 -7l1.5 -3t0.5 -4
q-22 -8 -46 -9t-49.5 0t-51.5 -0.5t-50 -10.5q-13 0 -19 -7l1 -23l45 -10l90 6q-30 -2 -63.5 -1.5t-62.5 11.5q0 5 3 6q27 -3 54.5 0t55 8t55.5 11t56 9q13 -1 24.5 0t22.5 -3q2 -4 2 -7l-103 -22l130 12q2 2 -0.5 4t-5.5 4q-2 4 1 5t4 5l-25 6v5l44 8l-70 7q0 4 2 5z
M909 225q-13 7 -29.5 7.5t-30.5 -3.5q-26 -11 -50.5 -15t-49.5 3q-2 -5 0 -9h3zM918 200q4 1 0 4q-15 1 -31 -2.5l-32.5 -7t-33.5 -5t-33 1.5q-12 1 -22 4t-20 2q-3 -4 0 -8l59 -5q29 -2 57.5 1.5t55.5 14.5zM726 263l-2 -3q-3 -2 -5 0t-1 5q2 0 8 -2zM688 302q1 3 0 4t-4 3
l-16 -7q-2 -2 -0.5 -4.5t3.5 0.5zM755 229q-3 -1 -7 -1l-2 2q6 4 9 -1zM704 278h-7q-2 0 -4 2t-2 3q2 1 4 1.5l2 0.5q4 -2 6.5 -2.5t0.5 -4.5zM660 357q0 5 -9 9q-15 -11 -36.5 -13t-40.5 -4q2 -7 9 -7zM604 322q1 -3 4.5 -4.5t7.5 -2.5l66 15zM742 177q-1 -2 -2 -4.5
t1 -4.5l84 -11q1 0 3 1t4 1zM649 391q-45 -9 -93.5 -11.5t-96.5 11.5q2 -4 6.5 -9t10.5 -7l58 -5l113 12q6 3 2 9zM354 473q-5 39 -24.5 66t-42.5 52q-9 18 -15 34t-11 38q-2 43 11 80.5t44 62.5l-20.5 -33t-16.5 -39q-8 -28 -2.5 -52.5t17.5 -47t27.5 -43.5t26.5 -41
q10 -16 13 -34t1.5 -36t-7 -35t-14.5 -31l-1 -2q2 15 7 29.5t7 31.5zM284 818q-14 -15 -23 -29l-20 -31q-25 -38 -41 -89.5t-14 -101.5q-2 -7 -6 -11l-9 -9l-5 -2q-7 31 -3 64t20 63q17 43 40.5 79t60.5 67zM802 117l-75 14zM707 181q-1 -7 -8 -12t-15 -5q-3 0 -6 2.5
t-3 4.5q4 10 7.5 21.5t3.5 25.5q-5 19 -18.5 27t-31.5 13q17 -2 32.5 -7.5t28.5 -18.5q9 -10 13.5 -22.5t-3.5 -28.5zM543 345h-40l-14 5q-2 2 -4 5.5t1 5.5zM534 318h-14h-3l-9 11l26 -6q1 -3 0 -5zM327 432l-2 -1h-3q-2 5 -1.5 7.5t-2.5 9.5q4 30 -6.5 51t-25 39.5
l-28.5 37.5t-17 44q1 -5 3 -8t4 -8l31.5 -38t27.5 -39.5t18 -44t2 -50.5zM633 216q-2 -2 -6 -2q-21 10 -44.5 15.5t-46 13t-41.5 20t-29 35.5q14 -23 36.5 -32t46.5 -14t47 -11.5t37 -24.5zM433 352v-3h-3q-24 19 -21 44zM392 282l-5 -16l-1 -1q-16 14 -22.5 38.5
t-11.5 48.5q-5 25 2 48t16 45.5t14.5 44.5t-2.5 46l6 -42t-8 -42q-22 -43 -19.5 -90t31.5 -80zM669 88q-7 2 -8.5 10t-4.5 16q-5 25 -21.5 41t-37 27t-42.5 20t-39 21q28 -7 56.5 -15t47.5 -28q22 -17 35 -40.5t14 -51.5zM287 393h-3q-2 -2 -2.5 0.5t-2.5 6.5
q2 22 -2.5 43.5t-12.5 42t-18 39l-20 35.5l4.5 -4.5t7.5 -6.5q14 -14 23.5 -32.5t15 -39.5t8 -42.5t2.5 -41.5zM267 437l-1 -1q-9 11 -19.5 20.5t-18.5 19.5t-13.5 21.5t-3.5 26.5q0 -14 8 -25t18.5 -20.5t19 -19.5t10.5 -22zM453 238l-2 -2q-27 28 -48.5 59t-25.5 75z
M127 584l-13 -24q-2 -5 -3.5 -0.5t-0.5 4.5q5 5 8.5 11.5t8.5 8.5zM267 386l-4 -2q-2 19 -12 32t-22 24t-22.5 22.5t-13.5 27.5q11 -11 24 -21.5t24 -23t18.5 -27t7.5 -32.5zM128 550q-2 -7 -8.5 -11t-9.5 -9zM556 114l-1 -3q-3 4 -9 9q-14 22 -31.5 36t-36.5 24.5
l-37.5 21.5t-33.5 27q20 -14 40.5 -22.5t41.5 -20.5q20 -11 40.5 -30t26.5 -42zM134 520v7l-30 -31q0 -4 3 -1q5 4 13.5 9.5t13.5 15.5zM147 500q0 1 -0.5 3t-3.5 2q-5 -3 -11 -14t-8 -12q5 5 12 9t11 12zM513 98l-40 38q0 3 -1 2.5t-2 -1.5l-2 -2t0 -1l38 -50l-1 -2l-1 -2
q-15 19 -33 32.5t-37 24.5l-38.5 22.5t-37.5 26.5q-18 12 -28 29t-15.5 36.5t-8 40t-6.5 40.5q10 -10 13.5 -24t5.5 -29t5.5 -30.5t13.5 -27.5q23 -24 47.5 -41.5t50.5 -22.5l-58 45q18 -14 38.5 -24l42.5 -21l15 -12t17.5 -15t14.5 -16.5t7 -15.5zM111 441q-1 -2 1 -4t4 0
l40 26l1 23zM188 414q2 5 -3.5 8t-7.5 5q-8 0 -11.5 -7t-9.5 -14q0 -5 4 -2zM213 396q2 5 0 7l-6 6l-45 -32l2 -2zM293 265l-16 50zM218 379q-1 -3 -0.5 -5t-0.5 -4l-23 -13zM159 450l-39 -40l4 1l38 25zM361 151h-3h-2l-23.5 16.5t-21.5 18.5q-12 13 -23 30.5t-18.5 37
t-10.5 40.5t2 41v-37q12 -50 39 -84t61 -63zM188 325q15 0 27 14q0 5 2 10zM459 104q2 -4 0.5 -5t-3.5 -2h-17q-26 4 -53 9.5t-44 25.5zM211 306q3 2 1.5 5.5t-1.5 6.5l-17 -15zM202 279l2 -1h17q6 0 5 5t-3 8zM240 272q-6 1 -11.5 -5.5t-8.5 -11.5q0 -5 1 -3t3 0h11
q2 3 4.5 8.5t0.5 11.5zM171 320q-6 -4 -7 -4q-2 -2 -4 -1t0 3q4 0 6.5 1t4.5 1zM240 240q2 -3 1 -7t-3 -6q-5 -2 -11 -2q-2 2 -3 0.5t-1 2.5zM272 198l-4 4t-7 2l-11 -12q2 -5 7.5 -4t10.5 -2q2 0 1 -2t-3 -3h2h1q2 0 4 1zM706 454q-3 -2 -9 -2q-6 3 -12 4.5t-8 6.5
q8 -2 17 -1.5t12 -7.5zM614 476l-18 7q10 -1 19.5 1t20.5 2q2 -1 6 -2t7.5 -1.5t5 -2t-0.5 -4.5h-40zM572 434q-14 9 -33 8.5t-36 -5.5l60 -5h4q3 0 5 2z" />
    <glyph glyph-name="B" unicode="B" horiz-adv-x="1456" 
d="M1057 910l-161 72l-177 17l-98 -27l-97 -54l-134 -114l-88 -142l-80 -10l-71 -36l-107 -87l-9 -72l53 -61l89 -45l89 -18l27 -26l18 -53l142 -160l142 -70l108 -23l131 12l142 54l160 107l63 80l61 142v142l89 88l53 97v107l-53 63l-44 25l-151 10l-97 -18v0zM1029 893
l72 -54l-36 -71l-71 -71l-143 -71l-88 89l-26 53l62 150l9 45l80 -9l141 -61v0zM701 759l71 -115l44 -35l-124 -46l-124 134l89 249l27 17l53 8l35 -8l-71 -204v0zM1167 247l-54 -61l-119 -84l63 188l-36 53l-36 35l169 79l89 63l-14 -131l-62 -142v0zM1332 875l44 -45v-89
l-71 -115l-124 -116l-222 -106l-258 -71l-390 10l-125 35l-106 62l-18 35l26 63l98 71l89 26h18l-10 -62v-27l36 -26l195 -18l231 36l214 88l115 97l71 98l-9 27l-53 45l98 17l107 -17l44 -18v0zM532 715v-27l117 -133l-125 -17l-187 17l-8 8v72l71 141l132 117l81 43v-35
l-81 -186v0zM1003 236l-44 -124v-27l-169 -53l80 194l-36 72l-26 27l132 43l72 -61l-9 -71v0zM701 298l71 17l54 -61l-10 -71l-62 -134v-17h-97l-143 53l-96 80l-82 113l-17 37l53 -17h329v0z" />
    <glyph glyph-name="C" unicode="C" horiz-adv-x="1382" 
d="M985 920l-142 71l-142 8l-143 -26l-133 -53l-143 -134l-63 -134l-8 -71l-27 -27l-80 -36l-64 -62v-63l55 -71l35 -8l134 -28l89 -133l89 -75l134 -59l205 -18l108 33l124 89l90 107l61 163l28 153l97 79l45 71l-3 81l-33 44l-35 18l-71 27l-152 9l-55 45v0zM1057 821
l-44 -35l-71 9l-36 36l8 61l18 28l81 -45l44 -54v0zM906 938l-35 -81l18 -62l53 -36l107 9l26 18l36 -44l-54 -53l-160 -82l-240 -89l-18 46l-71 61l-81 -8l-62 -63l-33 -92l-115 -6l-54 7l14 172l45 107l8 8l81 -36l44 10l89 80l10 125l107 35l36 9l214 -17l35 -18v0z
M1103 304l-63 -107l-9 -8l-27 71l17 54l28 26h54v-36v0zM1295 787l11 -81l-53 -71l-107 -81l-151 -71l-199 -84l-358 -70l-148 -15l-98 8l-76 28l-57 53l10 53l88 62l48 10l-13 -89l27 -19l312 27l330 107l242 125l34 35l-8 63l-63 80l136 -18l93 -52v0zM478 821l-71 -71
l-71 9l-27 18l98 98l61 35l10 -61v-28v0zM843 322h-79l-27 35l152 54v-44l-46 -45v0zM629 510l-71 -27l-125 -9l35 89l36 27l72 -9l53 -71v0zM1120 367h-99l-53 -99l45 -107l-124 -89l-99 -44h-125l-9 116l-53 53h-99l-43 -36l-28 -25l-35 17l-108 125l230 32l163 40h27
l8 -28l48 -29l87 -7l61 64l28 79l161 63l61 44l-35 -160l-9 -9v0zM621 126l8 -62v-27l-125 36l-43 35l61 63h63l36 -45v0z" />
    <glyph glyph-name="D" unicode="D" horiz-adv-x="1379" 
d="M953 937l-199 62l-142 -9l-90 -27l-154 -117l-80 -117l-81 -233l-45 -19l-99 -72l-27 -45l27 -53l72 -36l125 -10l180 -161l82 -45l134 -45l172 -9l125 54l127 108l80 126l46 152l8 172l-18 36l72 72l45 80l9 72l-45 54l-71 36h-163l-90 -26v0zM1026 855l9 -9l-45 -63
l-37 -36l-45 64l-54 44l-62 18l-46 54l-18 46l162 -36l136 -82v0zM1098 432h-18l-45 99l143 100l-9 -234l-71 35v0zM720 891l72 -55l62 -17l54 -80l29 -28l-73 -44l-64 89l-44 18h-82l-43 72l-19 91l-10 8v18l82 10h18l18 -82v0zM1152 360v-35l-37 -64l-80 72l-82 36l-17 46
l-10 54l72 44l45 -89l109 -64v0zM594 873l18 -99l36 -35h116l64 -82v-8l8 -10l-252 -135l-35 64l9 89l18 54l-27 117l-63 80l63 37h17l28 -72v0zM1277 901l27 -36l-18 -72l-91 -108l-152 -108l-387 -198l-179 -54l-99 -18l-189 -18l-91 18l-25 26v46l89 72l45 18v-54h171
l171 36l305 162l144 116l82 107l-90 82l36 19l62 8l117 -8l72 -36v0zM540 747l-10 -80l-26 -72l26 -90l10 -9l-100 -37l-17 72l9 82l36 90l-9 72l-55 72l46 36l62 -72l28 -64v0zM990 316l54 -27l18 -28l36 -36l-154 -143l-116 -54l-46 -8l18 125l-18 108l-108 107l144 71
l72 28l28 -90l72 -53v0zM423 667l-36 -82l9 -85l8 -47l-152 -12v100l54 152l81 118l36 -55v-89v0zM746 225l18 -71l-18 -134l-90 17l18 126l-18 54l-98 90l73 36h17l98 -118v0zM612 207l26 -26l-17 -135l-117 46l-108 80l-81 89l162 28l45 18l8 -28l82 -72v0z" />
    <glyph glyph-name="E" unicode="E" horiz-adv-x="1534" 
d="M1066 920l-130 64l-185 15l-129 -24l-139 -66l-131 -148l-82 -157l-57 -10l-84 -37l-93 -74v-45l57 -57l65 -27l138 -19l66 -131l93 -111l157 -74l239 -18l160 47l148 111l93 111l64 185l18 20l85 36l74 75v74l-66 37l-175 19l-29 27l-37 55l-120 122v0zM992 928l83 -45
l129 -150l56 -120l-56 -46l-168 -57l-432 -70l-317 29l9 117l74 157l102 121l121 74l102 27l46 10l149 -10l102 -37v0zM1474 641l-10 -55l-101 -75l-149 -65l-401 -80l-99 -14l-492 11l-120 37l-47 55l56 56l111 56l37 9l-9 -83v-29l37 -26l325 -29l454 74l157 56l65 47
l-9 74l-19 37l186 -37l28 -19v0zM1149 178l-167 -112l-64 -29l-140 -9l-194 28l-121 66l-93 119l-37 85h399l315 45l232 67l9 8l-55 -157l-84 -111v0z" />
    <glyph glyph-name="F" unicode="F" horiz-adv-x="1069" 
d="M759 941l-28 46l-51 12l-26 -12l-52 -46l-46 -84l-23 -45h-47l-87 -23l-88 -64l-57 -70l-47 -111l-59 -23l-100 -58l-17 -30l-6 -64l29 -41l47 -23h87l66 12l69 -88l-35 -69l-12 -58l12 -65l23 -30l24 -6l58 18l76 71l40 70l117 5l93 41l82 82l69 140l11 75l73 35l73 64
l16 73l-51 44l-75 23l-88 -11l-64 -12l-20 28l24 83l-10 111v0zM946 649l6 -6v-17l-82 -47h-17l-24 64l-12 21l61 3l50 -6l18 -12v0zM690 859l-8 -40l-14 -30l-54 17l40 88l18 17h18v-52v0zM742 941l7 -113l-111 -307l-8 -25l-69 -28l146 368l6 58v17l-29 24l-18 -6l-34 -35
l-41 -82l-12 6h-23l76 129l40 34h35l35 -40v0zM835 566l-52 -22l-129 -41l24 70l53 152l70 -70l34 -89v0zM998 695l18 -22l-6 -59l-70 -64l-241 -99l-184 -59l-304 -69h-102l-36 8l-36 44l23 77l65 40l82 34l-7 -40l-93 -35l-23 -23v-24l23 -33l174 12l304 71l58 20l221 82
l93 47l18 17l-6 35l-41 29h-69l-53 -6l-23 29l93 18l93 -12l29 -18v0zM660 771l-104 -268l-23 -44l-70 -19l-220 -43l-29 71l14 92l54 113l88 81l58 29l93 18l81 -12l58 -18v0zM783 293l-76 -75l-75 -35l-88 -6h-18l88 209v6l12 12l233 88l-6 -70l-70 -129v0zM433 188
l-86 37l-47 56l-18 36l227 58l-26 -86l-50 -101v0zM533 241l-76 -139l-64 -65l-47 -18l-30 6l-11 18l-12 47l18 75l24 47l23 -12l-23 -52v-42l23 -23l41 7l46 58l58 133l30 94l46 17h12l-58 -151v0zM218 392h-99l-12 12l6 38l64 14l23 7l18 -54v-17v0zM403 120l-38 -18
l-15 13l13 50l12 23l53 -22l-25 -46v0z" />
    <glyph glyph-name="G" unicode="G" horiz-adv-x="1617" 
d="M1129 928l-169 63l-214 8l-71 -17l-90 -45l-114 -106l-81 -125l-196 -89l-125 -99l-36 -79l36 -63l81 -36l222 -8l18 -72l173 -182l183 -67l142 -9l117 17l133 63l18 18h10l124 124l54 98l26 178l-11 72l-15 43l26 20l134 88l54 72l8 79l-18 46l-53 26l-178 9l-136 -31
l-52 4v0zM1129 902l63 -71l9 -44l-241 -120l-410 -104l-151 -9l-6 105l41 83l98 115l90 71l124 45l193 -6l190 -65v0zM1405 813l-61 -63l-250 -115l-356 -117l-402 -71h-112l-28 24l38 58l120 43v-18l45 -36l223 27l312 90l239 98l54 35l18 18l-18 52l54 10l97 6l27 -41v0z
M1532 850l-18 -83l-91 -71l-231 -107l-295 -97l-320 -89l-303 -45l-142 9l-63 59v48l116 107l179 89l2 -62l-145 -63l-63 -62v-44l36 -28l223 10l286 53l364 115l285 125l53 45l28 27v53l-53 45l-135 -10l-35 -17l-37 35l117 36h81l58 -2l83 -15l20 -61v0zM1334 403
l-35 -107l-62 -89l-125 -107l-152 -63l-79 -8h-99l-179 61l-115 100l-71 97l-10 45l18 17l250 45l357 106l285 108l17 -36v-169v0z" />
    <glyph glyph-name="H" unicode="H" horiz-adv-x="1532" 
d="M467 920l-121 -122l-37 -55l-28 -27l-176 -19l-65 -37v-74l74 -75l84 -36l18 -20l65 -185l92 -111l149 -111l159 -47l240 18l157 74l93 111l66 131l137 19l66 27l56 57v45l-93 74l-84 37l-56 10l-82 157l-132 148l-138 66l-130 24l-185 -15l-129 -64v0zM59 641l28 19
l186 37l-19 -37l-10 -74l65 -47l158 -56l454 -74l324 29l37 26v29l-8 83l36 -9l112 -56l55 -56l-47 -55l-120 -37l-491 -11l-99 14l-402 80l-148 65l-101 75l-10 55v0z" />
    <glyph glyph-name="I" unicode="I" horiz-adv-x="766" 
d="M612 924l-16 25l-26 17l-47 -5l-24 -40l14 -40l-55 -70l-39 -38l-10 4l-79 -2l-109 -40l-62 -38l-35 11l-42 8l-33 -13l-19 -41l12 -56l33 -40l17 -23l-8 -41l6 -59l51 -131l27 -29l9 -27l-11 -73l-15 -32l-16 -10l-20 -42l5 -25l47 -21l27 9l11 13l35 62l39 60l15 10
l15 -7h72l105 30l70 41l57 63l50 -1l56 13l22 35l-3 30l-36 55l-28 38l-19 18v23l-37 102l-71 77l22 131l20 7l20 30l3 32v0zM599 908l-17 -26l-32 -7l-31 20l-9 27l24 28l30 2l30 -20l5 -24v0zM538 740l-6 -14l-39 -10l-51 24l-9 15l50 61l42 53l32 -15l-19 -114v0z
M641 540l2 -69l-6 -25l-41 -2l-227 54l-141 72l-91 70l53 54l85 50l100 21l28 -2l32 -37l61 -28l50 10l58 -67l37 -101v0zM723 378l-16 -15l-38 -13h-54l-129 26l-191 72l-144 79l-76 63l-18 31l-8 35l5 19l13 22l35 -1l43 -15l-31 -42l19 -31l125 -81l149 -69l137 -30
l80 -9h11l21 7l4 59l52 -57l11 -50v0zM569 299l-93 -53l-86 -27l-63 -5l-17 3l-15 1l-29 47l-41 20l-30 -3l-21 15l-48 78l-25 102l10 56l125 -79l182 -80l168 -39l9 -4l-26 -32v0zM274 211l-60 -80l-29 21l-14 6l24 101l30 3l39 -24l10 -27v0zM204 109l-15 -33l-28 -9
l-27 13l-3 29l18 26l21 6l29 -19l5 -13v0z" />
    <glyph glyph-name="J" unicode="J" horiz-adv-x="1827" 
d="M1225 915l-138 65l-168 19l-119 -19l-157 -65l-129 -119l-56 -111h-26l-66 -10l-203 -74l-101 -82l-28 -56v-74l55 -65l74 -27l263 -9l43 -10v-18l92 -121l129 -81l83 -38l157 -18l138 18l120 65l120 110l84 139l55 148l231 101l110 111v102l-55 54l-136 27l-289 -27
l-83 65v0zM1595 731l8 -9v-38l-110 -46l-56 -8l-45 119l55 9l119 -9l29 -18v0zM1198 907l82 -66l93 -119l28 -92l-19 -19l-259 -65l-323 -46l-119 -18l-176 -19h-55l19 102l18 120l37 73l119 121l148 73l92 19l176 -19l139 -45v0zM1743 804l17 -36l-9 -83l-73 -74l-204 -92
l-295 -84l-148 -36l-665 -83l-230 18l-47 27l-37 74l19 56l110 92l112 47l157 36l-18 -65l-167 -36l-65 -65l10 -28l55 -45h222l359 45l314 55l369 92l92 47l19 28l-19 64l-55 28l-193 -9l-18 38l-18 18l184 17l157 -9l65 -37v0zM1363 334l-64 -102l-139 -138l-119 -55h-231
l-167 73l-101 83l-51 107l411 41l277 56l213 64h18l-47 -129v0zM422 491v-28h-157l-28 28l10 28l100 37l56 9h29l-10 -74v0z" />
    <glyph glyph-name="K" unicode="K" horiz-adv-x="865" 
d="M671 899l8 100l-71 -67l-68 -76l-49 -42l-10 7l-93 2l-128 -39l-74 -40l-40 15l-47 12l-40 -12l-25 -47l11 -66l35 -47l18 -28l-12 -48l3 -68l51 -155l28 -35l10 -32l-19 -84l-12 -34l-10 -103l14 -11l91 90l50 67l18 10l16 -9l84 -5l123 28l83 43l70 69l59 -4l66 10
l28 39l-2 35l-38 66l-30 47l-21 22l1 26l-35 120l-77 95l34 149v0zM652 905l-33 -153l-46 -9l-57 32l-10 18l63 67l52 59l36 37l-5 -51v0zM733 530l-2 -79l-9 -29l-47 -1l-259 79l-159 93l-101 87l66 58l102 52l116 18l32 -4l36 -45l68 -37l58 9l64 -81l35 -120v0zM817 338
l-20 -17l-44 -12l-63 3l-147 39l-217 96l-160 100l-85 79l-19 37l-6 40l8 23l15 24l41 -3l49 -20l-38 -47l19 -37l140 -102l167 -90l156 -44l92 -16l14 -1l23 8l10 68l56 -70l9 -58v0zM633 256l-110 -55l-102 -25l-73 -2l-19 4l-18 3l-30 57l-46 25l-36 -2l-22 19l-51 94
l-22 119l16 65l139 -100l205 -105l191 -56l10 -5l-32 -36v0zM287 174l-75 -88l-60 -59l47 208l34 1l44 -30l10 -32v0z" />
    <glyph glyph-name="L" unicode="L" horiz-adv-x="1017" 
d="M661 953l-27 33l-60 14l-33 -14l-34 -33l-6 -55l32 -32l-1 -62l-18 -45h-20l-54 -6l-120 -54l-72 -66l-14 13l-67 40v27l-34 46l-46 13l-34 -13l-19 -33v-74l27 -26h53l59 -86v-27l-13 -34l-6 -126l13 -41l-80 -74l-20 -32v-40l27 -27l100 -7l40 20l93 -87l94 -46l99 -18
l154 24l60 26l100 75l47 72l62 132l-2 143l-47 106l14 13l53 68l7 59l-13 20l-54 6l-93 -19l-54 -27l-105 60l-22 101l34 32v61v0zM641 946v-46l-24 -30l-4 -44l21 -67l-67 6l-24 -3l12 107l-35 37l10 49l44 25l47 -8l20 -26v0zM728 699l54 -39l12 -21l-106 -107l-261 -167
l-174 -79l-46 -13l-24 6l5 37l-20 42l5 101l14 40l53 20l41 47v40l-20 20l113 80l87 33l33 6l133 -6l101 -40v0zM955 706l-14 -46l-127 -128l-253 -173l-187 -121l-180 -86h-87l-20 14v40l33 39l40 41l27 -41l47 7l233 107l167 106l174 147l13 27l-47 53l67 27l60 13l40 -6
l14 -20v0zM928 412l-13 -94l-40 -99l-61 -80l-80 -67l-86 -33l-115 -19l-101 17l-112 55l-59 60l306 180l300 220l14 14l34 -74l13 -80v0zM261 592l-13 -40l-27 -20h-21l-67 94l27 40l67 -33l34 -41v0zM147 713l-14 -53l-26 -21h-40l-20 27l6 60l27 27h34l33 -40v0z" />
    <glyph glyph-name="M" unicode="M" horiz-adv-x="1828" 
d="M602 915l-83 -65l-288 27l-136 -27l-56 -54v-102l111 -111l230 -101l56 -148l83 -139l120 -110l120 -65l138 -18l158 18l83 38l128 81l92 121v18l44 10l262 9l74 27l55 65v74l-28 56l-101 82l-202 74l-66 10h-27l-56 111l-129 119l-157 65l-120 19l-166 -19l-139 -65v0z
M1405 491l-9 74h28l56 -9l100 -37l10 -28l-28 -28h-157v28v0zM85 804l65 37l156 9l185 -17l-19 -18l-18 -38l-193 9l-55 -28l-19 -64l19 -28l92 -47l369 -92l314 -55l359 -45h222l56 45l9 28l-65 65l-166 36l-18 65l157 -36l111 -47l111 -92l19 -56l-38 -74l-47 -27
l-229 -18l-665 83l-148 36l-296 84l-203 92l-73 74l-10 83l18 36v0zM233 731l28 18l119 9l56 -9l-46 -119l-55 8l-110 46v38l8 9v0z" />
    <glyph glyph-name="N" unicode="N" horiz-adv-x="1293" 
d="M221 937l-38 54l-71 8l-47 -31l-7 -16l-16 -62l23 -48l71 -30l188 -219l-36 -128l12 -100l-55 -39l-31 -47v-71l31 -30l32 -16h132l102 -94l132 -67l182 5l78 23l70 39l133 118l70 132l16 212l-23 78l47 54l23 47l8 79l-47 46h-102l-78 -22l-23 22l-103 48l-218 8
l-101 -25l-103 -53h-23l-228 125v0zM1020 788l23 -32l24 -23l-180 -172l-243 -156l-204 -87l-85 -16l-16 24l-23 73l-1 68l7 57l17 36l23 -7l55 24l63 78l24 63l-8 62l-16 8l117 62l110 24l196 -15l117 -71v0zM1223 780v-55l-38 -70l-134 -133l-266 -188l-219 -109l-157 -47
l-125 8l-31 15l-23 32l31 69l47 47l31 -70h70l219 86l243 140l204 204l23 24l-23 31l-24 24l24 24l23 7h87l38 -39v0zM465 686l-8 -8l-79 55l-7 8l16 15l15 56l78 -63l-15 -63v0zM355 772v-16l-47 32l-31 31l31 46l70 -38l-23 -55v0zM261 842v-8l-71 40l24 47l70 -39
l-23 -40v0zM1152 348l-38 -108l-55 -70l-102 -87l-117 -54l-187 -9l-126 63l-62 56l-25 23l95 24l149 62l210 125l188 141l71 71l16 -48l-17 -189v0zM190 944l-15 -47l-16 -32l-31 -23l-48 8l-15 32l8 62l47 39l48 -8l22 -31v0zM331 733l-47 -39h-23l-31 39l-16 16l39 46
l47 -31l31 -31v0zM440 647l-62 -62h-23l-63 70l-8 7l71 56l54 -40l31 -31v0zM237 812l-39 -32l-23 15l-24 24l24 31l46 -23l16 -15v0z" />
    <glyph glyph-name="O" unicode="O" horiz-adv-x="987" 
d="M386 840l-30 -98l-103 -58l-52 26l-91 19l-52 -7l-14 -19l7 -58l53 -66l13 -13l-47 -104l-1 -139l61 -129l45 -71l98 -73l58 -26l151 -23l97 17l91 46l92 84l39 -19l98 7l26 26v39l-20 32l-78 72l13 39l-6 124l-13 33v26l58 85l74 93l3 28l-129 -63l-65 -38l-13 -14
l-71 66l-118 52l-52 6h-20l-9 43l-7 62l-4 116l-25 37l-57 -160v0zM736 579l32 39l164 88l-72 -94l-65 -92h-20l-26 20l-13 39v0zM465 746l-40 -2v0h-2h-3h-3l-4 -1h-4l-5 -1h-4h-5l-5 -1h-4l-4 -1h-3h-3h-2v0l25 89l46 135l7 -12l7 -163l6 -43v0zM279 684l98 38l131 7
l32 -7l85 -32l111 -78l-20 -20v-39l40 -46l52 -20l13 -38l5 -99l-19 -41l5 -36l-24 -7l-46 13l-169 78l-255 163l-104 104l13 21l52 39v0zM58 690l12 20l40 6l58 -13l66 -27l-46 -52l13 -26l170 -143l163 -104l228 -105l46 -6l26 39l39 -39l32 -39v-39l-19 -14h-85l-176 85
l-182 118l-248 169l-125 125l-12 45v0zM84 403l12 78l34 72l13 -13l293 -216l300 -176l-58 -58l-110 -54l-98 -17l-112 19l-85 33l-78 65l-59 78l-40 97l-12 92v0z" />
    <glyph glyph-name="P" unicode="P" horiz-adv-x="1040" 
d="M476 943l-51 50l-38 6l-18 -6l-45 -22l-27 -50l-7 -145l12 -85l-22 -22l-50 -96l-118 -39l-68 -50l-17 -29v-72l23 -34l45 -22l162 -7l6 -16l68 -78l33 -18l83 -33v-17l12 -79l39 -55l34 -23h62l39 28l39 85l6 83l61 51l40 45l45 84l22 73l12 78l67 34l84 72l8 62l-45 46
l-100 19l-82 -8l-67 -18l-74 45l-83 18l-34 11l-11 45l-45 89v0zM907 680v-11l-55 -46l-34 -16l-15 39l-19 28l79 17h33l11 -11v0zM644 764l79 -45l61 -73l18 -45l-135 -62l-56 -17l-11 23l-11 73l-46 169l57 -7l44 -16v0zM420 854l23 -67l-74 -34l-5 56v56l11 27h12l33 -38
v0zM476 915l45 -123l27 -95l41 -180l-52 -22l-33 157l-57 185l-22 44l-33 34l-28 -5l-17 -23v-79l6 -61l-36 -39l-9 39l5 174l23 33l22 23l17 5l50 -5l51 -62v0zM779 320l-51 -61l-45 -33l-28 157l-11 38v17l135 51l50 22v-67l-50 -124v0zM986 702l11 -22l-5 -34l-62 -62
l-72 -39l-45 -23l-276 -101l-288 -86l-144 1l-42 20l-24 54l5 45l51 51l78 39l46 11l-7 -34l-72 -33l-34 -34v-39l46 -15l72 -2l134 22l303 96l179 79l62 38l23 23v34l-18 17h-78l-50 -17l-23 17l-17 16l68 17l39 6l95 -17l45 -28v0zM482 646l22 -78l6 -51l5 -11v-17
l-235 -62l-50 -6v90l33 101l39 62l95 73l46 22l22 -56l17 -67v0zM663 242l-8 -128l-28 -68l-33 -28h-62l-44 45l-23 73l-6 34l29 -6l38 -90l28 -23h23l23 23l2 77l-13 136l-29 123l51 17h11l41 -185v0zM548 186h-78l-101 34l-56 44l-45 63l175 44l100 34l39 -213l-34 -6v0z
M582 85l-11 -11h-17l-28 40l-11 50l67 -6v-73v0zM129 421l-6 6v17l55 45l29 11l-6 -84l-72 5v0z" />
    <glyph glyph-name="Q" unicode="Q" horiz-adv-x="1314" 
d="M1107 964l-235 -128h-23l-106 55l-104 26l-225 -9l-106 -49l-23 -23l-81 23h-105l-48 -48l8 -80l24 -49l48 -56l-23 -81l16 -218l72 -135l137 -122l72 -40l81 -24l187 -5l135 69l105 96h136l33 17l32 32v73l-32 48l-56 40l11 103l-31 123l193 229l73 168l-165 -35v0z
M1246 975l-69 -137l-191 -218l-14 -26l-35 8l-16 4l-37 34l-10 10l-1 1l-17 42l-21 48l15 52l37 23l114 66l116 67l129 26v0zM285 811l120 73l202 16l113 -24l120 -65l-23 -72l23 -65l65 -80l57 -24l24 7l16 -37l8 -59l-1 -71l-24 -74l-16 -25l-88 16l-209 90l-251 161
l-184 177l24 23l24 33v0zM76 804l40 40h88l25 -8l24 -25l-24 -24l-25 -32l25 -24l208 -210l251 -145l225 -88h72l32 72l49 -49l32 -72l-24 -32l-32 -15l-129 -9l-161 48l-225 113l-274 193l-137 137l-40 72v58v0zM149 358l-18 195l17 49l72 -72l194 -145l217 -130l153 -63
l97 -26l-25 -23l-64 -57l-130 -66l-192 10l-121 56l-105 89l-55 72l-40 111v0z" />
    <glyph glyph-name="R" unicode="R" horiz-adv-x="789" 
d="M381 973l-11 21l-43 6l-66 -66l-22 -59v-87l11 -33l-71 -75l-27 -50l-21 -76l-6 -70l-16 -11l-49 -43l-27 -43l-10 -51l33 -33l100 3l23 2l87 -84l82 -33l99 1l47 4l11 -10v-49l-33 -49l-27 16h-48l-27 -27l-6 -44l17 -22l38 -10l38 28h37l33 10l44 43l26 60v87l60 54
l60 125l11 136l-17 65l17 16l27 55v37l-5 16l-28 17l-97 5l-22 -10l-54 27l-82 27l-65 5l-65 -5l-16 81l1 31l26 2l27 27l6 33v0zM364 978l-5 -38l-22 -11h-10l-12 16l6 33l16 11h16l11 -11v0zM309 843l28 -82v-11l-32 -22l-17 -5h-11l-11 10l-16 114l16 71l33 38l10 -43
v-70v0zM581 739l38 -33l22 -21l-11 -38l-71 -65l-184 -109l-130 -49l-98 -24l-11 73l16 120l44 87l54 53l5 -16l11 -11l55 6l38 33l-6 40l50 5l76 -8l102 -43v0zM722 728l17 -16l-6 -49l-38 -48l-98 -77l-140 -86l-234 -109l-92 -22h-65l-22 27l11 49l65 66l7 -51l5 -30
l113 20l136 50l200 119l76 81l11 28l-32 37l-17 16l33 12l55 -6l15 -11v0zM695 392l-43 -87l-60 -60l-21 22l-44 -6l-33 -32l-6 -16l-55 -7h-74l-82 29l-48 43l-33 38l87 27l217 109l168 113l32 28l11 -120l-16 -81v0zM581 218v-81l-27 -49l-38 -33l-44 -11v28l39 37l12 66
l-7 27v22l22 21l16 6h5l22 -33v0zM451 41l-38 -24h-16l-16 22v27l16 22l16 5l41 -13l-3 -39v0z" />
    <glyph glyph-name="S" unicode="S" horiz-adv-x="1362" 
d="M878 964l-80 27l-142 8l-124 -17l-124 -62l-158 -159l-54 -97h-25l-116 -71l-8 -53l35 -44l107 -35l7 -71l-70 -53l-9 -27l36 -53l61 -36h71l27 -43l-62 -53l9 -75l86 -13l108 17l18 -17l97 -36h212l98 36l141 88l96 96l54 106l35 18l98 89l8 70l-26 28h-18l-88 17l8 36
l80 88l18 62l-53 61l-151 9v9l35 44v70l-55 45l-112 9l-70 -18v0zM931 911l30 -27l-66 -44l-210 -127l-222 -85l-178 -43l-61 -10l-18 18l61 151l80 96l124 89l114 35l71 9l151 -9l124 -53v0zM1098 911l-8 -53l-98 -89l-220 -113l-310 -116l-221 -44l-133 8l-35 36v26l80 62
l36 9l-10 -44v-27l17 -17l159 17l240 79l97 36l256 159l44 45l-30 43l-32 25h107l61 -42v0zM1115 720l-96 -92l-173 -128l-384 -128l-150 -35h-62l-36 79v45l133 17l345 107l151 60l220 133l35 -34l17 -24v0zM1257 735l-36 -79l-149 -124l-239 -124l-318 -116l-203 -44h-88
l-63 26l-17 28l17 35l35 26l28 -53h131l328 98l185 79l257 186v8l35 35l-45 63l116 -10l26 -34v0zM1019 381l-216 -108l-356 -95l-82 -28l-51 76l237 45l292 117l255 126l62 43l-9 -88l-132 -88v0zM1284 487v-36l-124 -106l-380 -167l-203 -71l-159 -36l-82 -12l-65 18
l-4 30l45 43l43 -25l69 10l383 113l212 89l141 97l26 27v53l28 7l52 -7l18 -27v0zM957 107l-142 -70l-114 -19l-141 9l-62 27l256 79l317 138l54 31l-45 -81l-123 -114v0z" />
    <glyph glyph-name="T" unicode="T" horiz-adv-x="1338" 
d="M1293 956l-29 28l-67 15l-44 -22v-88l-183 -133l-37 30l-103 37l-22 110l-51 51l-51 7l-52 -14l-74 -66l-36 -58l-19 -30l-25 -15l-81 -52l-44 -58l-191 125v30l-29 36l-66 14l-44 -43l-8 -81l29 -29l75 -6l154 -178l-8 -7v-96l14 -80l74 -162v-30l-22 -51v-95l44 -44h88
l103 74l139 -36l88 13l104 44l73 59l52 73l58 162l7 110l-14 80l154 280h15l29 29v67v0zM1279 933l-8 -37l-22 -22l-44 8l-31 23l2 65l14 7l59 -7l30 -37v0zM1205 823l-126 -216l-43 3l-59 73l-7 37l102 88l96 66l37 -21v-30v0zM955 742l-19 -30l11 -44l49 -64l33 -16l36 -8
h7l14 -120l-21 -115l-44 -109l-37 -59l-65 -59l-96 -43l-88 -15l-84 23l-42 7l89 161l73 205l37 124l15 88l7 133l89 -30l36 -29v0zM807 801l-21 -198l-95 -301l-96 -184l-95 -87l-37 -16h-51l-37 37v88l14 37v7l67 -51l80 80l82 132l50 162l38 228l-8 102l-49 17l-90 -24
l29 59l80 73l34 8l48 -8l41 -42l16 -119v0zM684 756l-30 -182l-59 -206l-59 -111l-80 -94l-73 80l-59 132l-15 110v74h15l65 80l15 67l34 43l119 66l119 8l8 -67v0zM360 639l-44 -51h-21l-138 171l27 42l176 -124v-38v0zM163 853v-38l-45 -51l-52 7v89l30 22l52 -15l15 -14
v0z" />
    <glyph glyph-name="U" unicode="U" horiz-adv-x="1220" 
d="M1013 937l-3 12h-2l-7 -10l-16 -26l-12 1l-29 4h-4l1 -3l10 -11l17 -22l-17 -36l3 -1l35 18l28 -28l7 -3v19l-2 25l34 16l1 3l-18 6l-20 4l-2 3l-4 29v0zM1113 813l-3 11l-2 1l-7 -10l-16 -27l-12 1l-29 4h-3v-3l10 -11l18 -22l-18 -37h2l37 18l27 -28l8 -4l-1 21l-2 23
l34 17l1 4l-18 5l-20 4l-2 3l-4 30v0zM875 908l-3 11l-2 1l-6 -10l-16 -27l-13 1l-28 4h-4l1 -2l10 -12l17 -22l-17 -36h2l36 17l27 -27l8 -4l-1 20l-2 24l35 16v4l-17 6l-20 3l-3 3l-4 30v0zM959 728l-3 11l-2 1l-6 -10l-17 -27l-12 1l-29 5l-3 -1v-2l10 -11l18 -22
l-17 -37h2l36 18l28 -28l7 -4l-1 20l-2 24l34 16l1 4l-18 6l-20 4l-1 3l-5 29v0zM1155 503l-4 11h-2l-6 -9l-16 -27l-13 1l-29 5l-2 -1v-3l9 -11l19 -22l-19 -36l3 -1l36 18l28 -28l8 -4l-2 20l-2 25l35 16v4l-17 5l-21 4l-1 3l-4 30v0zM1010 568l-3 11l-2 1l-6 -10l-17 -28
l-12 2l-29 4h-3v-3l10 -11l18 -22l-18 -37h3l36 18l28 -28l7 -4l-1 21l-2 23l34 17l1 4l-18 5l-20 4l-1 3l-5 30v0zM950 381l-5 10h-2l-5 -10l-10 -30l-13 -1l-29 -1l-3 -1l1 -3l12 -9l21 -18l-10 -39h3l31 24l32 -22l9 -2l-5 19l-6 23l30 23v4l-18 2h-21l-2 2l-10 29v0z
M609 824l-24 24l-24 3l-27 -20l-14 -24l-7 -87l-55 -58l-4 4l-13 5l-31 9h-52l-20 -14l-4 -31l28 -27l57 -28v-11l5 -55l-52 -55l-27 -40l-4 -42l14 -17l30 -4l39 7l65 42l27 -21l62 -24l17 -55l31 -38l28 -3l18 10l9 27l11 66l3 10h4l51 42l31 40l21 52h75l22 19l-4 32
l-21 25l-27 14l-59 14l-24 44l34 57l5 52l-13 23l-12 13l-42 -4l-31 -14l-58 -48h-10l-4 3v4l-24 79v0zM370 848l-3 11l-2 1l-6 -10l-17 -27l-12 2l-29 4l-3 -1v-2l10 -12l18 -22l-18 -36l2 -1l37 18l27 -28l8 -3l-1 20l-2 24l34 16l1 4l-18 5l-20 5l-2 2l-4 30v0zM167 746
l-3 11l-3 1l-6 -10l-16 -27l-12 1l-29 5h-3v-3l9 -11l19 -23l-18 -36h2l37 17l27 -27l8 -4l-2 20l-1 24l34 17l1 3l-18 6l-21 3l-1 3l-4 30v0zM245 573l-3 11l-3 1l-6 -10l-16 -26h-13l-28 5h-4l1 -3l10 -11l18 -23l-18 -36h3l35 17l28 -27l7 -4v20l-3 25l35 16l1 3l-18 6
l-20 3l-2 3l-4 30v0zM325 304l-5 11h-2l-4 -11l-11 -29l-12 -1l-30 -1l-3 -1l1 -3l11 -9l23 -19l-11 -38h2l33 24l32 -22l8 -2l-5 19l-7 24l32 22v4l-19 2h-20l-3 2l-10 28v0zM167 409l-5 10h-2l-5 -10l-11 -30l-12 -1l-29 -1l-3 -1l1 -3l11 -9l22 -18l-10 -39h2l32 24
l32 -22l9 -2l-5 19l-6 23l30 23v4l-18 2h-21l-3 2l-9 29v0zM106 197l-5 11h-2l-4 -11l-12 -30l-12 -1l-29 -1l-3 -1l1 -2l12 -10l22 -18l-11 -39h2l32 24l33 -22l8 -2l-5 20l-6 23l31 22v4l-19 2h-21l-2 3l-10 28v0zM1029 900l18 -4l6 -2l-10 -4l-7 -3l-18 -10l1 -19l3 -21
l-3 1l-25 25l-4 3l-35 -16l8 13l9 18l1 4l-28 31l25 -5l17 -2l2 2l12 20l7 15l7 -44l14 -2v0zM1129 775l18 -4l6 -2l-10 -5l-7 -2l-18 -10l1 -20l3 -20l-3 1l-25 25l-4 3l-34 -16l7 13l9 19l1 2l-28 32l25 -5l17 -2l3 1l11 21l7 15l7 -43l14 -3v0zM891 870l19 -4l6 -2
l-10 -4l-8 -3l-17 -10l1 -20l2 -20l-2 2l-25 24l-4 4l-34 -17l7 14l9 17v4l-28 31l26 -5l16 -2l3 2l11 20l8 15l7 -44l13 -2v0zM975 690l18 -4l6 -1l-10 -5l-7 -3l-18 -9l2 -21l2 -20l-2 2l-26 25l-4 3l-34 -17l7 14l9 18l1 3l-28 31l25 -5l17 -2l3 2l11 21l7 14l7 -43
l14 -3v0zM1170 465l18 -4l7 -2l-10 -4l-7 -4l-18 -9v-20l4 -20l-4 2l-24 24l-4 3l-35 -16l7 13l10 19v3l-27 31l24 -5l17 -2l3 2l11 20l8 15l7 -43l13 -3v0zM1026 530l18 -4l6 -2l-9 -5l-8 -2l-18 -10l1 -20l4 -20l-4 1l-24 25l-5 3l-34 -16l7 13l9 19l1 2l-28 32l25 -5
l17 -2l3 1l11 21l8 15l7 -44l13 -2v0zM765 740l-25 -37l-7 -6l-45 30l38 28l10 4h21l8 -19v0zM837 549l-21 3h-14v17l-4 12l34 -7l13 -13l-8 -12v0zM719 694l7 -8l-62 -69l-4 -2l-20 112l34 -7l45 -26v0zM870 576l17 -20v-21l-10 -11l-91 -5l-108 16l-11 10l7 14l18 -3
l141 -17h7l13 13v10l-17 18l-38 10l-3 14l45 -10l30 -18v0zM784 583l7 -21v-10l-96 14l-10 3l72 80l24 -41l3 -25v0zM585 759l4 -18h-28l-13 -7l2 56l17 7l12 -15l6 -23v0zM609 797l21 -87l21 -106l-21 -17l-28 151l-17 52l-17 17l-20 -4l-10 -26l-2 -46l-13 -7v45l3 37
l24 32l18 6l26 -19l15 -28v0zM973 346h19l6 -1l-9 -6l-7 -4l-15 -12l4 -20l7 -20l-3 1l-29 20l-5 3l-31 -23l5 14l6 20v3l-34 25h25l18 2l2 2l7 22l5 16l15 -42h14v0zM788 507l-21 -51l-31 -37l-44 -35l-7 31l-11 88l-2 25l74 -14l42 -7v0zM602 683l7 -59l7 -27v-14l-96 14
l-80 18l18 34l27 31l47 40l43 11h19l8 -48v0zM385 810l19 -4l6 -2l-9 -4l-8 -3l-18 -9l1 -21l3 -20l-3 2l-24 24l-5 3l-34 -16l7 13l9 19l1 3l-28 31l25 -5l17 -2l3 2l10 20l8 15l7 -43l13 -3v0zM791 766l-3 -35l-28 -58l-75 -86l-186 -158l-66 -48l-34 -14h-37l-14 21
l10 34l24 34l42 42l7 -21l-52 -52l-4 -13v-11l14 -13l24 3l69 48l113 100l121 117l51 64l10 32l-20 20l-41 -10l-42 -31l-14 7l59 45l38 10l20 -3l14 -24v0zM447 659l4 -3l-8 -13l-19 6l-31 3h-11l-10 -10v-11l21 -16l137 -32l82 -14l-16 -17l-83 14l-128 38l-27 17l-17 21
l4 20l20 11l48 -4l34 -10v0zM674 312l-10 -28l-13 -13l-11 3h-7l-34 44l-10 38h17l17 -41l14 -10h7l14 13l-3 72l-18 138l21 21l23 -175l-7 -62v0zM438 635l-9 -16l-33 9l-11 7v7l44 -2l9 -5v0zM647 384v-10l-63 -6l-43 16l-32 17l-10 11l127 109l18 -120l3 -17v0zM575 545
h10l-117 -103l-21 24l-16 52v58l113 -27l31 -4v0zM644 318h-7l-14 28l-7 14h17h14l-3 -42v0zM458 436l-48 -35l-14 -3l-7 10l4 17l40 41l18 -24l7 -6v0zM182 708l19 -4l6 -2l-10 -3l-7 -4l-18 -9v-20l4 -21l-4 2l-24 24l-4 4l-35 -16l7 13l10 18l1 4l-28 30l24 -4l18 -3l2 2
l11 20l8 16l7 -44l13 -3v0zM260 535l19 -4l6 -1l-10 -4l-7 -4l-18 -9l1 -20l3 -21l-3 2l-25 24l-4 4l-34 -16l7 13l9 18l1 3l-28 32l25 -5l16 -2l3 1l11 20l8 16l7 -44l13 -3v0zM348 271l18 -1l7 -1l-9 -6l-7 -4l-15 -13l5 -19l7 -20l-4 1l-29 20l-4 2l-31 -22l5 14l5 19v4
l-33 25h25l17 2l2 2l7 22l5 16l15 -41h14v0zM190 374h18l7 -1l-9 -6l-7 -4l-16 -13l5 -19l7 -20l-3 1l-29 20l-5 2l-31 -23l5 15l6 20v3l-34 25h26l17 2l2 2l7 22l4 16l16 -42h14v0zM129 163l19 -1h6l-8 -6l-7 -5l-16 -13l4 -19l7 -20l-3 2l-29 19l-5 2l-30 -22l4 15l6 19v4
l-34 25h26l17 1l2 2l7 22l5 16l15 -41h14v0z" />
    <glyph glyph-name="V" unicode="V" horiz-adv-x="1439" 
d="M1392 958l-18 17l-99 24l-75 -8l-125 -42l-158 -58l-41 17l-142 25l-124 -17l-109 -57l-141 -143l-74 -140l-18 -126l-132 -116l-74 -100l-27 -91l51 -50h116l100 24l75 34l91 -83l116 -58l242 -9l125 50l148 150l67 149l18 226l-25 74l124 109l100 116l9 83v0zM942 859
l67 -59l-109 -134l-57 -57l-50 91l-66 67l-134 33l-33 41v25l107 42l167 -9l108 -40v0zM1145 372l-20 -62l-66 -117l-9 -9l-75 92l-16 133l-33 50l-9 8l200 142l25 24l17 -74l-14 -187v0zM551 809l67 -50l83 -26l66 -49l50 -101l-233 -149l-41 -16l-75 91v100l17 99l-8 51
l-25 24l66 58h16l17 -32v0zM1374 941l-8 -50l-91 -108l-250 -207l-457 -308l-307 -141l-133 -17l-41 7l-25 36l7 40l83 134l109 82l25 -91l16 -17l125 33l224 100l208 142l166 191l17 42l-59 57l-24 9l174 74l93 26l116 -9l32 -25v0zM951 250l82 -90l-100 -92h-16l-50 92
l-74 74l-133 42l-9 8l242 166l40 -66l18 -134v0zM427 542l16 -66l75 -76l-158 -57l-49 -9l-17 149l34 126l66 116l33 42l25 -42l-25 -183v0zM793 193l83 -100l8 -25l16 -17l-107 -33l-209 17l-124 66l-50 60l91 40l117 67l109 -51l66 -24v0z" />
    <glyph glyph-name="W" unicode="W" horiz-adv-x="1124" 
d="M853 914l-134 61l-170 24l-148 -24l-97 -43l-159 -151l-72 -124l-15 -152l24 -193l53 -98l116 -115l168 -80l247 -18l159 63l107 88l62 89l62 159l9 178l-45 124l-88 149l-79 63v0zM879 861l-142 -80l-132 -79l-44 79l-9 9l44 36l186 96l71 -35l26 -26v0zM756 940
l-222 -114l-71 124l-10 8l108 17l123 -17l72 -18v0zM977 737l-98 -63l-62 -26l-133 -80l-62 106l284 160l53 -62l18 -35v0zM1030 595v-27l-266 -150l-70 124l291 160h9l36 -107v0zM861 312l-17 -18l-54 72l-8 25l256 151l-8 -142l-169 -88v0zM499 808l-187 -89l-61 142
l150 89h27l71 -142v0zM914 171l-8 -10l-53 106l167 99l-70 -152l-36 -43v0zM561 710l16 -18l-184 -97h-19l-44 89l133 79l45 18l34 -36l19 -35v0zM648 550l-140 -71l-45 -35l-35 45l-27 61l-8 10l194 106l54 -106l7 -10v0zM641 355l-99 -70l-70 115v18l194 106l63 -124
l-88 -45v0zM790 294l18 -18l-203 -124l-53 107l185 114l53 -71v-8v0zM92 613l70 150l62 71l62 -132l-194 -89v0zM808 82l-132 -54l-63 98l204 123l62 -106l-71 -61v0zM348 578l-256 -134l-10 116l204 106h18l44 -88v0zM419 436l9 -10l-213 -105l-89 -36l-34 98v26l265 133h8
l54 -106v0zM472 28l-9 9l124 81l44 -90h-159v0zM508 267l-248 -124h-27l-88 106l150 81l124 53l9 8h18l62 -124v0zM577 143l-167 -97l-142 72l256 123l37 -80l16 -18v0z" />
    <glyph glyph-name="X" unicode="X" horiz-adv-x="1722" 
d="M33 764l38 -81l143 -81l163 -65l1 -84l98 -221l120 -127l204 -98l142 -5l240 94l97 99l62 116l88 -6l109 10l118 41l32 69l-58 82l-111 74l-174 71l-62 120l-125 115l-192 92l-131 20l-130 -27l-135 -75l-35 -32l-180 2l-140 -2l-79 -18l-91 -60l-12 -23v0zM56 753l25 37
l114 50l102 7l201 -13l-21 -18l-39 -79l32 -36l235 -133l260 -70l261 -20l138 11l11 22l-8 102l139 -45l130 -105l22 -37l-13 -45l-38 -23l-140 -30l-359 33l-570 148l-326 120l-129 78l-27 46v0z" />
    <glyph glyph-name="Y" unicode="Y" horiz-adv-x="1292" 
d="M892 939l-114 43l-176 17l-43 -8l-105 -44l-132 -96l-79 -105l-44 -115l-9 -210l-26 -8l-114 -114l-9 -53l45 -43l201 -9v-18l79 -78l148 -87l176 -10l184 27l123 78l88 114l52 123v245l-35 123l61 61l62 79l9 78l-35 44l-97 9l-114 -35l-61 -35l-35 27v0zM210 427l7 200
l38 110l86 105l108 83l124 55l171 -13l142 -45l32 -30l45 -45l-37 -70l-85 -85l-92 -72l-104 -55l-94 -60l-95 -45l-89 -30l-100 -35v0h-2h-3h-4l-4 -1l-4 -1h-5h-5l-5 -1h-5l-5 -1h-4h-4l-2 -1h-2h-1l-2 37v0zM178 395l17 -28l30 3l11 1l19 1l69 20l115 40l129 61l104 64
l104 60l95 75l85 85l32 65l-5 20l-35 43l55 20l104 42l80 -10l17 -35l-9 -76l-111 -132l-144 -117l-6 -4l-57 -36l-223 -139l-84 -52l-15 -9l-149 -89l-24 -10l-100 -40h-11l-23 -1h-31l-57 -1l-57 -1l-6 5l-33 28l2 37l112 110v0zM988 133l-78 -62h-44l-141 114l35 158
l158 -17l70 -193v0zM1111 326l-61 -123l-44 -53l-61 193l-185 26h-26l-35 -175v-9l-9 -9l122 -87l45 -44l-185 -27l-149 10l-122 70l-105 105l123 43l526 325l140 114l35 -114l-9 -245v0z" />
    <glyph glyph-name="Z" unicode="Z" horiz-adv-x="1245" 
d="M1210 896l-13 68l-82 35l-51 -1l-134 -58l-98 -65l-148 -117l-62 4l-73 -12l-102 -58l-76 -86l-41 -98l-7 -92l-16 -7l-117 -83l-134 -128l-38 -87l36 -76l94 -34l107 19l205 126l129 -38l80 -4l106 31l90 62l63 71l62 136l-1 69l-20 101l86 83l110 130l45 109v0z
M1106 870l-120 -145l-75 -67l-16 6l-85 61l-22 8l118 103l150 85l41 9l27 -9l-18 -51v0zM893 639l-178 -162l-52 -38l-18 19l-11 92l-16 25l-132 53l-14 30l4 30l64 40l70 18l81 -3l52 -12l131 -72l19 -20v0zM963 381l-40 -86l-52 -63l-28 -27l-27 24l-11 46l-1 32l-23 39
l-50 18l226 195l17 -94l-11 -84v0zM1190 928l-1 -37l-41 -98l-128 -149l-285 -249l-177 -145l-196 -143l-110 -62l-84 -25l-26 -3l-73 25l-29 61l28 78l100 102l146 111l5 -39l-149 -135l-37 -69l-10 -27l25 -35l36 -6l74 31l150 84l303 249l266 238l115 127l43 67l11 47
l-8 15l-46 9l-49 -13l-167 -98l-109 -92l-35 6l-22 8l139 108l136 83l92 29l51 2l47 -24l15 -31v0zM478 605l126 -51l16 -43l5 -58l19 -32l-245 -204l-43 87l-19 83l18 137l33 76l64 72l-3 -24l29 -43v0zM793 223l30 -32l-63 -44l-98 -28l-80 4l-105 43l225 171l10 9l65 -29
l16 -94v0zM367 225l19 -20l-173 -95l-34 -6l-28 10l-3 26l56 86l122 114l12 -32l29 -83v0z" />
    <glyph glyph-name="bracketleft" unicode="[" 
 />
    <glyph glyph-name="backslash" unicode="\" 
 />
    <glyph glyph-name="bracketright" unicode="]" 
 />
    <glyph glyph-name="asciicircum" unicode="^" 
 />
    <glyph glyph-name="underscore" unicode="_" 
 />
    <glyph glyph-name="grave" unicode="`" 
 />
    <glyph glyph-name="a" unicode="a" horiz-adv-x="1118" 
d="M1059 500q0 103 -39 194.5t-107 159t-159 107t-195 39.5q-69 0 -133 -18t-119.5 -50.5t-101 -78t-78 -101t-50.5 -119.5t-18 -133t18 -133t50.5 -119.5t78 -101t101 -78t119.5 -50.5t133 -18q104 0 195 39.5t159 107t107 158.5t39 195zM963 423q-11 -42 -22.5 -80.5
t-31.5 -69.5q-39 -64 -99 -98q-17 -10 -35 -16t-36.5 -10.5t-37 -9.5t-36.5 -12q-16 -4 -31 -6.5t-29 -4.5q-39 -2 -78 8t-77 24q-11 5 -19 9.5t-16 9.5q-3 3 -3 14q-3 4 -8 4h-2q-3 0 -4 2q-3 0 -1 3q1 1 1 2l1 1l78 10v18h-3h-2q-2 -1 -3 -1t-3 -2q-16 0 -33.5 -4.5
t-35 -7.5t-34 -1t-30.5 14l2 2q4 1 8 4v6q-8 1 -13 4q-8 4 -16.5 7.5t-18.5 -0.5q-12 1 -22.5 7.5t-19 16t-15 20.5t-12.5 20q-20 32 -35 67.5t-25 77.5q-13 53 -9 102t15 100q5 22 12.5 39.5t16.5 32.5t19 29l21 30q27 28 54 49t57 38q33 20 71.5 30t76.5 16q29 1 58.5 2.5
t58.5 -6.5l15 -4q30 -8 63 -19t56 -34q19 -8 37 -19t35 -27l3 3l-4 3q17 -15 31.5 -34t25.5 -36q0 -1 -3 -2q3 -4 4.5 -7t3.5 -5l2 -7q19 -26 38.5 -50t24.5 -58q14 -51 20.5 -98t-6.5 -96zM716 126q-26 -17 -59 -24.5t-65 -11.5q-39 4 -79 7t-76 23q-13 3 -20.5 9t-17.5 13
v8q14 -3 29 -9l56 -21.5t58 -13.5q89 -17 172 19zM785 825q-8 8 -11 12l-3 -3q3 -3 5.5 -6t5.5 -6zM736 867q-10 7 -26 13l-3 -5q8 -4 14.5 -6.5t13.5 -4.5zM782 812l-40 34l-3 -3l36 -32zM803 815l-26 -20l-7 -8q14 4 22.5 9t10.5 19zM911 648q-1 15 -8 30l-4 -1l8 -29h4z
M628 902l-15 4v-8q3 -1 5 -1q3 0 6 -2zM717 865q-8 -31 -25 -44t-37 -18q-2 -5 -1 -5v-2v-1l11 -7l27 14q2 2 3 3.5t3 3.5q2 5 5.5 10t6.5 10t5.5 12t1.5 24zM717 817l-3 2q-5 -7 -10.5 -12.5t-3.5 -16.5l3 -3zM902 538q5 28 1.5 55.5t-14.5 53.5q-14 35 -31 65.5t-45 56.5
l-3 -2q10 -12 17 -24.5t15 -25.5q19 -32 31 -74t10 -84q2 -6 5 -9.5l7 -8.5zM943 558q-5 7 -6.5 11.5t-11.5 6.5l12 -23q2 -7 5 -2.5t1 7.5zM618 885l-43 11l-1 -4l41 -11zM941 533l-19 22q4 -11 6 -14t4 -5q4 -4 6 -5zM924 598l-3 9q-4 -36 -5.5 -52.5t-1 -19.5l0.5 -3
l-2 -4l-4.5 -11l-8.5 -20l4 -2l12 24q5 17 7 39q1 10 1 20v20zM949 501l-27 30v-11q2 -8 10 -14q3 -3 6 -5t5 -4q6 -4 6 2v2zM609 870q-20 5 -38.5 9t-35.5 10l-1 -4q16 -7 32.5 -13.5t33.5 -9.5h4zM646 809l-50 1q3 -7 6.5 -8t5.5 -1q5 2 11 -1t11 -3q9 3 16 12zM943 473
q-7 9 -9.5 13.5t-7.5 12.5l-4 6t-5 5q-3 0 -4 -2.5t-1 -4.5q2 -5 5 -8t8 -6q1 -1 4 -3t14 -13zM790 701q-4 18 -12 30.5t-18 26.5q-14 16 -31 17t-35 -1q-17 -2 -34 0.5t-35 25.5q4 -11 5 -13t1 -3q1 -2 1 -3t1 -2q3 -8 8.5 -12.5t11.5 -8.5q5 -3 10 -5t10 -5q0 -1 -1 -1v0
l-3 -1q-2 0 -4 -1q-25 -3 -37 19l-4 -2q2 -4 3 -9t4 -8q11 -8 26.5 -11t31.5 5q17 5 34.5 0t28.5 -22q7 -12 8 -25.5t-1.5 -28t-7 -28t-7.5 -25.5v-8q8 9 11.5 15.5t5.5 13.5q3 6 5.5 12.5t6.5 14.5q2 18 -0.5 33t-10.5 31q-11 16 -28 24t-35 9q12 2 23 2.5t25 -6.5
q25 -17 36 -58q2 3 3 3.5l1 0.5q3 0 3 4zM943 456l-38 41v-25l31 -22q2 -2 3 -1.5l3 1.5q3 3 1 6zM831 639q2 35 -9.5 68t-42.5 60q9 -15 14 -22.5t8 -14.5q15 -29 15.5 -56t-14.5 -58q-9 -19 -20.5 -36t-19.5 -34q-15 -28 -11.5 -59.5t16.5 -55.5l5 -6q0 8 -0.5 11.5
t-1.5 6.5q-2 10 -5 19t-4 19q3 32 18 54t32 43q7 15 12 28.5t8 32.5zM685 693l-5 1l-3 -7h6zM941 425l-36 41l-5 -17l31 -21zM681 673h-11l-4 -8l13 -1zM619 763q0 4 -3 6q-2 4 -6 4h-8q-14 -2 -25.5 -11.5t-21.5 -31.5q14 18 30.5 22.5t30.5 2.5q3 4 3 8zM846 603l-4 1
q-1 -4 -2.5 -7t-2.5 -6l-25 -33t-20.5 -33t-13 -36.5t-1.5 -42.5l3 -2h5q1 3 1 5q1 4 1 6t1 5q-3 25 4.5 42t18.5 32l11.5 16l10.5 16t8 17t5 20zM564 807q-11 3 -21 7t-21 6q-10 3 -21 3q-10 0 -22 -7l81 -16q3 0 4.5 2t-0.5 5zM868 523h-4q0 -11 -6 -19.5t-13.5 -16.5
t-14 -16.5t-7.5 -19.5l1 -5q10 13 17 20q4 5 7.5 8.5t6.5 7.5q6 8 10.5 18t2.5 23zM909 426q-1 2 -2 3t-2 3q-2 5 -4.5 9t-9.5 4q-1 -1 -1 -2l-2 -1q-3 -2 -5.5 -4.5t-0.5 -7.5l21 -8q6 -2 6 4zM898 455v7q-8 -3 -17 -9t-16 -20zM857 553l-4 2q-2 -2 -4 -4.5t-4 -4.5
q-11 -12 -18 -27.5t-11.5 -33t-6 -36t-1.5 -35.5l3 -2q3 -2 4 2.5t2 6.5q-2 36 12 70t28 62zM676 650l-17 2l-6 -12h21zM883 502q-8 -9 -12.5 -13.5l-9.5 -9.5q-16 -16 -27 -32t-11 -39l6 -4q2 17 9 28t16 20q5 5 9 9.5t8 9.5t7 12t5 19zM437 888l-1 4l-35 -12h21zM907 401
l-38 30l-4 -4q-3 -5 -2 -12l39 -17zM673 639l-22 -2l-7 -14l14 -1l13 4zM602 804q-26 -14 -42.5 -18t-31.5 -5q-16 -2 -31.5 -3.5t-30.5 -6.5l-21 -16.5t-15 -22.5q3 -2 6 -2h3q2 1 6 5l2 3l3 3q10 12 22.5 17.5t26 8t28 3.5t27.5 4q10 3 20.5 8.5t27.5 21.5zM891 374
l-34 36q2 -7 2.5 -8.5t0.5 -2.5v-5zM669 615q-18 -3 -31 -3l-5 -11q10 1 17.5 2l15.5 2zM905 349q5 3 0 6q-2 -1 -2.5 -0.5t-1.5 0.5l-2 1h-7q4 -4 5.5 -5t3.5 -2q2 -2 4 0zM889 357l-31 27q4 -13 4 -15q5 -6 10.5 -9t16.5 -3zM583 777q-26 -12 -45 -18.5t-39 -8.5
q-23 -5 -39.5 -15.5t-30.5 -30.5l2 -3l1 -2q5 2 7 4t6 5q19 21 46.5 27t51.5 15q8 3 17 8.5t23 18.5zM409 861l-33 8l-18 -13q0 -5 2 -5.5t4 -0.5q8 7 16 7.5t17 -1.5l4 2t8 3zM664 596q-10 -4 -19 -6t-20 -3l-5 -9l10 -1l33 11zM885 337l-21 20v-7q-2 -7 1 -10zM660 574
q-13 -5 -24 -6.5t-22 -3.5l-6 -11q27 3 50 10zM877 320l-20 13q-4 -5 -4 -11q0 -5 6 -5h13zM853 363q-3 -14 -5 -22.5l-6 -24.5q8 15 10 22.5t1 24.5zM381 834q-11 4 -22 5.5t-27 -0.5l42 -17zM656 556q-14 -7 -27.5 -11t-27.5 -6l-4 -7h8q12 2 24 4.5t24 6.5zM490 801
q-12 13 -26.5 10.5t-25.5 -9.5q-9 -8 -17 -18t-9 -24q-2 -17 -8 -27t-14 -18q-4 -5 -8 -8.5l-9 -7.5q-5 -5 -9 -10.5t-11 -16.5l26 17q17 10 29 21.5t16 32.5q10 19 28 35t38 23zM861 300q-2 5 -7 11t-11 5q-2 -7 0.5 -12t4.5 -8q5 -1 10 0q3 -3 3 1v3zM369 813q-8 2 -14 4
t-11 4t-12.5 3.5t-24.5 1.5l59 -18zM544 691q2 8 2 16q0 9 -5 19q-5 -11 -7 -21t-5 -19q-2 -8 -5.5 -16.5t-8.5 -14.5q-3 -4 -8 -6.5t-10 -1.5l18 27l-3 2q-7 -8 -16 -9.5t-20 0.5q1 -6 2 -11t3 -11q2 -7 -4 -9.5t-8 4.5q-2 6 -3 11.5l-2 11.5q0 3 1 6q-5 1 -12 1
q-3 -6 -3 -11q2 -3 0 -5l-35 -12q-2 -2 -2.5 -4.5t4.5 -4.5q9 6 18.5 4.5t18.5 -5l18.5 -7t19.5 -1.5q15 3 24.5 13t16.5 25q2 6 5.5 13.5t5.5 15.5zM763 380q3 19 -1 35.5t-9 32.5l-10.5 30.5t-5.5 32.5h-4q-2 -12 -1 -24t6 -24q16 -35 14 -73.5t-24 -66.5l4 -15l3 -3
q8 8 12 16.5t7 18.5t5 20zM500 695q-26 0 -44.5 -7.5t-30.5 -15.5l-6 -8zM859 279l-15 11q-5 -11 1 -15q3 -1 5 -1.5t5 -0.5l1 1v-1q1 0 2 0.5t1 5.5zM360 797q-8 1 -15.5 3l-15.5 4q-7 2 -15 4t-25 2l68 -19zM351 781l-21 -2l18 -4zM651 533q-16 -7 -31 -11t-31 -6l-4 -7
h10q-3 -1 -11 -3q-5 -8 -9 -16l-8 -16l36 4q-11 2 -13 2t-2 1q-1 3 -1 7q11 8 25 8q15 0 31 -2l3 14l-28 -2q0 1 -0.5 1.5t-0.5 1.5l1 3q8 2 15 4t16 4zM719 421l-21 -40l1 -5h4q19 14 16 45zM332 781l-44 14q-4 -3 -6 -6.5t3 -5.5l46 -6zM827 387v-51q-9 -41 -29.5 -69.5
t-49.5 -54.5h8h2q10 8 18.5 14t16.5 15q19 23 31.5 60t2.5 86zM337 763l-39 2v-4l27 -5zM840 248l-10 11q-5 1 -10 -4l-1 -2l-2 -14q3 -3 7 -3h6q-3 3 -3.5 4t-1.5 2q4 2 7.5 1t7.5 5zM745 405l-62 -119l3 -6q22 26 38.5 53.5t20.5 71.5zM636 462q-20 1 -38.5 -0.5
t-36.5 0.5l-6 -11q20 -5 38 -9t38 -7l4 17l-17.5 -2t-16.5 -1q6 4 14.5 4.5t19.5 -1.5zM628 422q-11 0 -16 1v-4l15 -2zM308 748l-30 2v-4l17 -4zM560 434l-12 3l-3 -5l15 -2v4zM625 406q-23 -1 -45 2t-43 8q-5 -8 2 -12l83 -11zM269 729q-8 2 -13.5 2.5t-12.5 2.5v-3
q-2 -2 -2.5 -5.5t4.5 -3.5l14 -2l3.5 3.5t6.5 5.5zM802 371q-11 -13 -14 -25.5t-5 -25.5l-4 -24t-9 -23q-16 -18 -32 -31.5t-33 -18.5l32 27l-3 3q-12 -10 -26.5 -17.5t-28.5 -15.5q-5 -5 -11.5 -10.5t-12.5 -12.5q-7 -6 -11.5 -13.5t-5.5 -18.5l33 35h1l-29 -42l1 -3l3 -3
q12 17 25.5 28t27.5 20l29.5 19.5t27.5 21.5q14 11 21.5 25t11.5 31t6 34.5t6 39.5zM804 205v5q-9 -7 -20 -14.5l-23 -15.5l2 -3l4 1q11 5 21 10.5t16 16.5zM414 682l-23 -1q-40 -18 -55 -67q2 -29 -4.5 -59t-16.5 -57l4 -1q3 8 7.5 18.5t8.5 21.5q5 12 7.5 24.5t1.5 25.5
q2 23 16 40.5t30 32.5q5 5 10.5 9.5t13.5 12.5zM254 707l-25 -4l24 -1zM597 380q-14 2 -31 3.5t-29 10.5q-5 -2 -7 -3.5t-2 -7.5l59 -13q7 0 10 10zM252 694l-22 -8l21 -2zM677 335l-4 2q-10 -19 -26 -26t-34 -12q-19 -4 -36 -9.5t-29 -22.5q3 -3 7 -3q17 8 34 12.5t34 11.5
q17 6 31.5 16.5t22.5 30.5zM774 201l-95 -25q-3 -5 1 -8l3 -1h13q10 2 20 3.5t20 4.5t19 8.5t19 17.5zM733 290q-18 -13 -27.5 -18.5t-17.5 -9.5q-8 -5 -15.5 -8.5t-15.5 -8.5q-16 -9 -31 -25.5t-20 -36.5l1 -7q4 6 5 7l5 4q10 18 23 29.5t27 20.5l14.5 9t13.5 9t15 11.5
t23 23.5zM575 357l-61 7l-1 -4l50 -12q8 2 12 9zM407 408q2 26 -7 43t-22 26q-9 10 -12.5 23t-2.5 26t3.5 26.5t5.5 25.5q2 9 3.5 18.5t1.5 21.5q-8 -9 -12.5 -17t-6.5 -16q-3 -8 -5 -17t-4 -19q-5 -25 1 -42t17 -31q5 -7 10.5 -13t10.5 -14q5 -7 9.5 -15.5t9.5 -25.5z
M247 657q-9 -3 -11 -3q-2 -1 -7 -1h-19l35 -8zM526 335q2 2 -1 6l-13 6q-3 -2 -4.5 -3.5t0.5 -6.5l13 -3q3 -4 5 1zM343 677q-8 2 -12 1.5t-6 -2.5t-4 -3.5t-4 -2.5q-14 -13 -18 -29.5t-2 -35.5q1 -18 4 -36.5t2 -37.5q-8 -31 -26.5 -47t-38.5 -29l2 -4q6 4 12.5 7l14.5 7
q16 10 28 23q11 13 16 30t6.5 35t0.5 36t-2 34q2 17 6 31.5t21 22.5zM244 637l-45 -6l42 -5zM239 616l-18 -3l16 -5zM509 324q-5 3 -7 3q-4 -2 -6.5 -3t-0.5 -7h7q7 0 7 7zM388 414v8q-2 22 -13 37t-28 26v-10q2 -6 7.5 -11.5l10.5 -10.5q8 -7 13.5 -17.5t5.5 -21.5h4z
M234 599l-30 -4q-4 -7 0 -7l1 -2l23 -4q2 4 3 8t3 9zM647 278q-18 -5 -30 -8t-22 -7q-11 -4 -20 -9.5t-16 -14.5q-17 -14 -27 -34.5t-11 -46.5q9 4 10 10t4 14q3 16 10.5 27t17.5 19t22 14.5l24 12.5l16.5 8.5t21.5 14.5zM488 310q-4 0 -10 -3l2 -4q5 -4 7 0t1 7zM548 301
l-1 3q-13 -1 -25 -6t-21 -16q-8 -8 -11 -19t2 -25q2 -7 7.5 -11t12.5 -4q2 0 5.5 2t3.5 6q-4 10 -6.5 18.5t-2.5 19.5q3 15 13 21.5t23 10.5zM222 569l-24 -8l19 -2zM456 372q-21 0 -35 1t-26 9q-20 12 -44.5 13t-44.5 -13v-2q-2 -2 -3 -4t2 -5q5 0 9 4l4 3q2 2 4 3
q13 5 24 1.5t21.5 -9.5t22 -11.5t24.5 -4.5zM468 280q-7 7 -12 -3q5 -1 9 -1zM352 407l-1 4l-32 -10v-7zM480 365q-18 -32 -35 -36t-37 1l-39.5 8t-38.5 -6q-6 -4 -13.5 -10.5t-7.5 -15.5q4 -4 9 -2l2 1h2q-2 -4 -5 -6.5t-4 -7.5l2 -6q17 17 38 19.5t47 2.5q-13 9 -23 11
t-19 0q-8 -2 -15 -3.5t-13 -3.5v1q11 9 23.5 10.5t26.5 -0.5q15 -2 30 -5t29 -4q14 4 23.5 15t17.5 37zM415 342q-20 7 -28 11t-15 9q-27 13 -51.5 3t-41.5 -31l3 -3q12 2 19 8.5t16 13.5q7 5 14.5 6t15.5 0t15.5 -4t14.5 -5q5 -2 12 -4t26 -4zM340 465l-26 -52l-5 -5l-5 -4
q-3 -4 -11 -8q-15 -7 -27 -20.5t-12 -34.5q3 -4 4 -5t6 -3q3 23 13.5 34.5t26.5 25.5q14 11 25 26t11 46zM465 259q1 6 0 12q-28 -8 -57 1q-4 0 -9 -0.5t-20 -2.5l82 -10h4zM470 226q2 4 1.5 6t-2.5 6l-78 -17q8 -2 9.5 -2.5t2.5 -0.5l2 -1h1zM467 243q2 6 0 11q-9 0 -17 -2
t-16 -3q-12 -3 -24.5 -1.5t-24.5 4.5t-24.5 5.5t-24.5 2.5q-7 -5 -1 -8q21 -8 43 -11.5t43 -1.5zM322 350l-14 -14t-5 -4l-9 -6q-5 -5 -9.5 -11.5t-2.5 -15.5l5 -4zM594 621q2 8 2 16q0 9 -5 19q-5 -11 -7 -21t-5 -19q-2 -8 -5.5 -16.5t-8.5 -14.5q-3 -4 -8 -6.5t-10 -1.5
l18 27l-3 2q-7 -8 -16 -9.5t-20 0.5q1 -6 2 -11t3 -11q2 -7 -4 -9.5t-8 4.5q-2 6 -3 11.5l-2 11.5q0 3 1 6q-5 1 -12 1q-3 -6 -3 -11q2 -3 0 -5l-35 -12q-2 -2 -2.5 -4.5t4.5 -4.5q9 6 18.5 4.5t18.5 -5l18.5 -7t19.5 -1.5q15 3 24.5 13t16.5 25q2 6 5.5 13.5t5.5 15.5z" />
    <glyph glyph-name="b" unicode="b" horiz-adv-x="1455" 
d="M399 910l-97 18l-152 -10l-44 -25l-53 -63v-107l53 -97l89 -88v-142l61 -142l63 -80l65 -44q10 -31 27 -57.5t41 -46t55 -30.5t68 -11q26 0 44 7t31 18l103 -9l108 23l142 70l141 160l19 53l26 26l89 18l89 45l54 61l-10 72l-106 87l-72 36l-79 10l-89 142l-133 114
l-98 54l-98 27l-177 -17zM754 298h329l53 17l-17 -37l-81 -113l-97 -80l-142 -53h-98v17l-10 21q6 13 12.5 25.5t15.5 23.5q3 4 2 8.5t-4.5 7t-8.5 2.5q-4 0 -7 -4q-13 -17 -22 -37l-40 87l-9 71l53 61zM426 893l142 61l79 9l10 -45l62 -150l-27 -53l-88 -89l-143 71l-70 71
l-36 71zM923 715l-80 186v35l80 -43l132 -117l72 -141v-72l-8 -8l-187 -17l-125 17l116 133v27zM289 247l-63 142l-13 131l89 -63l168 -79l-36 -35l-35 -53l62 -188l-57 40q-1 2 -1 4q0 3 -1 5q-2 6 -7.5 7t-10.5 -2l-41 30zM453 236l-9 71l71 61l132 -43l-25 -27l-36 -72
l70 -174q-2 -4 -4.5 -7.5t-5.5 -6.5l-149 47v27zM764 183q8 23 -1.5 45t-31.5 30q-23 9 -45 -0.5t-30 -32.5q-9 -23 0.5 -45t32.5 -30t44.5 1t30.5 32zM390 327q9 23 -0.5 44.5t-32.5 30.5q-23 8 -44.5 -1.5t-30.5 -32.5q-8 -23 1.5 -44.5t32.5 -30.5q22 -8 44 1.5t30 32.5z
M575 7q-57 0 -96.5 27.5t-61.5 73.5l63 -41l137 -52q-19 -8 -42 -8zM361 322q-4 -11 -14 -16t-21 0q-11 4 -16 14.5t0 21.5q4 11 14.5 15.5t21.5 0.5q11 -5 15.5 -15t-0.5 -21zM735 178q-5 -11 -15 -15.5t-21 -0.5q-11 5 -15.5 15t-0.5 21q5 11 15 16t21 0q11 -4 15.5 -14.5
t0.5 -21.5z" />
    <glyph glyph-name="c" unicode="c" horiz-adv-x="1380" 
d="M396 920l-55 -45l-152 -9l-71 -27l-35 -18l-34 -44l-2 -81l44 -71l98 -79l28 -153l61 -163l89 -107l125 -89l108 -33l205 18l134 59l89 75l89 133l134 28l35 8l54 71v63l-63 62l-80 36l-27 27l-8 71l-63 134l-143 134l-133 53l-143 26l-142 -8zM902 821v28l10 61l62 -35
l98 -98l-27 -18l-71 -9zM475 938l35 18l214 17l36 -9l107 -35l10 -125l88 -80l44 -10l82 36l8 -8l45 -107l14 -172l-54 -7l-115 6l-33 92l-62 63l-81 8l-71 -61l-18 -46l-241 89l-159 82l-54 53l36 44l25 -18l108 -9l53 36l18 62zM86 787l93 52l135 18l-62 -80l-9 -63
l35 -35l242 -125l329 -107l313 -27l26 19l-12 89l48 -10l88 -62l10 -53l-57 -53l-77 -28l-97 -8l-148 15l-359 70l-198 84l-151 71l-108 81l-53 71zM324 821l43 54l82 45l17 -28l9 -61l-36 -36l-72 -9zM760 126l36 45h63l61 -63l-43 -35l-125 -36v27zM261 367l-9 9l-35 160
l61 -44l161 -63l27 -79l62 -64l87 7l47 29l8 28h28l162 -40l231 -32l-108 -125l-35 -17l-28 25l-43 36h-99l-53 -53l-9 -116h-125l-99 44l-125 89l46 107l-53 99h-99zM278 304v36h53l29 -26l17 -54l-27 -71l-9 8zM1116 530q7 23 -5 44t-35 28t-43.5 -5t-27.5 -35t4.5 -44
t34.5 -27q23 -7 44 4.5t28 34.5zM732 641q7 23 -5 44t-35 27q-23 7 -44 -4.5t-28 -34.5t5 -44t35 -28t44 5t28 35zM1088 523q-3 -11 -13.5 -16.5t-21.5 -2.5t-16.5 13t-2.5 21q4 11 14 16.5t21 2.5t16.5 -13t2.5 -21zM703 633q-3 -11 -13 -16.5t-21 -2.5t-16.5 13t-2.5 21
t13 17t21 2q11 -3 16.5 -13t2.5 -21zM783 269q3 4 2 8.5t-4.5 7t-8.5 2.5q-4 0 -7 -4q-15 -20 -24.5 -42t-21 -40.5t-29.5 -31t-51 -12.5q-69 0 -112.5 40.5t-60.5 103.5q-2 5 -6 7t-8 0.5t-7 -5t-1 -8.5q9 -34 26 -63t41.5 -50.5t56.5 -34t71 -12.5t61.5 15t36.5 37
q13 20 22 41.5t24 40.5z" />
    <glyph glyph-name="d" unicode="d" horiz-adv-x="1376" 
d="M423 937l-90 26h-162l-71 -36l-45 -54l8 -72l45 -80l73 -72l-18 -36l8 -172l46 -152l80 -126l126 -108l126 -54l171 9l135 45l81 45l181 161l125 10l72 36l27 53l-27 45l-99 72l-45 19l-82 233l-80 117l-153 117l-90 27l-142 9zM954 667v89l36 55l81 -118l54 -152v-100
l-152 12l8 47l9 85zM837 747l27 64l63 72l46 -36l-55 -72l-9 -72l36 -90l9 -82l-18 -72l-99 37l10 9l26 90l-26 72zM783 873l28 72h17l63 -37l-63 -80l-27 -117l18 -54l9 -89l-36 -64l-251 135l8 10v8l64 82h116l36 35zM657 891l18 82h18l82 -10v-18l-10 -8l-19 -91l-43 -72
h-82l-44 -18l-64 -89l-73 44l29 28l53 80l63 17zM351 855l136 82l162 36l-18 -46l-46 -54l-63 -18l-53 -44l-46 -64l-36 36l-45 63zM765 207l82 72l8 28l45 -18l162 -28l-81 -89l-108 -80l-117 -46l-17 135zM631 225l98 118h17l73 -36l-99 -90l-17 -54l17 -126l-89 -17
l-18 134zM734 269q-15 -19 -24 -40.5t-22 -41.5q-14 -22 -36.5 -37t-61.5 -15t-71 12.5t-56.5 34t-41.5 50.5t-26 63q-2 5 1 8.5t7 5t8 -0.5t6 -7q17 -63 60.5 -103.5t112.5 -40.5q33 0 51 12.5t29.5 31t21 40.5t24.5 42q3 4 7 4q5 0 8.5 -2.5t4.5 -7t-2 -8.5zM279 432
l-72 -35l-8 234l143 -100l-45 -99h-18zM225 360l109 64l44 89l72 -44l-9 -54l-18 -46l-81 -36l-80 -72l-37 64v35zM1109 502q7 23 -4.5 44t-34.5 28t-44 -5t-28 -35t5 -44t35 -27q23 -7 44 4.5t27 34.5zM725 613q7 23 -5 44t-35 27q-23 7 -44 -4.5t-28 -34.5q-6 -23 5.5 -44
t34.5 -28t44 5t28 35zM1081 495q-3 -11 -13 -16.5t-21 -2.5t-16.5 13t-2.5 21t13 16.5t21 2.5t16.5 -13t2.5 -21zM697 605q-4 -11 -14 -16.5t-21 -2.5t-16.5 13t-2.5 21t13.5 17t21.5 2q11 -3 16.5 -13t2.5 -21z" />
    <glyph glyph-name="e" unicode="e" horiz-adv-x="1533" 
d="M467 920l-120 -122l-37 -55l-29 -27l-175 -19l-66 -37v-74l75 -75l84 -36l18 -20l64 -185l93 -111l149 -111l159 -47l239 18l157 74l93 111l66 131l138 19l65 27l57 57v45l-93 74l-84 37l-56 10l-83 157l-131 148l-139 66l-129 24l-185 -15zM541 928l102 37l149 10
l46 -10l102 -27l121 -74l102 -121l74 -157l9 -117l-317 -29l-432 70l-168 57l-56 46l56 120l129 150zM59 641l28 19l186 37l-18 -37l-10 -74l65 -47l157 -56l454 -74l325 29l37 26v29l-9 83l37 -9l111 -56l56 -56l-47 -55l-120 -37l-492 -11l-99 14l-401 80l-149 65l-101 75
zM911 189q-15 -19 -24 -40.5t-22 -41.5q-14 -22 -36.5 -37t-61.5 -15t-71 12.5t-56.5 34t-41.5 50.5t-26 63q-2 5 1 8.5t7 5t8 -0.5t6 -7q17 -63 60.5 -103.5t112.5 -40.5q33 0 51 12.5t29.5 31t21 40.5t24.5 42q3 4 7 4q5 0 8.5 -2.5t4.5 -7t-2 -8.5zM1056 510
q6 23 -5.5 44t-34.5 28t-44 -5t-28 -35t5 -44t35 -27q23 -7 44 4.5t28 34.5zM671 621q7 23 -5 44t-35 27q-23 7 -44 -4.5t-27 -34.5q-7 -23 4.5 -44t34.5 -28t44 5t28 35zM1027 503q-3 -11 -13 -16.5t-21 -2.5t-16.5 13t-2.5 21t13 16.5t21 2.5t16.5 -13t2.5 -21zM643 613
q-4 -11 -14 -16.5t-21 -2.5t-16.5 13t-2.5 21q4 11 14 17t21 2q11 -3 16.5 -13t2.5 -21z" />
    <glyph glyph-name="f" unicode="f" horiz-adv-x="1067" 
d="M699 339q3 4 2 8.5t-4.5 7t-8.5 2.5q-4 0 -7 -4q-15 -20 -24.5 -42t-21 -40.5t-29.5 -31t-51 -12.5q-69 0 -112.5 40.5t-60.5 103.5q-2 5 -6 7t-8 0.5t-7 -5t-1 -8.5q9 -34 26 -63t41.5 -50.5t56.5 -34t71 -12.5t61.5 15t36.5 37q13 20 22 41.5t24 40.5zM782 470
q7 23 -5 44t-35 28t-44 -5t-28 -35t5 -44t35 -27q23 -7 44 4.5t28 34.5zM753 463q-3 -11 -13 -16.5t-21 -2.5t-16.5 13t-2.5 21t13 16.5t21 2.5t17 -13t2 -21zM397 581q7 23 -5 44t-35 27q-23 7 -43.5 -4.5t-27.5 -34.5t4.5 -44t34.5 -28t44 5t28 35zM369 573
q-3 -11 -13 -16.5t-21 -2.5t-17 13t-3 21q4 11 14 17t21 2q11 -3 16.5 -13t2.5 -21zM309 941l-10 -111l24 -83l-20 -28l-64 12l-88 11l-75 -23l-51 -44l16 -73l73 -64l73 -35l11 -75l69 -140l82 -82l93 -41l117 -5l40 -70l76 -71l58 -18l24 6l23 30l12 65l-12 58l-35 69
l69 88l66 -12h87l46 23l30 41l-6 64l-17 30l-100 58l-59 23l-47 111l-57 70l-88 64l-87 23h-47l-23 45l-46 84l-52 46l-26 12l-51 -12zM850 392v17l18 54l23 -7l64 -14l6 -38l-12 -12h-99zM378 859v52h18l18 -17l40 -88l-54 -17l-14 30zM408 771l58 18l81 12l93 -18l58 -29
l88 -81l54 -113l14 -92l-29 -71l-220 43l-70 19l-23 44zM70 695l29 18l93 12l93 -18l-23 -29l-54 6h-68l-41 -29l-6 -35l18 -17l93 -47l221 -82l58 -20l304 -71l174 -12l23 33v24l-23 23l-93 35l-7 40l82 -34l65 -40l23 -77l-36 -44l-36 -8h-103l-303 69l-184 59l-241 99
l-70 64l-6 59zM635 188l-50 101l-26 86l227 -58l-18 -36l-47 -56zM233 566l34 89l70 70l53 -152l24 -70l-129 41zM665 120l-25 46l53 22l12 -23l13 -50l-15 -13zM122 649l18 12l50 6l61 -3l-12 -21l-24 -64h-17l-82 47v17zM285 293l-70 129l-6 70l233 -88l12 -12v-6l88 -209
h-18l-88 6l-75 35z" />
    <glyph glyph-name="g" unicode="g" horiz-adv-x="1615" 
d="M973 230q7 23 -5 44t-35 28t-44 -5t-28 -35q-6 -23 5.5 -44t34.5 -27q23 -7 44 4.5t28 34.5zM945 223q-4 -11 -14 -16.5t-21 -2.5t-16.5 13t-2.5 21t13.5 16.5t21.5 2.5t16.5 -13t2.5 -21zM588 341q7 23 -4.5 44t-34.5 27q-23 7 -44 -4.5t-28 -34.5t5 -44t35 -28t44 5
t27 35zM560 333q-3 -11 -13 -16.5t-21 -2.5t-16.5 13t-2.5 21t13 17t21 2q11 -3 16.5 -13t2.5 -21zM855 139q3 4 2 8.5t-4.5 7t-8.5 2.5q-4 0 -7 -4q-15 -20 -24.5 -42t-21 -40.5t-29.5 -31t-51 -12.5q-69 0 -112.5 40.5t-60.5 103.5q-2 5 -6 7t-8 0.5t-7 -5t-1 -8.5
q9 -34 26 -63t41.5 -50.5t56.5 -34t71 -12.5t61.5 15t36.5 37q13 20 22 41.5t24 40.5zM486 928l-52 -4l-135 31l-178 -9l-54 -26l-17 -46l7 -79l54 -72l134 -88l26 -20l-15 -43l-11 -72l27 -178l53 -98l125 -124h9l18 -18l133 -63l117 -17l142 9l183 67l174 182l17 72l222 8
l81 36l36 63l-36 79l-125 99l-195 89l-81 125l-115 106l-90 45l-71 17l-214 -8zM486 902l190 65l193 6l125 -45l89 -71l98 -115l42 -83l-7 -105l-151 9l-410 104l-241 120l9 44zM210 813l27 41l97 -6l54 -10l-18 -52l18 -18l54 -35l240 -98l312 -90l222 -27l45 36v18
l120 -43l39 -58l-29 -24h-111l-403 71l-356 117l-249 115zM281 403v169l18 36l285 -108l356 -106l250 -45l18 -17l-9 -45l-72 -97l-115 -100l-179 -61h-98l-80 8l-152 63l-124 107l-63 89z" />
    <glyph glyph-name="h" unicode="h" horiz-adv-x="1533" 
d="M1493 586v74l-66 37l-176 19l-28 27l-37 55l-120 122l-130 64l-185 15l-130 -24l-138 -66l-131 -148l-83 -157l-56 -10l-84 -37l-93 -74v-45l56 -57l66 -27l138 -19l65 -131l93 -111l157 -74l240 -18l160 47l148 111l92 111l65 185l18 20l84 36zM1041 530
q-6 -23 -27 -34.5t-44 -4.5q-23 6 -35 27t-5 44t28 35t44 5t34.5 -28t4.5 -44zM1474 641l-10 -55l-101 -75l-149 -65l-401 -80l-99 -14l-492 11l-120 37l-47 55l55 56l112 56l36 9l-8 -83v-29l37 -26l324 -29l455 74l157 56l65 47l-9 74l-20 37l186 -37zM657 641
q-7 -23 -28 -35t-44 -5t-34.5 28t-5.5 44q7 23 28 34.5t44 4.5q23 -6 35 -27t5 -44zM826 218q-2 -3 -10 -13t-19 -20t-22 -18t-18 -8q-25 0 -64.5 9.5t-77.5 27.5t-67.5 43.5t-34.5 56.5q-1 6 2 9t7 4t8 -1.5t5 -7.5q4 -26 32 -48t63 -38t70.5 -24.5t56.5 -8.5q1 0 8.5 6
t16 14t16 16t9.5 11q3 5 7 5.5t7.5 -1.5t5.5 -6t-1 -8zM1013 523q3 11 -2.5 21t-16.5 13t-21 -2.5t-13 -16.5t2.5 -21t16.5 -13t21 2.5t13 16.5zM629 633q3 11 -2.5 21t-16.5 13q-11 4 -21.5 -2t-13.5 -17t2.5 -21t16.5 -13t21 2.5t14 16.5z" />
    <glyph glyph-name="i" unicode="i" horiz-adv-x="766" 
d="M653 370q7 23 -5 44t-35 28t-44 -5t-28 -35q-6 -23 5.5 -44t34.5 -27q23 -7 44 4.5t28 34.5zM625 363q-4 -11 -14 -16.5t-21 -2.5t-16.5 13t-2.5 21t13.5 16.5t21.5 2.5t16.5 -13t2.5 -21zM268 481q7 23 -4.5 44t-34.5 27q-23 7 -44 -4.5t-28 -34.5t5 -44t35 -28t44 5
t27 35zM240 473q-3 -11 -13 -16.5t-21 -2.5t-16.5 13t-2.5 21t13 17t21 2q11 -3 16.5 -13t2.5 -21zM429 290q4 5 -1 8.5t-8 -1.5q-8 -10 -13 -21.5t-11 -21.5t-15.5 -16.5t-26.5 -6.5q-37 0 -60 21.5t-31 53.5q-2 6 -7.5 4.5t-3.5 -6.5q9 -36 34.5 -60t67.5 -24
q20 0 31.5 7.5t19.5 19.5q7 10 11.5 21.5t12.5 21.5zM153 924l4 -32l19 -30l21 -7l22 -131l-71 -77l-37 -102v-23l-19 -18l-29 -38l-35 -55l-4 -30l22 -35l56 -13l51 1l57 -63l70 -41l105 -30h72l14 7l15 -10l40 -60l35 -62l11 -13l27 -9l46 21l5 25l-19 42l-16 10l-15 32
l-12 73l10 27l26 29l52 131l6 59l-8 41l17 23l33 40l12 56l-19 41l-34 13l-41 -8l-35 -11l-62 38l-109 40l-80 2l-9 -4l-40 38l-55 70l15 40l-24 40l-48 5l-25 -17zM167 908l5 24l30 20l29 -2l24 -28l-9 -27l-30 -20l-32 7zM125 540l36 101l59 67l50 -10l60 28l33 37l28 2
l100 -21l85 -50l53 -54l-91 -70l-141 -72l-227 -54l-42 2l-6 25zM197 299l-26 32l9 4l168 39l182 80l125 79l10 -56l-25 -102l-48 -78l-21 -15l-31 3l-40 -20l-29 -47l-15 -1l-17 -3l-63 5l-86 27zM492 211l9 27l40 24l29 -3l25 -101l-14 -6l-30 -21z" />
    <glyph glyph-name="j" unicode="j" horiz-adv-x="1826" 
d="M1792 389v74l-29 56l-101 82l-203 74l-66 10h-26l-55 111l-130 119l-157 65l-119 19l-168 -19l-138 -65l-82 -65l-290 27l-136 -27l-54 -54v-102l110 -111l231 -101l54 -148l85 -139l119 -110l120 -65l138 -18l157 18l83 38l130 81l92 121v18l42 10l263 9l74 27z
M1589 491l-28 -28h-157v28l-11 74h29l56 -9l100 -37zM1375 463h-55l-176 19l-119 18l-323 46l-258 65l-19 19l27 92l93 119l83 66l139 45l175 19l92 -19l148 -73l119 -121l38 -73l18 -120zM1335 302l-52 -107l-101 -83l-166 -73h-232l-119 55l-139 138l-64 102l-47 129h18
l213 -64l278 -56zM433 749l-45 -119l-55 8l-111 46v38l8 9l29 18l120 9zM1129 631q0 24 -17 41t-41 17t-41 -17t-17 -41t17 -41t41 -17t41 17t17 41zM729 631q0 24 -17 41t-41 17t-41 -17t-17 -41t17 -41t41 -17t41 17t17 41zM1063 289q3 4 2 8.5t-4 7t-8 2.5q-4 0 -7 -4
q-15 -20 -24.5 -42t-21.5 -40.5t-30 -31t-51 -12.5q-69 0 -112.5 40.5t-60.5 103.5q-2 5 -6 7t-7.5 0.5t-6.5 -5t-1 -8.5q9 -34 26 -63t41 -50.5t56 -34t71 -12.5t61.5 15t36.5 37q13 20 22.5 41.5t23.5 40.5zM1104 616q0 -11 -8 -19.5t-20 -8.5q-11 0 -19 8.5t-8 19.5
t8 19.5t19 8.5q12 0 20 -8.5t8 -19.5zM704 616q0 -11 -8 -19.5t-20 -8.5q-11 0 -19 8.5t-8 19.5t8 19.5t19 8.5q12 0 20 -8.5t8 -19.5z" />
    <glyph glyph-name="k" unicode="k" horiz-adv-x="864" 
d="M193 899l34 -149l-77 -95l-35 -120l1 -26l-21 -22l-31 -47l-37 -66l-2 -35l28 -39l66 -10l58 4l71 -69l83 -43l123 -28l83 5l17 9l18 -10l50 -67l91 -90l14 11q-5 43 -8.5 69t-8 47t-10.5 44t-15 61l11 32l28 35l50 155l4 68l-12 48l18 28l35 47l11 66l-25 47l-40 12
l-47 -12l-40 -15l-75 40l-128 39l-92 -2l-11 -7l-48 42l-68 76l-71 67zM131 530l35 120l64 81l58 -9l68 37l35 45l32 4l117 -18l36 -19q-4 -1 -12 -5q-20 -12 -26.5 -35.5t5.5 -43.5q12 -21 35.5 -27.5t43.5 5.5q17 10 24.5 28.5t2.5 37.5l58 -51l-100 -87l-159 -93
l-259 -79l-48 1l-8 29zM655 378q1 23 -3 47t-2 47q0 10 -9 12l103 74l16 -65l-23 -119l-50 -94l-23 -19l-36 2l-45 -25l-30 -57l-18 -3l-19 -4l-74 2l-101 25l-111 55l-31 36l10 5l191 56l205 105l23 16q-3 -24 1 -48t4 -46t-8.5 -42t-36.5 -37q-29 -18 -59 -24t-58.5 -1.5
t-55.5 19t-51 36.5q-4 4 -8 3t-7 -4t-3.5 -7t3.5 -8q26 -24 56 -40t62 -21t65.5 1t66.5 27q33 20 44.5 45t11.5 51zM211 905l-5 51l37 -37l52 -59l62 -67l-9 -18l-58 -32l-45 9zM297 545q-12 20 -35 26.5t-44 -5.5t-27 -35.5t6 -43.5q12 -21 35 -27.5t44 5.5t27 35.5
t-6 44.5zM283 519q5 -10 2.5 -21t-12.5 -17q-11 -6 -22 -3t-16 13q-6 10 -3 21t13 17t21 3t17 -13zM629 719q6 -10 3 -21t-13 -17t-21 -3t-17 13q-5 10 -2.5 21t12.5 17q11 6 22 3t16 -13z" />
    <glyph glyph-name="l" unicode="l" horiz-adv-x="1017" 
d="M355 953v-61l34 -32l-22 -101l-105 -60l-54 27l-93 19l-53 -6l-14 -20l8 -59l53 -68l13 -13l-47 -106l-2 -143l62 -132l47 -72l100 -75l60 -26l154 -24l100 18l93 46l93 87l40 -20l100 7l27 27v40l-20 32l-80 74l13 41l-6 126l-13 34v27l59 86h54l26 26v74l-19 33l-34 13
l-46 -13l-34 -46v-27l-67 -40l-13 -13l-73 66l-120 54l-54 6h-20l-18 45l-1 62l32 32l-6 55l-34 33l-33 14l-60 -14zM755 592l34 41l67 33l27 -40l-67 -94h-21l-26 20zM289 699l100 40l133 6l34 -6l87 -33l112 -80l-19 -20v-40l40 -47l53 -20l14 -40l5 -101l-20 -42l5 -37
l-24 -6l-46 13l-174 79l-260 167l-107 107l13 21zM62 706l13 20l40 6l60 -13l68 -27l-48 -53l13 -27l174 -147l167 -106l233 -107l47 -7l27 41l40 -41l33 -39v-40l-19 -14h-88l-179 86l-187 121l-254 173l-127 128zM476 152q-23 -8 -42.5 -21t-41.5 -22q-24 -11 -51 -10.5
t-59 22.5t-52 50t-28 59.5t-6 65t14 66.5q2 5 6 6.5t8 0.5t6.5 -5t0.5 -9q-11 -30 -13 -60.5t5.5 -58.5t24.5 -53t46 -44q27 -18 49 -18t42.5 9t40.5 22t43 21q5 1 9 -1.5t5 -6t-0.5 -8t-6.5 -5.5zM740 396q12 20 5.5 43.5t-27.5 35.5q-20 12 -43.5 5.5t-35.5 -26.5
q-12 -21 -5.5 -44.5t26.5 -35.5q21 -12 44.5 -5.5t35.5 27.5zM393 596q12 20 6 43.5t-27 35.5t-44 5.5t-35 -26.5q-12 -21 -6 -44.5t27 -35.5t44 -5.5t35 27.5zM710 395q-5 -10 -16 -13t-22 3q-10 6 -12.5 17t2.5 21q6 10 17 13t21 -3t13 -16.5t-3 -21.5zM364 595
q-6 -10 -17 -13t-21 3t-13 17t3 21q5 10 16 13t22 -3q10 -6 12.5 -16.5t-2.5 -21.5z" />
    <glyph glyph-name="m" unicode="m" horiz-adv-x="1826" 
d="M1225 915l-139 65l-167 19l-119 -19l-157 -65l-129 -119l-56 -111h-27l-66 -10l-202 -74l-101 -82l-28 -56v-74l55 -65l74 -27l262 -9l44 -10v-18l92 -121l128 -81l83 -38l158 -18l138 18l120 65l119 110l84 139l56 148l230 101l111 111v102l-56 54l-136 27l-289 -27z
M1594 731l8 -9v-38l-110 -46l-55 -8l-46 119l56 9l119 -9zM1175 631q0 -24 -17 -41t-41 -17t-41 17t-17 41t17 41t41 17t41 -17t17 -41zM1741 804l19 -36l-10 -83l-73 -74l-203 -92l-296 -84l-148 -36l-665 -83l-229 18l-47 27l-38 74l19 56l111 92l111 47l157 36l-18 -65
l-166 -36l-65 -65l9 -28l56 -45h221l360 45l314 55l369 92l92 47l19 28l-19 64l-55 28l-193 -9l-18 38l-19 18l185 17l156 -9zM775 631q0 -24 -17 -41t-41 -17t-41 17t-17 41t17 41t41 17t41 -17t17 -41zM1049 249q-15 -19 -24 -40.5t-22 -41.5q-14 -22 -36.5 -37t-61.5 -15
t-71 12.5t-56.5 34t-41.5 50.5t-26 63q-2 10 8.5 13t13.5 -7q17 -63 60.5 -103.5t112.5 -40.5q33 0 51 12.5t30 31t21 40.5t24 42q3 4 7 4q5 0 8.5 -2.5t4.5 -7t-2 -8.5zM422 491v-28h-157l-29 28l11 28l100 37l56 9h28zM1150 616q0 11 -8.5 19.5t-19.5 8.5t-19.5 -8.5
t-8.5 -19.5t8.5 -19.5t19.5 -8.5t19.5 8.5t8.5 19.5zM750 616q0 11 -8.5 19.5t-19.5 8.5t-19.5 -8.5t-8.5 -19.5t8.5 -19.5t19.5 -8.5t19.5 8.5t8.5 19.5z" />
    <glyph glyph-name="n" unicode="n" horiz-adv-x="1294" 
d="M1072 937l-227 -125h-23l-103 53l-101 25l-219 -8l-102 -48l-23 -22l-78 22h-103l-47 -46l9 -79l23 -47l47 -54l-24 -78l16 -212l70 -132l133 -118l71 -39l78 -23l182 -5l131 67l102 94h132l32 16l31 30v71l-31 47l-54 39l11 100l-35 128l187 219l72 30l23 48l-17 62
l-6 16l-47 31l-71 -8zM788 441q0 30 -21.5 51.5t-51.5 21.5t-51.5 -21.5t-21.5 -51.5q0 -21 10 -37l-2 1l-244 156l-179 172l23 23l24 32l117 71l196 15l109 -24l117 -62l-15 -8l-8 -62l23 -63l63 -78l55 -24l24 7l16 -36l7 -57l-1 -68l-23 -73l-16 -24l-85 16l-121 52
q24 5 40 25t16 46zM284 441q0 11 -3 20l118 -88l210 -125l41 -17q-12 -19 -20.5 -39.5t-20 -37t-29.5 -27t-48 -10.5q-69 0 -112.5 40.5t-60.5 103.5q-2 5 -6 7t-7.5 0.5t-6.5 -5t-1 -8.5q9 -34 26 -63t41 -50.5t56 -34t71 -12.5t61.5 15t36.5 37q11 17 20 37.5t21 37.5
l88 -36l94 -24l-25 -23l-62 -56l-126 -63l-187 9l-117 54l-102 87l-54 70l-39 108l-16 189l15 48l71 -71q-30 0 -51.5 -21.5t-21.5 -51.5t21.5 -51.5t51.5 -21.5t51.5 21.5t21.5 51.5zM1104 944l22 31l47 8l47 -39l9 -62l-16 -32l-47 -8l-31 23l-16 32zM828 686l-15 63
l79 63l15 -56l16 -15l-7 -8l-79 -55zM963 733l31 31l47 31l38 -46l-15 -16l-31 -39h-23zM1033 842l-23 40l69 39l25 -47l-71 -40v8zM756 422q0 -14 -10 -24.5t-25 -10.5q-14 0 -24.5 10.5t-10.5 24.5t10.5 24.5t24.5 10.5q15 0 25 -10.5t10 -24.5zM252 422q0 -14 -10 -24.5
t-25 -10.5q-14 0 -24.5 10.5t-10.5 24.5t10.5 24.5t24.5 10.5q15 0 25 -10.5t10 -24.5z" />
    <glyph glyph-name="o" unicode="o" horiz-adv-x="986" 
d="M600 840l-57 160l-26 -37l-3 -116l-8 -62l-8 -43h-20l-52 -6l-118 -52l-71 -66l-13 14l-65 38l-129 63l3 -28l73 -93l58 -85v-26l-12 -33l-6 -124l13 -39l-79 -72l-19 -32v-39l26 -26l98 -7l39 19l91 -84l91 -46l97 -17l151 23l58 26l98 73l46 71l61 129l-2 139l-46 104
l13 13l52 66l7 58l-13 19l-52 7l-92 -19l-51 -26l-103 58zM757 239q3 4 2 8.5t-4 7t-8 2.5q-4 0 -7 -4q-15 -20 -24.5 -42t-21 -40.5t-29.5 -31t-51 -12.5q-67 0 -110.5 37t-61.5 97l108 63l293 216l13 13l33 -72l13 -78l-13 -92l-39 -97l-59 -78l-79 -65l-84 -33l-112 -19
l-98 17l-110 54l-58 58l173 102q10 -31 27 -57.5t41 -46t55 -30.5t68 -11q38 0 61 15t37 37q13 20 22 41.5t23 40.5zM340 524q-8 21 -28.5 31.5t-42.5 2.5v34l-19 20l110 78l85 32l33 7l130 -7l45 -18q-7 0 -14 -3q-23 -9 -32.5 -30.5t-1.5 -44.5q9 -23 30.5 -32.5
t44.5 -1.5q23 9 32.5 30.5t0.5 44.5q-4 9 -11 18l4 -1l53 -39l13 -21l-105 -104l-254 -163l-170 -78l-45 -13l-24 7l5 36l-19 41l4 99l14 38l50 19q-1 -10 4 -24q8 -22 30 -31.5t45 -1.5q23 9 32.5 30.5t0.5 44.5zM250 579l-13 -39l-26 -20h-20l-65 92l-72 94l163 -88z
M521 746l6 43l7 163l7 12l46 -135l25 -89h-8l-4 1h-4l-5 1h-10l-4 1h-4l-4 1h-9zM695 644q5 -11 0 -21t-16 -15q-11 -4 -21 0.5t-15 15.5q-4 11 0.5 21.5t15.5 14.5q11 5 21.5 0t14.5 -16zM322 501q4 -11 -0.5 -21t-15.5 -15q-11 -4 -21 0.5t-15 15.5q-4 11 0.5 21t15.5 15
q11 4 21 -0.5t15 -15.5z" />
    <glyph glyph-name="p" unicode="p" horiz-adv-x="1038" 
d="M613 993l-50 -50l-45 -89l-11 -45l-34 -11l-84 -18l-74 -45l-66 18l-82 8l-100 -19l-45 -46l8 -62l84 -72l67 -34l11 -78l22 -73l46 -84l39 -45l62 -51l6 -83l38 -85l40 -28h62l33 23l40 55l11 79v17l83 33l34 18l68 78l5 16l163 7l45 22l22 34v72l-17 29l-67 50l-118 39
l-50 96l-22 22l11 85l-6 145l-28 50l-44 22l-18 6zM596 787l23 67l33 38h11l11 -27v-56l-4 -56zM916 427l-6 -6l-72 -5l-6 84l28 -11l56 -45v-17zM534 568l23 78l17 67l22 56l45 -22l96 -73l39 -62l33 -101v-90l-50 6l-236 62v17l6 11zM41 680l11 22l46 28l94 17l40 -6
l67 -17l-17 -16l-22 -17l-50 17h-79l-17 -17v-34l22 -23l62 -38l180 -79l303 -96l134 -22l71 2l47 15v39l-34 34l-72 33l-7 34l45 -11l79 -39l50 -51l6 -45l-24 -54l-42 -20l-144 -1l-289 86l-275 101l-45 23l-72 39l-63 62zM315 719l79 45l45 16l56 7l-48 -169l-11.5 -40
t-10 -37t-4.5 -16l-49 14l-135 62l17 45zM131 669v11l11 11h34l78 -17l-18 -28l-15 -39l-34 16zM468 74l-11 11v73l66 6l-11 -50l-28 -40h-16zM472 277l23 128l101 -34l174 -44l-44 -63l-56 -44l-101 -34h-79l-33 6l11 63q16 -5 32 -9l32 -8q5 -1 8.5 2t4.5 7t-1 8t-8 5
q-16 3 -31.5 7.5zM316 347q-9 6 -15 -3t3 -15q15 -10 31 -18.5t33 -16.5l-12 -68l-46 33l-50 61l-50 124v67l50 -22l134 -51v-17l-11 -38l-11 -67l-29 15.5t-27 15.5zM775 491q8 23 -3 44t-34 29t-44 -3t-29 -34q-4 -12 -3 -23.5t6.5 -21.5t14 -17.5t19.5 -10.5q23 -8 44 3
t29 34zM747 484q-4 -11 -14 -16t-21 -1q-11 3 -16.5 13.5t-1.5 21.5t14 16t21 1q11 -3 16 -13.5t2 -21.5zM395 614q7 23 -4 44.5t-33 29.5q-23 7 -44.5 -4t-28.5 -34q-8 -23 3 -44t34 -29t44 3t29 34zM366 608q-4 -11 -14 -16.5t-21 -1.5t-16 14t-2 21q4 11 14 16.5t21 1.5
t16.5 -14t1.5 -21z" />
    <glyph glyph-name="q" unicode="q" horiz-adv-x="1314" 
d="M207 964l-165 35l73 -168l193 -229l-32 -123l12 -103l-56 -40l-32 -48v-73l32 -32l33 -17h136l105 -96l135 -69l187 5l81 24l72 40l137 122l72 135l16 218l-23 81l48 56l24 49l8 80l-48 48h-105l-81 -23l-24 23l-105 49l-225 9l-105 -26l-105 -55h-23zM1029 811l24 -33
l24 -23l-184 -177l-251 -161l-209 -90l-88 -16l-16 25l-24 74l-1 71l8 59l16 37l24 -7l57 24l65 80l23 65l-23 72l120 65l113 24l202 -16zM1165 358l-40 -111l-55 -72l-105 -89l-121 -56l-192 -10l-130 66l-64 57l-25 23l97 26l153 63l217 130l193 145l73 72l17 -49
l-13 -140q-6 16 -18 26q-19 15 -42.5 13t-39.5 -21q-15 -18 -13 -42t20 -39q19 -16 43 -14t39 21l6 9v-8zM68 975l129 -26l116 -67l114 -66l37 -23l15 -52l-21 -48l-18 -42v-1l-10 -10l-37 -34l-16 -4l-36 -8l-13 26l-191 218zM853 614q15 19 13 42.5t-20 39.5
q-19 15 -43 13t-39 -20q-16 -19 -14 -43t21 -39q19 -16 42.5 -14t39.5 21zM941 181q-14 -19 -23 -41t-23 -42q-14 -22 -36.5 -36.5t-61.5 -14.5t-71 12t-56 33.5t-41 51t-26 63.5q-2 5 1 8.5t6.5 5t7.5 -0.5t6 -7q17 -63 60.5 -103.5t112.5 -40.5q33 0 51 12.5t30 31
t21.5 40.5t24.5 41q3 4 7.5 4.5t7.5 -2t4 -7t-2 -8.5zM824 619q-8 -9 -19.5 -10.5t-19.5 6.5q-9 8 -10.5 19.5t6.5 19.5q8 9 19.5 10.5t19.5 -6.5q9 -8 10.5 -19.5t-6.5 -19.5zM1130 362q-8 -9 -19 -10.5t-20 6.5t-10 19.5t7 19.5q8 9 19 10.5t20 -6.5q8 -8 9.5 -19.5
t-6.5 -19.5z" />
    <glyph glyph-name="r" unicode="r" horiz-adv-x="789" 
d="M584 630q-14 20 -37 24.5t-43 -9.5t-25 -37t9 -43t37 -25t43 9t25 37.5t-9 43.5zM571 603q7 -10 5 -21t-12 -17q-10 -7 -21 -5t-17 12q-7 10 -5 21t12 18q10 6 21 4t17 -12zM511 310q5 6 -1 11t-11 -1q-11 -14 -17 -29t-14.5 -28t-21 -21.5t-34.5 -8.5q-48 0 -78 28
t-41 71q-2 8 -9.5 6t-5.5 -10q13 -47 46.5 -78.5t87.5 -31.5q27 0 42.5 10.5t25.5 25.5q8 14 14.5 28.5t16.5 27.5zM252 406q-13 20 -36.5 25t-43.5 -9t-25 -37.5t9 -43.5t37.5 -24.5t43.5 9.5q20 13 24.5 36.5t-9.5 43.5zM240 379q6 -9 4 -20t-12 -18q-9 -7 -20.5 -4.5
t-17.5 11.5q-7 10 -4.5 21t11.5 18q10 7 21 4.5t18 -12.5zM408 973l6 -33l27 -27l26 -2l1 -31l-16 -81l-65 5l-66 -5l-81 -27l-54 -27l-22 10l-97 -5l-28 -17l-5 -16v-37l26 -55l17 -16l-17 -65l11 -136l61 -125l59 -54v-87l27 -60l44 -43l32 -10h38l38 -28l38 10l17 22
l-6 44l-27 27h-49l-27 -16l-32 49v49l10 10l48 -4l99 -1l81 33l87 84l23 -2l101 -3l33 33l-11 51l-26 43l-50 43l-16 11l-5 70l-22 76l-27 50l-71 75l11 33v87l-22 59l-65 66l-43 -6zM425 978l10 11h17l16 -11l5 -33l-11 -16h-10l-22 11zM207 739l103 43l75 8l50 -5l-5 -40
l38 -33l54 -6l11 11l5 16l54 -53l44 -87l16 -120l-10 -73l-98 24l-130 49l-185 109l-71 65l-10 38l21 21zM93 392l-16 81l11 120l33 -28l167 -113l217 -109l87 -27l-32 -38l-48 -43l-82 -29h-74l-55 7l-7 16l-32 32l-44 6l-21 -22l-61 60zM337 41l-2 39l40 13l17 -5l16 -22
v-27l-16 -22h-17z" />
    <glyph glyph-name="s" unicode="s" horiz-adv-x="1362" 
d="M564 991l-81 -27l-70 18l-112 -9l-55 -45v-70l35 -44v-9l-151 -9l-53 -61l18 -62l80 -88l8 -36l-88 -17h-18l-25 -28l8 -70l97 -89l36 -18l53 -106l96 -96l141 -88l99 -36h212l96 36l18 17l108 -17l86 13l10 75l-62 53l27 43h70l61 36l36 53l-8 27l-71 53l8 71l107 35
l35 44l-9 53l-115 71h-26l-53 97l-159 159l-124 62l-123 17zM400 884l31 27l124 53l151 9l70 -9l114 -35l124 -89l81 -96l61 -151l-18 -18l-61 10l-178 43l-223 85l-210 127zM514 576q9 23 0 44.5t-32 30.5t-44.5 0t-30.5 -32q-8 -20 -2 -38l-63 47l-96 92l17 24l36 34
l220 -133l151 -60l344 -107l133 -17v-45l-35 -79h-62l-150 35l-57 19q14 3 25 12t17 23q9 23 0 45t-32 31t-44.5 -0.5t-30.5 -32.5q-7 -16 -4 -32t14 -28l-272 91l-54 39q17 1 31 10.5t21 26.5zM559 273l-217 108l-132 88l-9 88l62 -43l255 -126l293 -117l236 -45l-50 -76
l-83 28zM547 37l-143 70l-123 114l-45 81l55 -31l316 -138l257 -79l-62 -27l-141 -9zM465 151q-2 5 -6 6.5t-7.5 0.5t-6 -4.5t-0.5 -8.5q6 -17 24.5 -33.5t42.5 -29.5t48.5 -21t41.5 -8q20 0 34.5 3t31.5 5q5 1 7.5 4.5t1.5 8t-4 7.5t-9 2q-15 -2 -29.5 -5t-32.5 -3
q-16 0 -37.5 7.5t-42.5 18.5t-37 24.5t-20 25.5zM485 571q-5 -11 -15 -15.5t-21 0.5t-15.5 15t0.5 21t15 15.5t21 0.5q11 -5 15.5 -15.5t-0.5 -21.5zM856 422q-5 -11 -15 -15.5t-21 -0.5q-11 5 -15.5 15t0.5 21q4 11 14.5 15.5t21.5 0.5q11 -5 15.5 -15t-0.5 -21z" />
    <glyph glyph-name="t" unicode="t" horiz-adv-x="1338" 
d="M45 956v-67l29 -29h15l154 -280l-14 -80l7 -110l58 -162l52 -73l73 -59l103 -44l89 -13l138 36l103 -74h89l43 44v95l-21 51v30l73 162l15 80v96l-8 7l154 178l74 6l30 29l-8 81l-44 43l-66 -14l-29 -36v-30l-191 -125l-44 58l-81 52l-26 15l-19 30l-36 58l-73 66l-52 14
l-51 -7l-51 -51l-22 -110l-103 -37l-37 -30l-183 133v88l-44 22l-67 -15zM1175 853l15 14l52 15l29 -22v-89l-51 -7l-45 51v38zM654 756l8 67l119 -8l119 -66l33 -43l16 -67l65 -80h14v-74l-14 -110l-59 -132l-73 -80l-81 94l-59 111l-58 206zM59 933l30 37l58 7l15 -7
l2 -65l-31 -23l-44 -8l-22 22zM382 742l37 29l89 30l6 -133l16 -88l36 -124l74 -205l89 -161l-42 -7l-84 -23l-89 15l-95 43l-65 59l-37 59l-44 109l-21 115l13 120h8l36 8l33 16l48 64l11 44zM890 541q0 24 -17 41t-41 17t-41 -17t-17 -41t17 -41t41 -17t41 17t17 41z
M490 541q0 24 -17 41t-41 17t-41 -17t-17 -41t17 -41t41 -17t41 17t17 41zM640 105q14 0 24 3.5t11.5 7.5t-6.5 7.5t-29 3.5q-69 0 -113 40.5t-61 103.5q-2 5 -6 7t-7.5 0.5t-6.5 -5t-1 -8.5q9 -34 26 -63t41.5 -50.5t56.5 -34t71 -12.5zM864 526q0 -11 -8 -19.5t-19 -8.5
q-12 0 -20 8.5t-8 19.5t8 19.5t20 8.5q11 0 19 -8.5t8 -19.5zM464 526q0 -11 -8 -19.5t-19 -8.5q-12 0 -20 8.5t-8 19.5t8 19.5t20 8.5q11 0 19 -8.5t8 -19.5z" />
    <glyph glyph-name="u" unicode="u" horiz-adv-x="1226" 
d="M432 695q0 20 -14 34.5t-34 14.5q-21 0 -35 -14.5t-14 -34.5q0 -18 11.5 -32t28.5 -17l-18 -9l-21 -25l-5 -32l22 -19h76l20 -52l32 -40l51 -42h3l4 -10l10 -66l10 -27l17 -10l28 3l31 38l18 55l61 24l28 21l65 -42l38 -7l30 4l14 17l-3 42l-27 40l-52 55l4 55v11l57 28
l28 27l-3 31l-20 14h-52l-32 -9l-13 -5l-4 -4l-12 12q-3 4 -7 7l-35 39l-7 87l-14 24l-27 20l-24 -3l-25 -24l-24 -79v-4l-4 -3h-10l-58 48l-30 14l-43 4l-11 -13l-14 -23l6 -52l33 -57l-23 -44l-26 -6q15 15 15 36zM583 434l4 17l17 120l127 -109l-10 -11l-31 -17l-44 -16
l-63 6v10zM656 595l30 4l114 27v-58l-17 -52l-20 -24l-117 103h10zM443 557l41 7l75 14l-3 -25l-10 -88l-7 -31l-44 35l-32 37zM628 733l9 48h19l42 -11l31 -27q-3 1 -8 1q-20 0 -34.5 -14.5t-14.5 -34.5q0 -18 11 -31.5t28 -16.5l-97 -14v14l7 27zM621 847l16 28l26 19
l17 -6l25 -32l2 -37v-45l-13 7l-2 46l-9 26l-20 4l-17 -17l-18 -52l-27 -151l-21 17l21 106zM556 362l-6 62l22 175l21 -21l-17 -138l-3 -72l14 -13h6l14 10l18 41h17l-10 -38l-35 -44h-7l-10 -3l-13 13zM783 709l34 10l49 4l20 -11l3 -20l-16 -21l-28 -17l-127 -38l-83 -14
l-17 17l82 14l138 32l21 16v11l-11 10h-10l-31 -3l-20 -6l-8 13zM360 626l31 18l45 10l-4 -14l-38 -10l-16 -18v-10l13 -13h7l141 17l17 3l7 -14l-10 -10l-108 -16l-91 5l-11 11v21zM935 879l-6 1l-29 -4l-11 -1l-16 26l-7 10l-4 -1l-3 -12l-4 -29l-1 -2l-20 -4l-19 -6l1 -6
l34 -16l-2 -23l-1 -22l10 4l27 27l36 -17l4 1l-17 37l17 21l9 12zM1138 778h-6l-29 -4l-10 -1l-17 26l-6 11l-5 -1l-3 -13l-4 -29l-1 -2l-19 -4l-20 -6l1 -5l34 -17l-1 -23l-2 -23l10 6l27 26l36 -17h5l-18 38l17 22l10 11zM1193 215l-4 2h-30l-11 2l-11 29l-4 11h-4l-6 -11
l-10 -29l-2 -2h-19l-21 -2v-6l31 -22l-12 -44l12 3l31 21l32 -23h4l-10 40l21 17l12 10zM1060 605h-5l-29 -4l-12 -1l-15 26l-7 11l-4 -1l-4 -12l-4 -30l-1 -2l-20 -4l-19 -6l1 -5l34 -16l-2 -24v-23l9 6l27 27l36 -18h5l-19 38l18 22l10 11zM1132 427l-4 1l-30 1l-11 1
l-11 29l-4 12h-4l-6 -12l-9 -28l-2 -2h-20l-20 -2v-5l30 -23l-6 -23l-5 -22l11 3l31 22l32 -24h4l-10 40l21 18l12 9zM974 323l-5 1l-29 1l-12 1l-10 29l-4 11h-5l-5 -11l-10 -28l-2 -2h-19l-21 -2v-6l31 -22l-12 -44l11 3l32 21l32 -24h4l-11 40l22 18l12 10zM549 210v4
l-4 1l-29 -5l-12 -1l-15 26l-7 11l-4 -1l-3 -12l-4 -30l-1 -2l-20 -4l-19 -6v-5l35 -16l-2 -23l-1 -23l9 6l28 26l35 -17l5 1l-19 37l18 21zM149 530v4l-4 1l-29 -5l-12 -1l-15 26l-7 11l-4 -1l-3 -12l-4 -30l-1 -2l-20 -4l-19 -6v-5l35 -16l-2 -23l-1 -23l9 6l28 26l35 -17
l5 1l-19 37l18 21zM349 399l-4 1l-30 1l-12 1l-10 29l-4 11h-4l-6 -11l-9 -28l-2 -2h-21l-19 -2v-5l31 -23l-6 -23l-6 -21l11 3l31 22l32 -24h4l-11 39l21 18l13 9zM749 79l-4 1l-30 1l-12 1l-10 29l-4 11h-4l-6 -11l-9 -28l-2 -2h-21l-19 -2v-5l31 -23l-6 -23l-6 -21l11 3
l31 22l32 -24h4l-11 39l21 18l13 9zM694 279h-5l-28 -4l-12 -1l-16 26l-7 11l-3 -1l-4 -12l-4 -30l-1 -2l-20 -4l-19 -6l1 -5l35 -16l-2 -23l-1 -23l8 6l28 27l35 -18h5l-19 38l18 21l10 12zM294 599h-5l-28 -4l-12 -1l-16 26l-7 11l-3 -1l-4 -12l-4 -30l-1 -2l-20 -4
l-19 -6l1 -5l35 -16l-2 -23l-1 -23l8 6l28 27l35 -18h5l-19 38l18 21l10 12zM429 939h-5l-29 -4l-12 -1l-16 27l-7 10l-3 -1l-3 -12l-4 -30l-2 -2l-20 -4l-18 -5l1 -5l34 -17l-2 -23l-1 -22l10 5l26 27l36 -17h4l-18 37l27 33zM291 968l-4 1l-29 -4l-12 -1l-16 26l-7 10h-3
l-3 -12l-4 -30l-2 -2l-20 -4l-18 -6l1 -5l34 -16l-2 -24l-1 -21l9 4l27 28l36 -18l4 1l-18 37l17 22l10 10zM344 755v4l-4 1l-28 -5h-12l-17 26l-6 10l-3 -1l-4 -12l-4 -29l-1 -2l-20 -4l-18 -6l1 -5l34 -16l-2 -24l-2 -21l10 4l26 28l37 -19l3 2l-18 37l18 21zM191 844h-5
l-28 -4l-12 -1l-16 26l-7 11l-3 -1l-3 -12l-4 -30l-2 -2l-20 -4l-18 -6v-4l35 -17l-2 -23l-1 -22l9 5l27 27l36 -18h4l-19 38l18 21l10 12zM446 633l3 25l25 41l72 -80l-11 -3l-96 -14v10zM511 744l45 26l34 7l-20 -112l-3 2l-63 69zM286 594l-26 -29v-4l10 -18l5 -11
l-32 15l-5 -4l-24 -24l-2 -1l3 19l1 20l-18 10l-8 3l-7 3l4 2l18 4l14 2l6 42l7 -13l11 -20l3 -2l18 2zM686 274l-26 -29v-4l10 -18l5 -11l-32 15l-5 -4l-24 -24l-2 -1l3 19l1 20l-18 10l-8 3l-7 3l4 2l18 4l14 2l6 42l7 -13l11 -20l3 -2l18 2zM183 839l-26 -29v-4l10 -18
l5 -11l-32 15l-5 -3l-24 -25l-2 -1l3 19l1 21l-18 10l-8 2l-7 3l4 2l18 4l14 3l7 41l6 -13l11 -20l4 -2l17 2zM541 209l-26 -29v-4l10 -18l6 -11l-32 15l-5 -3l-24 -24l-2 -1l3 18l1 21l-19 9l-7 4l-7 3l3 1l19 4l14 3l6 41l7 -12l11 -21l3 -2l17 2zM141 529l-26 -29v-4
l10 -18l6 -11l-32 15l-5 -3l-24 -24l-2 -1l3 18l1 21l-19 9l-7 4l-7 3l3 1l19 4l14 3l6 41l7 -12l11 -21l3 -2l17 2zM283 964l-26 -29l1 -4l9 -18l6 -11l-33 15l-5 -3l-24 -25l-1 -1l3 19v21l-18 10l-8 3l-7 3l4 1l18 4l15 2l6 42l6 -12l11 -21l4 -2l17 2zM420 935l-26 -30
l1 -4l9 -18l6 -10l-33 15l-29 -29h-1l3 18l1 21l-18 10l-8 3l-7 3l3 1l18 4l14 2l7 42l6 -13l12 -20l3 -2l17 2zM336 755l-25 -29v-4l10 -19l5 -10l-32 15l-5 -3l-25 -26h-1l3 18l1 21l-18 10l-8 3l-7 3l4 1l18 4l14 3l7 41l6 -12l11 -20l3 -3l18 2zM740 75l-31 -23v-4
l5 -20l4 -11l-29 21l-5 -3l-29 -20h-1l6 18l5 20l-16 12l-7 5l-7 4l4 1h34l13 40l4 -14l8 -22l2 -2l18 -2h22zM340 395l-31 -23v-4l5 -20l4 -11l-29 21l-5 -3l-29 -20h-1l6 18l5 20l-16 12l-7 5l-7 4l4 1h34l13 40l4 -14l8 -22l2 -2l18 -2h22zM963 319l-30 -23v-5l5 -19
l4 -10l-28 20l-6 -3l-28 -19h-1l6 16l5 21l-16 13l-7 4l-6 4l3 1h33l15 38l3 -11l7 -23l2 -3l19 -1h20zM1128 772l-26 -28l1 -4l10 -19l5 -9l-32 15l-4 -5l-25 -24l3 18v21l-19 9l-7 4l-6 2l2 1l19 4l14 3l6 40l6 -12l11 -20l3 -2l18 2zM1122 423l-31 -23v-4l6 -20l3 -11
l-28 21l-5 -3l-29 -19l-1 -1l7 18l5 19l-17 14l-7 5l-5 3h3l18 1h15l14 38l3 -12l7 -22l3 -3l18 -1h21zM1183 211l-31 -22v-5l9 -30l-28 20l-6 -2l-28 -20l5 16l6 21l-17 13l-7 5l-5 4h36l13 39l4 -12l7 -23l3 -3l18 -1h21zM1049 599l-26 -29l2 -3l9 -19l5 -9l-31 15l-5 -5
l-25 -24l3 18l1 21l-18 10l-8 3l-6 2l2 1l18 4l15 3l6 40l6 -11l11 -21l4 -2l17 2zM924 874l-25 -28l1 -5l14 -28l-31 15l-5 -3l-24 -25l2 17l1 21l-19 10l-7 3l-6 3h2l19 4l14 3l6 40l6 -10l11 -21l3 -3l18 3zM465 790l9 19h21l9 -4l38 -28l-45 -30l-7 6zM772 486l7 6
l18 24l41 -41l3 -17l-7 -10l-13 3zM646 809l5 23l12 15l17 -7l3 -56l-13 7h-28zM411 682q0 -10 -6.5 -16.5t-16.5 -6.5t-17 6.5t-7 16.5t7 16.5t17 6.5t16.5 -6.5t6.5 -16.5zM749 682q0 -10 -7 -16.5t-17 -6.5t-16.5 6.5t-6.5 16.5t6.5 16.5t16.5 6.5t17 -6.5t7 -16.5z
M393 599l-8 12l14 13l33 7l-3 -12v-17h-14zM698 479q2 2 -0.5 3.5t-4.5 -0.5q-4 -5 -6.5 -11t-5.5 -11t-8 -8.5t-14 -3.5q-19 0 -30.5 11t-16.5 28q-1 3 -4 2.5t-2 -3.5q5 -19 18.5 -31.5t34.5 -12.5q11 0 16.5 4t10.5 10q3 5 5.5 11.5t6.5 11.5zM587 368l-4 42h31l-21 -42
h-6zM793 685l9 5l43 2v-7l-11 -7l-33 -9zM770 695q0 4 -1 6l3 -2l18 -34l-39 -9q8 7 13.5 17t5.5 22z" />
    <glyph glyph-name="v" unicode="v" horiz-adv-x="1444" 
d="M71 975l-18 -17l9 -83l100 -116l124 -109l-24 -74l17 -226l67 -149l148 -150l125 -50l242 9l116 58l91 83l75 -34l101 -24h116l50 50l-26 91l-74 100l-133 116l-18 126l-74 140l-141 143l-109 57l-124 17l-142 -25l-41 -17l-158 58l-124 42l-76 8zM79 891l-8 50l33 25
l116 9l92 -26l174 -74l-24 -9l-59 -57l17 -42l166 -191l208 -142l224 -100l125 -33l16 17l25 91l109 -82l83 -134l8 -40l-26 -36l-40 -7l-134 17l-307 141l-457 308l-250 207zM827 759l67 50l17 32h16l66 -58l-25 -24l-8 -51l17 -99v-100l-75 -91l-41 16l-233 149l50 101
l67 49zM436 800l67 59l108 40l167 9l107 -42v-25l-33 -41l-133 -33l-67 -67l-50 -91l-57 57zM569 93l83 100l60 21q-8 -18 -3 -36.5t21 -31.5q19 -14 43 -11.5t38 21.5q15 19 12.5 43t-22.5 39q-10 7 -18 9l44 21l117 -67l91 -40l-50 -60l-124 -66l-209 -17l-107 33l16 17z
M412 160l82 90l18 134l40 66l242 -166l-9 -8l-133 -42l-74 -74l-50 -92h-16zM320 310l-20 62l-14 187l17 74l25 -24l200 -142l-9 -8l-11 -16q-2 24 -22 41q-19 15 -42.5 12t-38.5 -22t-12 -43t22 -39q15 -12 34 -12.5t34 10.5l-13 -114l-75 -92l-9 9zM1002 476l16 66
l-25 183l25 42l33 -42l66 -116l34 -126l-17 -149l-49 9l-158 57zM351 114q1 5 -2 8.5t-7 4t-8 -1.5t-5 -7q-5 -24 8 -46.5t34 -40.5t45.5 -29t43.5 -11q14 0 22 5.5t19 11.5q5 3 6 7t-1 8t-6 6t-9 -1q-8 -4 -15.5 -9.5t-15.5 -5.5q-17 0 -37 9.5t-37 24.5t-27.5 33t-7.5 34z
M467 406q-7 -9 -18.5 -10.5t-20.5 5.5q-9 8 -10.5 19t5.5 20q8 9 19 11t20 -6q9 -7 11 -18.5t-6 -20.5zM782 160q-7 -9 -18.5 -10.5t-20.5 5.5q-9 8 -10.5 19t6.5 20q7 9 18 10.5t21 -5.5q9 -8 10.5 -19t-6.5 -20z" />
    <glyph glyph-name="w" unicode="w" horiz-adv-x="1126" 
d="M405 975l-134 -61l-78 -63l-89 -149l-45 -124l9 -178l63 -159l62 -89l106 -88l160 -63l247 18l168 80l115 115l54 98l24 193l-16 152l-71 124l-160 151l-96 43l-148 24zM813 719l-187 89l71 142h27l150 -89zM1033 444l-256 134l43 88h19l204 -106zM591 826l-222 114
l72 18l123 17l108 -17l-10 -8zM697 426l9 10l54 106h7l266 -133v-26l-35 -98l-88 36zM388 781l-142 80l25 26l72 35l186 -96l43 -26l-8 -9l-45 -89zM865 143l-248 124l62 124h18l9 -8l124 -53l150 -81l-88 -106h-27zM583 285l-99 70l-88 45l63 124l194 -106v-18zM715 46
l-168 97l17 18l36 80l256 -123zM317 276l18 18v8l53 71l184 -114l-53 -107zM662 37l-9 -9h-159l44 90zM281 294l-17 18l-169 88l-8 142l256 -151l-8 -25zM449 28l-132 54l-71 61l61 106l205 -123zM219 161l-8 10l-36 43l-71 152l167 -99zM693 485l-31 -41l-45 35l-140 71
l7 10l54 106l194 -106l-8 -10l-8 -17q-1 23 -17.5 39.5t-40.5 16.5t-41 -17t-17 -41t17 -41t41 -17q20 0 35 12zM316 531q0 24 -17 41t-41 17t-41 -17t-17 -41q0 -14 6 -26l-111 63v27l36 107h9l291 -160l-71 -124l-97 55q23 2 38 18.5t15 39.5zM691 516q0 -11 -8.5 -19.5
t-19.5 -8.5t-19.5 8.5t-8.5 19.5t8.5 19.5t19.5 8.5t19.5 -8.5t8.5 -19.5zM291 516q0 -11 -8.5 -19.5t-19.5 -8.5t-19.5 8.5t-8.5 19.5t8.5 19.5t19.5 8.5t19.5 -8.5t8.5 -19.5zM347 290q-4 -3 -4 -8q0 -4 2.5 -7.5t6.5 -4.5t9 2l8 6q4 3 7.5 5t8.5 2q3 0 7.5 0.5t9.5 0.5h4
q3 0 5 -1q3 -3 3 -13q0 -9 1.5 -19.5t7 -19t19.5 -8.5q9 0 14.5 3t9 8t6 11t6.5 11l0.5 0.5t1.5 0.5q7 -5 13.5 -23.5l9.5 -26.5q2 -5 6 -6.5t7.5 0t6 5.5t0.5 9q-2 7 -5.5 17.5t-9 21t-12.5 18t-17 7.5q-9 0 -14.5 -5.5t-8.5 -11.5l-6 -11.5t-8 -5.5q-1 0 -3 1q-4 8 -4 18
q0 11 -1.5 20t-7.5 15.5t-24 6.5q-5 0 -10 -0.5t-7 -0.5q-9 0 -15.5 -3t-13.5 -8z" />
    <glyph glyph-name="x" unicode="x" horiz-adv-x="1721" 
d="M1688 764l-12 23l-91 60l-79 18l-140 2l-180 -2l-35 32l-135 75l-130 27l-131 -20l-192 -92l-125 -115l-62 -120l-174 -71l-111 -74l-58 -82l32 -69l117 -41l110 -10l88 6l62 -116l97 -99l240 -94l142 5l204 98l120 127l97 221l2 84l163 65l142 81zM1078 671
q0 -24 -17 -41t-41 -17t-41 17t-17 41t17 41t41 17t41 -17t17 -41zM1665 753l-27 -46l-129 -78l-326 -120l-322 -118l-248 -30l-359 -33l-140 30l-38 23l-13 45l21 37l131 105l139 45l-8 -102l11 -22l138 -11l261 20l260 70l235 133l32 36l-39 79l-21 18l201 13l102 -7
l113 -50zM678 671q0 -24 -17 -41t-41 -17t-41 17t-17 41t17 41t41 17t41 -17t17 -41zM981 199q-14 -19 -23 -40.5t-22 -41.5q-14 -22 -37 -37t-61 -15q-39 0 -71 12.5t-56.5 34t-41.5 50.5t-26 63q-2 5 1 8.5t7 5t8 -0.5t5 -7q17 -63 61 -103.5t113 -40.5q33 0 51 12.5
t29.5 31t21 40.5t24.5 42q3 4 7 4q5 0 8 -2.5t4 -7t-2 -8.5zM1052 656q0 11 -8 19.5t-19 8.5q-12 0 -20 -8.5t-8 -19.5t8 -19.5t20 -8.5q11 0 19 8.5t8 19.5zM652 656q0 11 -8 19.5t-19 8.5q-12 0 -20 -8.5t-8 -19.5t8 -19.5t20 -8.5q11 0 19 8.5t8 19.5z" />
    <glyph glyph-name="y" unicode="y" horiz-adv-x="1277" 
d="M502 12q69 -13 140 -9t137.5 24t123.5 57.5t98 91.5v18l201 9l45 43l-9 53q-8 7 -27 28t-41 42.5t-42 37.5t-30 14q7 89 -7 171t-50 152t-96 126t-146 92q-8 3 -23 10t-32 13t-32.5 10.5t-25.5 3.5q-30 -3 -76.5 -7t-94.5 -13t-90.5 -25t-63.5 -42q-24 18 -58.5 33.5
t-72 24.5t-75 10.5t-66.5 -7.5l-35 -44l9 -78q26 -38 57 -73.5t66 -66.5q-11 -23 -18 -48.5t-11 -52.5t-5 -53t-1 -50v-164q9 -67 38.5 -121t73.5 -95t99.5 -68.5t116.5 -41.5q-10 -17 -27 -28.5t-51 -11.5q-54 0 -94.5 26t-63.5 74q-5 11 -8 22.5t-8 21.5q-5 11 -13.5 8.5
t-7.5 -14.5q2 -31 19.5 -59t43.5 -50t58 -36t64 -16t60.5 10.5t47.5 42.5zM1078 427q0 -9 -1 -18.5l-2 -18.5q-37 0 -86.5 13t-106 35t-117 52.5t-119 65.5t-112.5 73.5t-97 76.5t-72.5 74t-39.5 67l14.5 14.5l24.5 24.5l24 24t14 12q28 12 69.5 24t85.5 21t86.5 13t71.5 0
q24 -4 54 -17.5t61 -33.5t62.5 -44.5t58.5 -50.5t48.5 -51t33.5 -46q19 -33 28 -72t12 -79.5t3 -81.5q0 -40 2 -77zM992 203q-49 -65 -103.5 -104.5t-114 -59t-125 -21t-137.5 10.5q9 15 17 30.5l15 29.5q5 11 -2 16.5t-15 -2.5q-17 -14 -24.5 -33t-15.5 -37l-28 6l-28 6
q32 39 79 71.5l88 59.5l-10 9q1 3 -1 16.5t-5.5 32t-8 40l-8.5 41l-7 34.5l-4 20q-21 3 -48.5 0.5t-56 -7.5t-56.5 -10.5t-50 -8.5l-61 -193q-30 26 -52.5 66.5t-37.5 89.5t-22.5 102t-6 103.5t11 95.5t28.5 78q20 -20 59.5 -50.5t92 -67l114.5 -77.5l125.5 -80.5
l125.5 -75.5l115.5 -64.5t94.5 -46t62 -20.5zM563 185l-141 -114h-44l-78 62l70 193l158 17zM750 195q16 24 9.5 46t-24 34.5t-41 11.5t-39.5 -25t-9.5 -46t24.5 -34.5t41 -11t39 24.5zM721 198q-8 -11 -19 -12t-19.5 5t-11.5 16.5t5 21.5t19 12t19.5 -5t11.5 -16.5
t-5 -21.5zM423 425q16 24 9.5 46t-24 34.5t-41 11t-39.5 -25.5q-17 -23 -10 -45t24.5 -34.5t40.5 -11.5t40 25zM393 427q-8 -11 -18.5 -12t-19 5t-12 17t4.5 22t19 11.5t19.5 -5.5t11.5 -16.5t-5 -21.5z" />
    <glyph glyph-name="z" unicode="z" horiz-adv-x="1274" 
d="M326 269v-1l63 -71l91 -62l83 -24q-19 -11 -36 -23.5t-35 -21t-39 -8.5q-20 0 -45 15q-56 32 -75 84.5t-7 111.5zM589 99q4 1 6 5l71 4l128 38l206 -126l106 -19l95 34l35 76l-38 87l-133 128l-118 83l-15 7l-8 92l-41 98l-75 86l-102 58l-74 12l-61 -4l-148 117l-99 65
l-134 58l-51 1l-81 -35l-14 -68l46 -109l109 -130l86 -83l-20 -101v-69l48 -107q-4 -2 -4 -7q-9 -34 -9.5 -67.5t10 -64.5t32 -58t55.5 -46q34 -20 61 -18t50 14q21 11 39.5 25.5t41.5 23.5zM869 205l18 20l30 83l12 32l122 -114l56 -86l-4 -26l-27 -10l-34 6zM650 554
l126 51l30 43l-3 24l64 -72l33 -76l17 -137l-19 -83l-42 -87l-245 204l19 32l4 58zM268 725l-120 145l-18 51l27 9l42 -9l149 -85l119 -103l-22 -8l-85 -61l-17 -6zM432 191l29 32l17 94l65 29l9 -9l225 -171l-104 -43l-80 -4l-98 28zM331 295l-39 86l-12 84l17 94l227 -195
l-50 -18l-24 -39l-1 -32l-11 -46l-27 -24l-28 27zM511 636q12 20 5.5 43.5t-27.5 35.5q-1 0 -3 2l26 14l52 12l81 3l69 -18l65 -40l4 -30l-14 -30l-133 -53l-16 -25l-10 -92l-18 -19l-52 38l-178 162l18 20l23 12q-2 -17 5.5 -32.5t22.5 -24.5q21 -12 44.5 -5.5t35.5 27.5z
M481 635q-5 -10 -16 -13t-22 3q-10 6 -12.5 17t2.5 21q6 10 17 13t21 -3t13 -17t-3 -21zM857 436q12 20 6 43.5t-27 35.5t-44 5.5t-35 -26.5q-12 -21 -6 -44.5t27 -35.5t44 -5.5t35 27.5zM828 435q-6 -10 -17 -13t-21 3t-13 17t3 21q5 10 16 13t22 -3q10 -6 12.5 -17
t-2.5 -21zM809 731q-3 -5 -1 -9t5.5 -6t8 -1t7.5 6q11 20 35 49.5t48.5 56.5l43 46.5l18.5 19.5l-18 12l-12.5 -13l-31 -33.5l-39.5 -44.5l-38 -45.5t-26 -37.5zM839 714q-5 -2 -6.5 -6t0 -8t5.5 -6t9 0q2 1 20 6l43.5 12l54.5 15l54.5 15t43.5 11.5t21 5.5q7 1 5.5 7t-5 10
t-4.5 5q-2 -1 -24 -7l-58 -15.5l-70 -19l-60 -17t-29 -8.5zM776 736q0 -6 3 -9t7 -3t8 2.5t4 7.5q1 27 0.5 64.5t-2 71t-3 57.5l-1.5 24l-22 2l1.5 -24t3 -58t2 -71t-0.5 -64z" />
    <glyph glyph-name="braceleft" unicode="{" 
 />
    <glyph glyph-name="bar" unicode="|" 
 />
    <glyph glyph-name="braceright" unicode="}" 
 />
    <glyph glyph-name="asciitilde" unicode="~" 
 />
    <glyph glyph-name="quotesinglbase" unicode="&#x201a;" 
 />
    <glyph glyph-name="florin" unicode="&#x192;" 
 />
    <glyph glyph-name="quotedblbase" unicode="&#x201e;" 
 />
    <glyph glyph-name="ellipsis" unicode="&#x2026;" 
 />
    <glyph glyph-name="dagger" unicode="&#x2020;" 
 />
    <glyph glyph-name="daggerdbl" unicode="&#x2021;" 
 />
    <glyph glyph-name="circumflex" unicode="&#x2c6;" 
 />
    <glyph glyph-name="perthousand" unicode="&#x2030;" 
 />
    <glyph glyph-name="Scaron" unicode="&#x160;" 
 />
    <glyph glyph-name="guilsinglleft" unicode="&#x2039;" 
 />
    <glyph glyph-name="OE" unicode="&#x152;" 
 />
    <glyph glyph-name="quoteleft" unicode="&#x2018;" 
 />
    <glyph glyph-name="quoteright" unicode="&#x2019;" 
 />
    <glyph glyph-name="quotedblleft" unicode="&#x201c;" 
 />
    <glyph glyph-name="quotedblright" unicode="&#x201d;" 
 />
    <glyph glyph-name="bullet" unicode="&#x2022;" 
 />
    <glyph glyph-name="endash" unicode="&#x2013;" 
 />
    <glyph glyph-name="emdash" unicode="&#x2014;" 
 />
    <glyph glyph-name="tilde" unicode="&#x2dc;" 
 />
    <glyph glyph-name="trademark" unicode="&#x2122;" 
 />
    <glyph glyph-name="scaron" unicode="&#x161;" 
 />
    <glyph glyph-name="guilsinglright" unicode="&#x203a;" 
 />
    <glyph glyph-name="oe" unicode="&#x153;" 
 />
    <glyph glyph-name="Ydieresis" unicode="&#x178;" 
 />
    <glyph glyph-name="exclamdown" unicode="&#xa1;" 
 />
    <glyph glyph-name="cent" unicode="&#xa2;" 
 />
    <glyph glyph-name="sterling" unicode="&#xa3;" 
 />
    <glyph glyph-name="currency" unicode="&#xa4;" 
 />
    <glyph glyph-name="yen" unicode="&#xa5;" 
 />
    <glyph glyph-name="brokenbar" unicode="&#xa6;" 
 />
    <glyph glyph-name="section" unicode="&#xa7;" 
 />
    <glyph glyph-name="dieresis" unicode="&#xa8;" 
 />
    <glyph glyph-name="copyright" unicode="&#xa9;" 
 />
    <glyph glyph-name="ordfeminine" unicode="&#xaa;" 
 />
    <glyph glyph-name="guillemotleft" unicode="&#xab;" 
 />
    <glyph glyph-name="logicalnot" unicode="&#xac;" horiz-adv-x="1118" 
d="M1059 500q0 103 -39 194.5t-107 159t-159 107t-195 39.5q-69 0 -133 -18t-119.5 -50.5t-101 -78t-78 -101t-50.5 -119.5t-18 -133t18 -133t50.5 -119.5t78 -101t101 -78t119.5 -50.5t133 -18q104 0 195 39.5t159 107t107 158.5t39 195zM1012 360q-28 -15 -66.5 -21.5
t-68.5 4.5l-7 -3q-6 -12 -16 -27.5t-14 -27.5q-3 -11 -7 -27.5t-7.5 -34t-8 -33t-8.5 -22.5l-3 -1l-5.5 43t-5.5 56.5t-0.5 57t8.5 45.5q0 2 -6.5 8.5t-15 13l-16 12t-9.5 6.5l-131 162l-131 161q-1 -2 -2 -1t-2 -1q1 -6 -4 -16.5t-12 -22l-13.5 -22l-9.5 -15.5l2 -10
q17 -14 29 -35t26 -38q6 -8 20.5 -26l32.5 -41l37.5 -48.5t35.5 -48.5t26.5 -41t11.5 -26q-8 -13 -25 -14.5t-30 -3.5q-3 2 -16.5 19l-32.5 42.5l-40.5 55.5l-41 57l-34 47.5t-18.5 27.5q-14 21 -29.5 42t-34.5 38q-3 0 -5 -2q-2 -4 -8 -13l-12.5 -19.5t-11.5 -20.5t-5 -15
l10 -10q13 -23 23.5 -45t23.5 -45q6 -10 20.5 -29l32.5 -43l37.5 -50l35.5 -49t26 -40.5t10 -24.5q-17 -18 -32 -18.5t-28 8.5t-23.5 24t-18.5 29l-22.5 36.5l-32.5 52l-38.5 59l-39.5 57.5t-36 48t-28 30l-16.5 -11.5t-28.5 -17.5t-28 -11.5t-16 6.5q1 3 5.5 8t10 10.5
t10.5 9.5t8 6q20 16 50 25.5t56 7.5q9 15 20.5 32t26 30.5t32.5 20t39 -1.5q34 55 59.5 75t45.5 16.5t36 -23t31 -41.5q6 13 14 27.5l17 29.5l17.5 29.5l14.5 25.5q3 5 9.5 12.5t18.5 7.5t17 -12t7 -28t1.5 -32.5t-0.5 -24.5v-19q18 3 38 -14t39.5 -42.5t37 -53.5t31.5 -47
q21 -41 28 -82t5 -86q9 -9 19.5 -14t21.5 -9l22.5 -8.5t20.5 -11.5h44zM680 812q-2 0 -10.5 -14.5l-19.5 -34.5q8 -6 13.5 -13.5t5.5 -18.5q0 -22 -17 -28t-34 -4q-2 -6 -4 -10.5t-4 -8.5q10 -13 20 -21.5t21 -10.5q11 37 22 55v45q0 3 3 13t5 21.5t2.5 20.5t-3.5 9z
M653 731q0 5 -3 9.5t-7 8.5l-5 -9l8 -4q7 -4 3.5 -11t-10.5 -3l-8 4l-6 -12q10 -1 19 2.5t9 14.5zM810 461q0 11 -2.5 26t-6.5 30t-9.5 29.5t-10.5 24.5q-5 13 -13 29t-18.5 31.5t-22.5 28.5t-24 20l-29 -62q3 -3 7 -9.5t9 -13t10 -11.5t9 -5l8 -8z" />
    <glyph glyph-name="registered" unicode="&#xae;" 
 />
    <glyph glyph-name="macron" unicode="&#xaf;" 
 />
    <glyph glyph-name="degree" unicode="&#xb0;" 
 />
    <glyph glyph-name="plusminus" unicode="&#xb1;" 
 />
    <glyph glyph-name="twosuperior" unicode="&#xb2;" 
 />
    <glyph glyph-name="threesuperior" unicode="&#xb3;" 
 />
    <glyph glyph-name="acute" unicode="&#xb4;" 
 />
    <glyph glyph-name="mu" unicode="&#xb5;" 
 />
    <glyph glyph-name="paragraph" unicode="&#xb6;" 
 />
    <glyph glyph-name="periodcentered" unicode="&#xb7;" 
 />
    <glyph glyph-name="periodcentered" unicode="&#x2219;" 
 />
    <glyph glyph-name="cedilla" unicode="&#xb8;" 
 />
    <glyph glyph-name="onesuperior" unicode="&#xb9;" 
 />
    <glyph glyph-name="ordmasculine" unicode="&#xba;" 
 />
    <glyph glyph-name="guillemotright" unicode="&#xbb;" 
 />
    <glyph glyph-name="onequarter" unicode="&#xbc;" 
 />
    <glyph glyph-name="onehalf" unicode="&#xbd;" 
 />
    <glyph glyph-name="threequarters" unicode="&#xbe;" 
 />
    <glyph glyph-name="questiondown" unicode="&#xbf;" 
 />
    <glyph glyph-name="Agrave" unicode="&#xc0;" 
 />
    <glyph glyph-name="Aacute" unicode="&#xc1;" 
 />
    <glyph glyph-name="Acircumflex" unicode="&#xc2;" 
 />
    <glyph glyph-name="Atilde" unicode="&#xc3;" 
 />
    <glyph glyph-name="Adieresis" unicode="&#xc4;" 
 />
    <glyph glyph-name="Aring" unicode="&#xc5;" 
 />
    <glyph glyph-name="AE" unicode="&#xc6;" 
 />
    <glyph glyph-name="Ccedilla" unicode="&#xc7;" 
 />
    <glyph glyph-name="Egrave" unicode="&#xc8;" 
 />
    <glyph glyph-name="Eacute" unicode="&#xc9;" 
 />
    <glyph glyph-name="Ecircumflex" unicode="&#xca;" 
 />
    <glyph glyph-name="Edieresis" unicode="&#xcb;" 
 />
    <glyph glyph-name="Igrave" unicode="&#xcc;" 
 />
    <glyph glyph-name="Iacute" unicode="&#xcd;" 
 />
    <glyph glyph-name="Icircumflex" unicode="&#xce;" 
 />
    <glyph glyph-name="Idieresis" unicode="&#xcf;" 
 />
    <glyph glyph-name="Eth" unicode="&#xd0;" horiz-adv-x="677" 
d="M596 841q0 24 -17 41t-41 17t-41 -17t-17 -41t17 -41t41 -17t41 17t17 41zM196 841q0 24 -17 41t-41 17t-41 -17t-17 -41t17 -41t41 -17t41 17t17 41zM571 826q0 -11 -8 -19.5t-20 -8.5q-11 0 -19 8.5t-8 19.5t8 19.5t19 8.5q12 0 20 -8.5t8 -19.5zM171 826
q0 -11 -8 -19.5t-20 -8.5q-11 0 -19 8.5t-8 19.5t8 19.5t19 8.5q12 0 20 -8.5t8 -19.5z" />
    <glyph glyph-name="Ntilde" unicode="&#xd1;" 
 />
    <glyph glyph-name="Ograve" unicode="&#xd2;" 
 />
    <glyph glyph-name="Oacute" unicode="&#xd3;" 
 />
    <glyph glyph-name="Ocircumflex" unicode="&#xd4;" 
 />
    <glyph glyph-name="Otilde" unicode="&#xd5;" 
 />
    <glyph glyph-name="Odieresis" unicode="&#xd6;" 
 />
    <glyph glyph-name="multiply" unicode="&#xd7;" 
 />
    <glyph glyph-name="Oslash" unicode="&#xd8;" 
 />
    <glyph glyph-name="Ugrave" unicode="&#xd9;" 
 />
    <glyph glyph-name="Uacute" unicode="&#xda;" 
 />
    <glyph glyph-name="Ucircumflex" unicode="&#xdb;" 
 />
    <glyph glyph-name="Udieresis" unicode="&#xdc;" 
 />
    <glyph glyph-name="Yacute" unicode="&#xdd;" 
 />
    <glyph glyph-name="Thorn" unicode="&#xde;" 
 />
    <glyph glyph-name="germandbls" unicode="&#xdf;" 
 />
    <glyph glyph-name="agrave" unicode="&#xe0;" 
 />
    <glyph glyph-name="aacute" unicode="&#xe1;" 
 />
    <glyph glyph-name="acircumflex" unicode="&#xe2;" 
 />
    <glyph glyph-name="atilde" unicode="&#xe3;" 
 />
    <glyph glyph-name="adieresis" unicode="&#xe4;" 
 />
    <glyph glyph-name="aring" unicode="&#xe5;" 
 />
    <glyph glyph-name="ae" unicode="&#xe6;" 
 />
    <glyph glyph-name="ccedilla" unicode="&#xe7;" 
 />
    <glyph glyph-name="egrave" unicode="&#xe8;" 
 />
    <glyph glyph-name="eacute" unicode="&#xe9;" 
 />
    <glyph glyph-name="ecircumflex" unicode="&#xea;" horiz-adv-x="1635" 
d="M640 974l-146 -92l-247 28l-128 -23l-63 -58l-14 -90l60 -91l103 -75l93 -34l10 -3l35 -188l59 -128l117 -125l116 -61l161 -32l216 36l123 71l86 81l55 98l172 11l62 21l58 41l30 113l-32 57l-101 83l-196 72l-34 83l-56 72l-126 90l-34 18l-222 50l-157 -25v0z
M1320 492l-12 74l28 -13l88 -45l11 -47l-32 -10l-92 6l9 35v0zM750 964l40 8l222 -50l33 -18l124 -98l-31 -11l-151 -110l-67 -1l-55 42l-30 65l-32 18l-59 62l-11 97l17 -4v0zM1153 549l70 36l48 5l12 -97l-9 -35l-144 28l23 63v0zM563 900l45 26l85 34l13 -22l1 -66
l23 -53l58 -35l39 -67l43 -49l87 -23l143 76l29 39l62 21l32 -57l37 -104l-37 2l-89 -52l-22 -51l-25 -22l-162 25l-572 152l20 33l98 -16l86 42l21 42l-17 42l14 53l-12 30v0zM1303 601l-15 50l61 -17l59 -24l106 -65l56 -71l-25 -99l-90 -51l-89 -13l-134 4l-745 183
l-275 101l-88 61l-60 91l20 71l59 50l89 14l238 -26l-13 -6l-38 -38l-98 17l-126 -12l-38 -38l8 -40l30 -27l64 -45l388 -107l477 -104l187 -40l75 -2l72 28l10 35l-13 23l-21 24l-131 73v0zM1107 257l-3 57l142 -28l-24 -59l-73 -66l-27 45l-15 51v0zM434 728l-33 19
l139 132l-13 -67l20 -48l-22 -12l-65 -31l-26 7v0zM207 789l100 21l87 -24l-25 -22l-41 -83l-68 28l-70 57l5 17l12 6v0zM340 519l154 -61l584 -136l-9 -73l63 -111l-133 -77l-89 88l-34 85l-31 27l-40 21l-54 -23l-7 -28l-72 -55l-80 -92l-57 33l-6 31l25 77l7 28l-47 107
l-94 33l-59 -12l-21 138v0zM739 176l47 73l26 -7l37 -39l43 -86l76 -68l-31 -9l-135 -13l-178 39l37 66l78 44v0zM379 347l13 7l57 4l31 -27l44 -78l-29 -105l-5 11l-69 94l-42 94v0z" />
    <glyph glyph-name="edieresis" unicode="&#xeb;" horiz-adv-x="1635" 
d="M994 974l-157 25l-222 -50l-33 -18l-127 -90l-55 -72l-35 -83l-196 -72l-100 -83l-32 -57l30 -113l57 -41l62 -21l172 -11l56 -98l86 -81l122 -71l217 -36l161 32l115 61l118 125l59 128l34 188l10 3l94 34l103 75l59 91l-14 90l-63 58l-128 23l-246 -28zM332 601
l-132 -73l-21 -24l-12 -23l9 -35l73 -28l75 2l186 40l477 104l389 107l63 45l30 27l8 40l-38 38l-125 12l-99 -17l-38 38l-12 6l237 26l89 -14l60 -50l19 -71l-60 -91l-87 -61l-275 -101l-746 -183l-134 -4l-89 13l-89 51l-26 99l57 71l106 65l58 24l62 17zM594 594
q-5 23 -24.5 37t-42.5 10q-22 -5 -35.5 -21.5t-12.5 -37.5l-68 40l-37 -2l37 104l33 57l62 -21l29 -39l142 -76l88 23l43 49l39 67l57 35l23 53l2 66l12 22l85 -34l45 -26l-11 -30l14 -53l-18 -42l21 -42l87 -42l98 16l19 -33l-571 -152l-163 -25l-24 22l-4 9q13 -5 28 -2
q23 5 37 24.5t10 43.5zM1295 519l-22 -138l-59 12l-93 -33l-47 -107l7 -28l25 -77l-7 -31l-56 -33l-81 92l-71 55l-7 28l-54 23l-41 -21l-31 -27l-33 -85l-89 -88l-134 77l64 111l-10 73l585 136zM885 964l16 4l-11 -97l-58 -62l-33 -18l-30 -65l-55 -42l-67 1l-150 110
l-32 11l125 98l32 18l223 50zM895 176l79 -44l36 -66l-177 -39l-136 13l-30 9l76 68l43 86l36 39l26 7zM1256 347l-43 -94l-69 -94l-5 -11l-28 105l44 78l31 27l56 -4zM1428 789l11 -6l6 -17l-70 -57l-68 -28l-42 83l-24 22l86 24zM481 549l24 -63l-144 -28l-10 35l13 97
l47 -5zM527 257l-15 -51l-26 -45l-74 66l-24 59l143 28zM988 663q-5 24 -24.5 38t-42.5 9q-24 -4 -38 -24t-9 -43q4 -24 23.5 -38t43.5 -9q23 4 37 24t10 43zM1200 728l-26 -7l-64 31l-22 12l19 48l-13 67l140 -132zM314 492l10 -35l-93 -6l-32 10l12 47l87 45l29 13z
M572 574q2 -11 -5 -20.5t-18 -11.5t-20.5 5t-11.5 18t4.5 20.5t18.5 11.5q11 2 20.5 -4.5t11.5 -18.5zM966 644q2 -11 -5 -20.5t-18 -11.5t-20.5 4.5t-11.5 17.5t4.5 20.5t17.5 11.5q12 2 21.5 -4.5t11.5 -17.5z" />
    <glyph glyph-name="igrave" unicode="&#xec;" horiz-adv-x="1025" 
d="M502 953l-42 41l-40 5l-47 -34l-24 -41l-11 -147l-93 -98l-7 5l-22 10l-53 14h-88l-35 -24l-6 -52l47 -47l98 -47v-17l7 -94l-88 -93l-46 -70l-6 -71l23 -28l52 -6l65 11l111 70l46 -35l106 -40l29 -94l52 -64l47 -6l30 17l17 47l18 111l5 17h6l88 71l53 70l35 88h128
l38 31l-9 56l-35 41l-47 24l-99 23l-41 75l58 98l9 88l-22 39l-20 23l-72 -7l-52 -24l-100 -82h-16l-7 6v6zM767 810l-44 -61l-11 -12l-76 52l64 47l17 6h35zM889 485l-37 7h-23v28l-7 19l58 -11l22 -21zM689 731l11 -12l-105 -116l-6 -6l-35 192l58 -12zM799 544l12 -35
v-17l-164 23l-17 6l122 135l42 -71zM946 532l28 -35v-35l-17 -20l-156 -8l-183 29l-18 16l12 23l30 -5l239 -29h12l23 24v17l-29 29l-65 18l-5 23l76 -17zM460 844l7 -31h-47l-24 -12l6 93l28 12l20 -24zM502 906l35 -145l34 -182l-34 -29l-47 257l-30 87l-29 30l-35 -6
l-15 -45l-3 -78l-23 -11v75l5 63l42 54l29 12l44 -32zM490 714l12 -100l11 -46v-24l-164 24l-134 29l30 59l46 52l80 69l72 18h32zM805 415l-35 -87l-53 -64l-75 -59l-12 53l-17 150l-6 42l128 -23zM811 854l-6 -59l-46 -100l-129 -145l-316 -269l-111 -82l-58 -23h-64
l-23 36l17 58l41 58l70 70l12 -35l-88 -88l-6 -23v-18l23 -22l41 5l117 81l193 170l205 199l87 110l17 53l-35 36l-69 -18l-71 -53l-23 12l100 76l63 18l35 -7zM226 672l6 -5l-13 -21l-33 10l-53 5h-17l-18 -18v-17l35 -29l234 -53l140 -23l-29 -31l-140 25l-217 64l-46 30
l-29 34l6 36l35 16l81 -5zM612 83l-17 -47l-24 -23l-17 5h-12l-58 76l-17 65h28l30 -71l24 -17h11l24 23l-6 122l-29 234l36 35l38 -296zM209 632l-13 -27l-56 15l-19 12v11l73 -4zM565 205v-17l-106 -10l-74 27l-53 29l-18 18l216 187l30 -205zM443 480h17l-199 -175
l-35 40l-28 88v99l192 -47zM560 94h-11l-24 47l-11 24h28h23zM245 293l-82 -59l-23 -6l-13 18l6 29l70 70l29 -40zM786 540q7 23 -5 44t-35 28t-43.5 -5t-27.5 -35t4.5 -44t34.5 -27q23 -7 44 4.5t28 34.5zM402 651q7 23 -5 44t-35 27q-23 7 -44 -4.5t-28 -34.5t5 -44
t35 -28t44 5t28 35zM758 533q-3 -11 -13 -16.5t-21 -2.5t-17 13t-3 21q4 11 14 16.5t21 2.5t16.5 -13t2.5 -21zM373 643q-3 -11 -13 -16.5t-21 -2.5t-16.5 13t-2.5 21t13 17t21 2q11 -3 17 -13t2 -21z" />
    <glyph glyph-name="iacute" unicode="&#xed;" horiz-adv-x="1588" 
d="M1022 927l-118 54l-161 18l-108 -18l-117 -54l-119 -107l-16 -1l-242 10l-54 -18l-46 -46v-98l100 -108l116 -54l36 -190l54 -97l136 -136l135 -63l233 -18l154 54l133 99l90 108l37 99l225 36l54 36l9 90l-73 108l-134 72l-126 26l-82 100zM1445 523v-18l-54 -28
l-109 -8l-17 144l126 -46zM1220 657l26 -126v-62l-306 18v126l-17 36l17 36l119 116l8 54l108 -108zM1022 901l18 -18l-10 -64l-44 -62l-90 -72v-54l27 -64l-19 -36v-44l-216 26l-7 91l-28 45l9 72l19 44l-10 54l-80 108l-10 10l117 35l216 -17zM350 753l-183 -6l-18 -18
v-62l90 -75l63 -21l325 -84l385 -36h396l46 26l18 19l-10 53l-98 64l-108 36l-18 54l99 -28l135 -71l55 -73l-16 -83l-39 -33l-294 -33l-397 31l-335 64l-233 72l-100 64l-54 72l9 80l55 36l36 10l224 -18zM1246 361l-44 -99l-82 -99l-102 -65l-50 65l-18 55l-63 62l45 90
l279 -9h35zM635 729l-17 -36l17 -80l27 -64v-38l-71 12l-226 54l-57 30l57 114l100 125l89 73l90 -126zM860 289v-27l72 -81l27 -72l36 -27l-126 -54l-242 10l-126 62l53 54l27 99l90 98l10 46l215 -27zM285 613l-55 18l-53 54v27l17 17h153zM627 344l-82 -82l-18 -91
l-18 -26l-26 -27l-108 108l-73 161l-9 100l360 -90zM1203 530q7 23 -5 44t-35 28t-44 -5t-28 -35q-6 -23 5.5 -44t34.5 -27q23 -7 44 4.5t28 34.5zM818 641q7 23 -4.5 44t-34.5 27q-23 7 -44 -4.5t-28 -34.5t5 -44t35 -28t44 5t27 35zM1175 523q-4 -11 -14 -16.5t-21 -2.5
t-16.5 13t-2.5 21t13.5 16.5t21.5 2.5t16.5 -13t2.5 -21zM790 633q-3 -11 -13 -16.5t-21 -2.5t-17 13t-2 21q3 11 13 17t21 2q11 -3 16.5 -13t2.5 -21z" />
    <glyph glyph-name="icircumflex" unicode="&#xee;" horiz-adv-x="1125" 
d="M858 895l-134 72l-189 32l-136 -32l-100 -45l-117 -99l-81 -127l-45 -179l19 -163l62 -126l118 -126l178 -84l208 -17l199 74l119 99l80 144l27 154l-17 188l-83 126zM1012 660h-90l-28 46l10 54l18 36l55 -71zM696 949l-62 -98l-145 -137l-154 -71l-126 -19l-80 19
l-10 9v27l63 99l127 117l126 54l109 18l90 -9zM814 886l-118 -136l-171 -134l-180 -82l-199 -17l-63 9l18 90l72 -17l162 7l172 82l171 171l46 72l72 -26zM904 823l-46 -81l10 -72l45 -46h99l8 9l19 -80v-63h-99l-162 -54l-163 -90l-126 -136l-81 -153l-73 27l-72 46l-26 25
l62 100v55l-62 54h-108l-10 -10h-18l-9 36l-9 82v18l244 8l198 82l171 116l126 144l18 28zM822 94l-162 -65l-72 -8l36 81l72 90l136 99l171 73l20 1l-75 -164zM1039 408l-243 -98l-109 -82l-107 -134l-29 -65l-107 19l63 136l163 162l162 81l134 34h73v-53zM263 300l-8 -63
l-36 -63l-54 54l-55 99l27 9l108 -9zM728 580q7 23 -4.5 44t-34.5 28t-44 -5t-28 -35t5 -44t35 -27q23 -7 44 4.5t27 34.5zM344 691q7 23 -5 44t-35 27q-23 7 -44 -4.5t-28 -34.5q-6 -23 5.5 -44t34.5 -28t44 5t28 35zM700 573q-3 -11 -13 -16.5t-21 -2.5t-17 13t-2 21
q3 11 13 16.5t21 2.5t16.5 -13t2.5 -21zM316 683q-4 -11 -14 -16.5t-21 -2.5t-16.5 13t-2.5 21t13 17t21 2q11 -3 17 -13t3 -21z" />
    <glyph glyph-name="idieresis" unicode="&#xef;" horiz-adv-x="1131" 
d="M904 890l-165 91l-239 18l-136 -37l-165 -109l-91 -128l-47 -128v-212l37 -118l101 -138l111 -81l99 -37l138 -10l202 28l118 55l92 74l64 91l37 97l9 177l-27 165l-47 92zM1032 623v-256l-19 -45l-109 74l-27 26l27 83l-37 118l-27 56l55 156v26l82 -91zM859 817
l-46 -102l9 -81l45 -93l-18 -109v-28l110 -92l36 -8l10 -10l-46 -100l-28 -28l-72 28l-37 37l-18 73l-55 45l-18 18l26 211l-82 137l9 73l65 83l8 73l102 -54v-73zM712 953l9 -27v-28l-82 -136l18 -83l64 -92l-9 -128l-18 -55l8 -55l73 -64l29 -91l55 -46l36 -9l-156 -83
l-128 -27h-18l-9 -10l36 194l-54 109l18 147l-10 36l-136 110v91l17 28l-17 83l-66 54l-72 19l-9 8l118 55l110 19l183 -10zM391 817l28 -37l-10 -74l-18 -27v-56l146 -127l19 -37l-27 -101l8 -73l37 -54l-8 -156l-19 -46l-138 9l37 64v82l-18 56l18 91l9 36v29l-72 73
l-92 54l-18 46l8 54l29 65l-10 63l-92 66l55 54l83 -28zM273 734l-10 -74l-27 -73l19 -64l91 -73l37 -18l36 -36l-10 -84l-18 -54l10 -64l18 -28l-10 -55l-26 -63l-128 63l-120 138l-55 147l10 219l54 119l37 46l74 -29zM816 681q-7 23 -28 34.5t-44 4.5q-23 -6 -35 -27
t-5 -44t28 -35t44 -5t34.5 28t5.5 44zM431 570q-7 23 -28 35t-44 5t-34.5 -28t-4.5 -44q6 -23 27 -34.5t44 -4.5q23 6 35 27t5 44zM795 659q4 -11 -2 -21t-17 -13t-21 2.5t-13 16.5t2.5 21t16.5 13t21 -2.5t13 -16.5zM411 549q3 -11 -2.5 -21t-16.5 -13q-11 -4 -21 2t-13 17
q-4 11 2 21t17 13t21 -2.5t13 -16.5z" />
    <glyph glyph-name="eth" unicode="&#xf0;" horiz-adv-x="1118" 
d="M1059 500q0 103 -39 194.5t-107 159t-159 107t-195 39.5q-69 0 -133 -18t-119.5 -50.5t-101 -78t-78 -101t-50.5 -119.5t-18 -133t18 -133t50.5 -119.5t78 -101t101 -78t119.5 -50.5t133 -18q104 0 195 39.5t159 107t107 158.5t39 195z" />
    <glyph glyph-name="ntilde" unicode="&#xf1;" horiz-adv-x="1589" 
d="M565 927l-116 -98l-82 -100l-126 -26l-134 -72l-72 -108l9 -90l53 -36l225 -36l37 -99l90 -108l133 -99l155 -54l233 18l135 63l135 136l54 97l36 190l117 54l100 108v98l-47 46l-53 18l-242 -10l-16 1l-120 107l-116 54l-108 18l-162 -18l-118 -54v0zM1303 613l-63 116
h153l18 -17v-27l-54 -54l-54 -18v0zM953 729l-10 64l90 126l90 -73l99 -125l58 -114l-58 -30l-225 -54l-72 -12v38l28 64l17 80l-17 36v0zM565 901l108 54l216 17l117 -35l-9 -10l-81 -108l-9 -54l18 -44l10 -72l-28 -45l-8 -91l-216 -26v44l-19 36l27 64v54l-90 72l-44 62
l-10 64l18 18v0zM961 344l-26 53l359 90l-9 -100l-72 -161l-108 -108l-26 27l-18 26l-19 91l-81 82v0zM1237 753l-32 40l224 18l36 -10l54 -36l10 -80l-55 -72l-100 -64l-233 -72l-335 -64l-396 -31l-295 33l-38 33l-16 83l54 73l136 71l98 28l-18 -54l-108 -36l-98 -64
l-10 -53l18 -19l46 -26h396l386 36l325 84l62 21l91 75v62l-18 18l-184 6v0zM367 657l46 90l108 108l8 -54l118 -116l17 -36l-17 -36v-126l-306 -18v62l26 126v0zM727 289l-36 81l216 27l9 -46l90 -98l27 -99l54 -54l-126 -62l-242 -10l-126 54l36 27l26 72l72 81v27v0z
M143 523l54 44l125 46l-17 -144l-108 8l-54 28v18v0zM341 361h36l278 9l46 -90l-63 -62l-19 -55l-50 -65l-102 65l-81 99l-45 99v0z" />
    <glyph glyph-name="ograve" unicode="&#xf2;" horiz-adv-x="1125" 
d="M266 895l-108 -109l-82 -126l-18 -188l27 -154l81 -144l118 -99l199 -74l209 17l177 84l118 126l63 126l18 163l-44 179l-82 127l-117 99l-100 45l-135 32l-190 -32l-134 -72v0zM429 949l62 9l90 9l108 -18l126 -54l127 -117l63 -99v-27l-9 -9l-81 -19l-126 19l-153 71
l-145 137l-62 98v0zM310 886l18 19l72 26l46 -72l171 -171l172 -82l162 -7l73 17l17 -90l-63 -9l-199 17l-180 82l-170 134l-119 136v0zM861 300l18 27l108 9l27 -9l-54 -99l-55 -54l-36 63l-8 63v0zM221 823l63 45l19 -28l126 -144l170 -116l198 -82l244 -8v-18l-9 -82
l-8 -36h-19l-9 10h-108l-63 -54v-55l63 -100l-27 -25l-72 -46l-72 -27l-81 153l-127 136l-162 90l-163 54h-99v63l19 80l8 -9h100l45 46l9 72l-45 81v0zM112 660l36 65l54 71l19 -36l9 -54l-28 -46h-90v0zM85 408v53h73l134 -34l162 -81l163 -162l64 -136l-108 -19l-28 65
l-108 134l-109 82l-243 98v0zM303 94l-127 107l-75 164l21 -1l170 -73l137 -99l71 -90l36 -81l-72 8l-161 65v0z" />
    <glyph glyph-name="oacute" unicode="&#xf3;" horiz-adv-x="1026" 
d="M523 953l-40 -134v-6l-7 -6h-17l-100 82l-52 24l-71 7l-20 -23l-22 -39l9 -88l57 -98l-40 -75l-99 -23l-47 -24l-35 -41l-9 -56l38 -31h128l35 -88l53 -70l88 -71h6l5 -17l18 -111l17 -47l30 -17l46 6l53 64l29 94l106 40l46 35l111 -70l64 -11l53 6l23 28l-6 71l-46 70
l-88 93l6 94v17l99 47l47 47l-6 52l-35 24h-88l-53 -14l-22 -10l-7 -5l-93 98l-11 147l-24 41l-47 34l-40 -5l-42 -41v0zM816 632l15 7l72 4v-11l-18 -12l-56 -15l-13 27v0zM565 844l10 38l19 24l29 -12l6 -93l-24 12h-47l7 31v0zM798 672l59 18l81 5l35 -16l6 -36l-29 -34
l-47 -30l-216 -64l-141 -25l-28 31l140 23l234 53l35 29v17l-18 18h-17l-53 -5l-33 -10l-14 21l6 5v0zM535 714l14 81h33l72 -18l80 -69l46 -52l30 -59l-134 -29l-164 -24v24l11 46l12 100v0zM523 906l27 50l44 32l29 -12l42 -54l5 -63v-75l-23 11l-4 78l-14 45l-35 6
l-29 -30l-30 -87l-47 -257l-35 29l35 182l35 145v0zM214 854l24 40l35 7l63 -18l100 -76l-23 -12l-71 53l-69 18l-35 -36l16 -53l88 -110l205 -199l193 -170l117 -81l40 -5l24 22v18l-6 23l-88 88l12 35l70 -70l41 -58l17 -58l-23 -36h-64l-58 23l-111 82l-316 269l-129 145
l-46 100l-6 59v0zM780 293l12 12l30 40l70 -70l5 -29l-12 -18l-23 6l-82 59v0zM582 480l53 5l192 47v-99l-29 -88l-34 -40l-199 175h17v0zM258 810l15 32h34l18 -6l64 -47l-76 -52l-12 12l-43 61v0zM336 731l77 46l58 12l-35 -192l-6 6l-105 116l11 12v0zM459 205l6 29
l29 205l217 -187l-18 -18l-53 -29l-74 -27l-107 10v17v0zM226 544l5 41l42 71l122 -135l-17 -6l-164 -23v17l12 35v0zM79 532l53 30l76 17l-6 -23l-64 -18l-29 -29v-17l23 -24h12l239 29l30 5l12 -23l-19 -16l-182 -29l-156 8l-18 20v35l29 35v0zM413 83l-11 106l38 296
l36 -35l-30 -234l-5 -122l24 -23h11l24 17l30 71h28l-17 -65l-58 -76h-12l-18 -5l-23 23l-17 47v0zM136 485l-13 22l22 21l57 11l-6 -19v-28h-23l-37 -7v0zM220 415l70 12l128 23l-6 -42l-17 -150l-12 -53l-76 59l-53 64l-34 87v0zM465 94l-6 71h24h28l-11 -24l-24 -47h-11
v0z" />
    <glyph glyph-name="ocircumflex" unicode="&#xf4;" horiz-adv-x="1131" 
d="M226 890l-91 -110l-47 -92l-27 -165l9 -177l37 -97l64 -91l92 -74l118 -55l202 -28l138 10l99 37l111 81l101 138l37 118v212l-47 128l-91 128l-165 109l-136 37l-239 -18l-165 -91v0zM857 734l18 17l74 29l37 -46l54 -119l10 -219l-55 -147l-120 -138l-128 -63l-26 63
l-10 55l18 28l10 64l-18 54l-10 84l36 36l37 18l91 73l19 64l-27 73l-10 74v0zM739 817l45 26l83 28l55 -54l-91 -66l-11 -63l29 -65l8 -54l-18 -46l-92 -54l-72 -73v-29l9 -36l18 -91l-18 -56v-82l37 -64l-138 -9l-19 46l-8 156l37 54l8 73l-27 101l19 37l146 127v56
l-18 27l-10 74l28 37v0zM418 953l10 9l183 10l110 -19l118 -55l-8 -8l-73 -19l-65 -54l-18 -83l18 -28v-91l-137 -110l-10 -36l18 -147l-54 -109l36 -194l-9 10h-18l-128 27l-156 83l37 9l54 46l29 91l73 64l8 55l-18 55l-9 128l64 92l18 83l-82 136v28l9 27v0zM272 817v73
l101 54l8 -73l65 -83l9 -73l-82 -137l26 -211l-18 -18l-55 -45l-18 -73l-36 -37l-73 -28l-28 28l-46 100l10 10l36 8l110 92v28l-18 109l45 93l10 81l-46 102v0zM98 623l55 147l82 91v-26l55 -156l-27 -56l-37 -118l27 -83l-27 -26l-109 -74l-19 45v256v0z" />
    <glyph glyph-name="otilde" unicode="&#xf5;" 
 />
    <glyph glyph-name="odieresis" unicode="&#xf6;" 
 />
    <glyph glyph-name="divide" unicode="&#xf7;" 
 />
    <glyph glyph-name="oslash" unicode="&#xf8;" 
 />
    <glyph glyph-name="ugrave" unicode="&#xf9;" 
 />
    <glyph glyph-name="uacute" unicode="&#xfa;" 
 />
    <glyph glyph-name="ucircumflex" unicode="&#xfb;" 
 />
    <glyph glyph-name="udieresis" unicode="&#xfc;" 
 />
    <glyph glyph-name="yacute" unicode="&#xfd;" 
 />
    <glyph glyph-name="thorn" unicode="&#xfe;" 
 />
    <glyph glyph-name="ydieresis" unicode="&#xff;" 
 />
  </font>
</defs>
</svg>
